<?xml version="1.0" encoding="UTF-8" standalone="no"?><svg xmlns="http://www.w3.org/2000/svg" xmlns:xlink="http://www.w3.org/1999/xlink" contentScriptType="application/ecmascript" contentStyleType="text/css" height="226px" preserveAspectRatio="none" style="width:538px;height:226px;" version="1.1" viewBox="0 0 538 226" width="538px" zoomAndPan="magnify"><defs><filter height="300%" id="fz2nbqpovlhcg" width="300%" x="-1" y="-1"><feGaussianBlur result="blurOut" stdDeviation="2.0"/><feColorMatrix in="blurOut" result="blurOut2" type="matrix" values="0 0 0 0 0 0 0 0 0 0 0 0 0 0 0 0 0 0 .4 0"/><feOffset dx="4.0" dy="4.0" in="blurOut2" result="blurOut3"/><feBlend in="SourceGraphic" in2="blurOut3" mode="normal"/></filter></defs><g><!--MD5=[99a223c99682a2c07db0d19af40aade3]
class BoxSelection--><rect fill="#FEFECE" filter="url(#fz2nbqpovlhcg)" height="99.2188" id="BoxSelection" style="stroke: #A80036; stroke-width: 1.5;" width="521" x="6" y="116"/><ellipse cx="222.25" cy="132" fill="#ADD1B2" rx="11" ry="11" style="stroke: #A80036; stroke-width: 1.0;"/><path d="M225.2188,137.6406 Q224.6406,137.9375 224,138.0781 Q223.3594,138.2344 222.6563,138.2344 Q220.1563,138.2344 218.8281,136.5938 Q217.5156,134.9375 217.5156,131.8125 Q217.5156,128.6875 218.8281,127.0313 Q220.1563,125.375 222.6563,125.375 Q223.3594,125.375 224,125.5313 Q224.6563,125.6875 225.2188,125.9844 L225.2188,128.7031 Q224.5938,128.125 224,127.8594 Q223.4063,127.5781 222.7813,127.5781 Q221.4375,127.5781 220.75,128.6563 Q220.0625,129.7188 220.0625,131.8125 Q220.0625,133.9063 220.75,134.9844 Q221.4375,136.0469 222.7813,136.0469 Q223.4063,136.0469 224,135.7813 Q224.5938,135.5 225.2188,134.9219 L225.2188,137.6406 Z "/><text fill="#000000" font-family="sans-serif" font-size="12" lengthAdjust="spacingAndGlyphs" textLength="80" x="242.75" y="136.1543">BoxSelection</text><line style="stroke: #A80036; stroke-width: 1.5;" x1="7" x2="526" y1="148" y2="148"/><line style="stroke: #A80036; stroke-width: 1.5;" x1="7" x2="526" y1="156" y2="156"/><ellipse cx="17" cy="167" fill="#84BE84" rx="3" ry="3" style="stroke: #038048; stroke-width: 1.0;"/><text fill="#000000" font-family="sans-serif" font-size="11" lengthAdjust="spacingAndGlyphs" textLength="435" x="26" y="170.2104">BoxSelection(placementData:PlacementGridData, gridManager:GridManager)</text><ellipse cx="17" cy="179.8047" fill="#84BE84" rx="3" ry="3" style="stroke: #038048; stroke-width: 1.0;"/><text fill="#000000" font-family="sans-serif" font-size="11" lengthAdjust="spacingAndGlyphs" textLength="495" x="26" y="183.0151">«override» ModifySelection(mousePosition:Vector3, selectionData:SelectionData) : bool</text><ellipse cx="17" cy="192.6094" fill="#84BE84" rx="3" ry="3" style="stroke: #038048; stroke-width: 1.0;"/><text fill="#000000" font-family="sans-serif" font-size="11" lengthAdjust="spacingAndGlyphs" textLength="486" x="26" y="195.8198">«override» StartSelection(mousePosition:Vector3, selectionData:SelectionData) : void</text><ellipse cx="17" cy="205.4141" fill="#84BE84" rx="3" ry="3" style="stroke: #038048; stroke-width: 1.0;"/><text fill="#000000" font-family="sans-serif" font-size="11" lengthAdjust="spacingAndGlyphs" textLength="352" x="26" y="208.6245">«override» FinishSelection(selectionData:SelectionData) : void</text><!--MD5=[b9d97c2f6c0f798d1e584316650c0b1a]
class SelectionStrategy--><rect fill="#FEFECE" filter="url(#fz2nbqpovlhcg)" height="48" id="SelectionStrategy" style="stroke: #A80036; stroke-width: 1.5;" width="143" x="195" y="8"/><ellipse cx="210" cy="24" fill="#ADD1B2" rx="11" ry="11" style="stroke: #A80036; stroke-width: 1.0;"/><path d="M212.9688,29.6406 Q212.3906,29.9375 211.75,30.0781 Q211.1094,30.2344 210.4063,30.2344 Q207.9063,30.2344 206.5781,28.5938 Q205.2656,26.9375 205.2656,23.8125 Q205.2656,20.6875 206.5781,19.0313 Q207.9063,17.375 210.4063,17.375 Q211.1094,17.375 211.75,17.5313 Q212.4063,17.6875 212.9688,17.9844 L212.9688,20.7031 Q212.3438,20.125 211.75,19.8594 Q211.1563,19.5781 210.5313,19.5781 Q209.1875,19.5781 208.5,20.6563 Q207.8125,21.7188 207.8125,23.8125 Q207.8125,25.9063 208.5,26.9844 Q209.1875,28.0469 210.5313,28.0469 Q211.1563,28.0469 211.75,27.7813 Q212.3438,27.5 212.9688,26.9219 L212.9688,29.6406 Z "/><text fill="#000000" font-family="sans-serif" font-size="12" lengthAdjust="spacingAndGlyphs" textLength="111" x="224" y="28.1543">SelectionStrategy</text><line style="stroke: #A80036; stroke-width: 1.5;" x1="196" x2="337" y1="40" y2="40"/><line style="stroke: #A80036; stroke-width: 1.5;" x1="196" x2="337" y1="48" y2="48"/><!--MD5=[f4454eea4d0e3c7da2630520fa7b670a]
reverse link SelectionStrategy to BoxSelection--><path d="M266.5,76.51 C266.5,89.14 266.5,103.01 266.5,115.93 " fill="none" id="SelectionStrategy&lt;-BoxSelection" style="stroke: #A80036; stroke-width: 1.0;"/><polygon fill="none" points="259.5,76.21,266.5,56.21,273.5,76.21,259.5,76.21" style="stroke: #A80036; stroke-width: 1.0;"/><!--MD5=[909250eff57b48569db6fc53147df834]
@startuml
class BoxSelection {
    + BoxSelection(placementData:PlacementGridData, gridManager:GridManager)
    + <<override>> ModifySelection(mousePosition:Vector3, selectionData:SelectionData) : bool
    + <<override>> StartSelection(mousePosition:Vector3, selectionData:SelectionData) : void
    + <<override>> FinishSelection(selectionData:SelectionData) : void
}
SelectionStrategy <|- - BoxSelection
@enduml

PlantUML version 1.2020.02(Sun Mar 01 10:22:07 GMT 2020)
(GPL source distribution)
Java Runtime: OpenJDK Runtime Environment
JVM: OpenJDK 64-Bit Server VM
Java Version: 11.0.9+11-Ubuntu-0ubuntu1
Operating System: Linux
Default Encoding: ANSI_X3.4-1968
Language: en
Country: US
--></g></svg>