<?xml version="1.0" encoding="UTF-8" standalone="no"?><svg xmlns="http://www.w3.org/2000/svg" xmlns:xlink="http://www.w3.org/1999/xlink" contentScriptType="application/ecmascript" contentStyleType="text/css" height="373px" preserveAspectRatio="none" style="width:727px;height:373px;" version="1.1" viewBox="0 0 727 373" width="727px" zoomAndPan="magnify"><defs><filter height="300%" id="f1bswue9wmuhx1" width="300%" x="-1" y="-1"><feGaussianBlur result="blurOut" stdDeviation="2.0"/><feColorMatrix in="blurOut" result="blurOut2" type="matrix" values="0 0 0 0 0 0 0 0 0 0 0 0 0 0 0 0 0 0 .4 0"/><feOffset dx="4.0" dy="4.0" in="blurOut2" result="blurOut3"/><feBlend in="SourceGraphic" in2="blurOut3" mode="normal"/></filter></defs><g><!--MD5=[f70209b8d1fb41530eb95f1d37ddbf84]
class ButtonFeedback--><rect fill="#FEFECE" filter="url(#f1bswue9wmuhx1)" height="137.6328" id="ButtonFeedback" style="stroke: #A80036; stroke-width: 1.5;" width="314" x="190" y="116"/><ellipse cx="291.25" cy="132" fill="#ADD1B2" rx="11" ry="11" style="stroke: #A80036; stroke-width: 1.0;"/><path d="M294.2188,137.6406 Q293.6406,137.9375 293,138.0781 Q292.3594,138.2344 291.6563,138.2344 Q289.1563,138.2344 287.8281,136.5938 Q286.5156,134.9375 286.5156,131.8125 Q286.5156,128.6875 287.8281,127.0313 Q289.1563,125.375 291.6563,125.375 Q292.3594,125.375 293,125.5313 Q293.6563,125.6875 294.2188,125.9844 L294.2188,128.7031 Q293.5938,128.125 293,127.8594 Q292.4063,127.5781 291.7813,127.5781 Q290.4375,127.5781 289.75,128.6563 Q289.0625,129.7188 289.0625,131.8125 Q289.0625,133.9063 289.75,134.9844 Q290.4375,136.0469 291.7813,136.0469 Q292.4063,136.0469 293,135.7813 Q293.5938,135.5 294.2188,134.9219 L294.2188,137.6406 Z "/><text fill="#000000" font-family="sans-serif" font-size="12" lengthAdjust="spacingAndGlyphs" textLength="103" x="311.75" y="136.1543">ButtonFeedback</text><line style="stroke: #A80036; stroke-width: 1.5;" x1="191" x2="503" y1="148" y2="148"/><text fill="#000000" font-family="sans-serif" font-size="11" lengthAdjust="spacingAndGlyphs" textLength="129" x="210" y="162.2104">selected : bool = false</text><ellipse cx="201" cy="171.8047" fill="none" rx="3" ry="3" style="stroke: #038048; stroke-width: 1.0;"/><text fill="#000000" font-family="sans-serif" font-size="11" lengthAdjust="spacingAndGlyphs" textLength="151" x="210" y="175.0151">«event» OnClicked : Action</text><line style="stroke: #A80036; stroke-width: 1.5;" x1="191" x2="503" y1="181.6094" y2="181.6094"/><ellipse cx="201" cy="192.6094" fill="#84BE84" rx="3" ry="3" style="stroke: #038048; stroke-width: 1.0;"/><text fill="#000000" font-family="sans-serif" font-size="11" lengthAdjust="spacingAndGlyphs" textLength="112" x="210" y="195.8198">ResetButton() : void</text><ellipse cx="201" cy="205.4141" fill="#84BE84" rx="3" ry="3" style="stroke: #038048; stroke-width: 1.0;"/><text fill="#000000" font-family="sans-serif" font-size="11" lengthAdjust="spacingAndGlyphs" textLength="287" x="210" y="208.6245">OnPointerEnter(eventData:PointerEventData) : void</text><ellipse cx="201" cy="218.2188" fill="#84BE84" rx="3" ry="3" style="stroke: #038048; stroke-width: 1.0;"/><text fill="#000000" font-family="sans-serif" font-size="11" lengthAdjust="spacingAndGlyphs" textLength="277" x="210" y="221.4292">OnPointerExit(eventData:PointerEventData) : void</text><ellipse cx="201" cy="231.0234" fill="#84BE84" rx="3" ry="3" style="stroke: #038048; stroke-width: 1.0;"/><text fill="#000000" font-family="sans-serif" font-size="11" lengthAdjust="spacingAndGlyphs" textLength="288" x="210" y="234.2339">OnPointerDown(eventData:PointerEventData) : void</text><ellipse cx="201" cy="243.8281" fill="#84BE84" rx="3" ry="3" style="stroke: #038048; stroke-width: 1.0;"/><text fill="#000000" font-family="sans-serif" font-size="11" lengthAdjust="spacingAndGlyphs" textLength="166" x="210" y="247.0386">ApplyClickedFeedback() : void</text><!--MD5=[83b3cf3d23d77c6f1e1b5291a241bc2a]
class MonoBehaviour--><rect fill="#FEFECE" filter="url(#f1bswue9wmuhx1)" height="48" id="MonoBehaviour" style="stroke: #A80036; stroke-width: 1.5;" width="128" x="6" y="8"/><ellipse cx="21" cy="24" fill="#ADD1B2" rx="11" ry="11" style="stroke: #A80036; stroke-width: 1.0;"/><path d="M23.9688,29.6406 Q23.3906,29.9375 22.75,30.0781 Q22.1094,30.2344 21.4063,30.2344 Q18.9063,30.2344 17.5781,28.5938 Q16.2656,26.9375 16.2656,23.8125 Q16.2656,20.6875 17.5781,19.0313 Q18.9063,17.375 21.4063,17.375 Q22.1094,17.375 22.75,17.5313 Q23.4063,17.6875 23.9688,17.9844 L23.9688,20.7031 Q23.3438,20.125 22.75,19.8594 Q22.1563,19.5781 21.5313,19.5781 Q20.1875,19.5781 19.5,20.6563 Q18.8125,21.7188 18.8125,23.8125 Q18.8125,25.9063 19.5,26.9844 Q20.1875,28.0469 21.5313,28.0469 Q22.1563,28.0469 22.75,27.7813 Q23.3438,27.5 23.9688,26.9219 L23.9688,29.6406 Z "/><text fill="#000000" font-family="sans-serif" font-size="12" lengthAdjust="spacingAndGlyphs" textLength="96" x="35" y="28.1543">MonoBehaviour</text><line style="stroke: #A80036; stroke-width: 1.5;" x1="7" x2="133" y1="40" y2="40"/><line style="stroke: #A80036; stroke-width: 1.5;" x1="7" x2="133" y1="48" y2="48"/><!--MD5=[de300939ba483addb7a9d01e73a2534d]
class IPointerEnterHandler--><rect fill="#FEFECE" filter="url(#f1bswue9wmuhx1)" height="48" id="IPointerEnterHandler" style="stroke: #A80036; stroke-width: 1.5;" width="163" x="169.5" y="8"/><ellipse cx="184.5" cy="24" fill="#ADD1B2" rx="11" ry="11" style="stroke: #A80036; stroke-width: 1.0;"/><path d="M187.4688,29.6406 Q186.8906,29.9375 186.25,30.0781 Q185.6094,30.2344 184.9063,30.2344 Q182.4063,30.2344 181.0781,28.5938 Q179.7656,26.9375 179.7656,23.8125 Q179.7656,20.6875 181.0781,19.0313 Q182.4063,17.375 184.9063,17.375 Q185.6094,17.375 186.25,17.5313 Q186.9063,17.6875 187.4688,17.9844 L187.4688,20.7031 Q186.8438,20.125 186.25,19.8594 Q185.6563,19.5781 185.0313,19.5781 Q183.6875,19.5781 183,20.6563 Q182.3125,21.7188 182.3125,23.8125 Q182.3125,25.9063 183,26.9844 Q183.6875,28.0469 185.0313,28.0469 Q185.6563,28.0469 186.25,27.7813 Q186.8438,27.5 187.4688,26.9219 L187.4688,29.6406 Z "/><text fill="#000000" font-family="sans-serif" font-size="12" lengthAdjust="spacingAndGlyphs" textLength="131" x="198.5" y="28.1543">IPointerEnterHandler</text><line style="stroke: #A80036; stroke-width: 1.5;" x1="170.5" x2="331.5" y1="40" y2="40"/><line style="stroke: #A80036; stroke-width: 1.5;" x1="170.5" x2="331.5" y1="48" y2="48"/><!--MD5=[2a05d73b1746723f7d92c082f91d8119]
class IPointerExitHandler--><rect fill="#FEFECE" filter="url(#f1bswue9wmuhx1)" height="48" id="IPointerExitHandler" style="stroke: #A80036; stroke-width: 1.5;" width="151" x="367.5" y="8"/><ellipse cx="382.5" cy="24" fill="#ADD1B2" rx="11" ry="11" style="stroke: #A80036; stroke-width: 1.0;"/><path d="M385.4688,29.6406 Q384.8906,29.9375 384.25,30.0781 Q383.6094,30.2344 382.9063,30.2344 Q380.4063,30.2344 379.0781,28.5938 Q377.7656,26.9375 377.7656,23.8125 Q377.7656,20.6875 379.0781,19.0313 Q380.4063,17.375 382.9063,17.375 Q383.6094,17.375 384.25,17.5313 Q384.9063,17.6875 385.4688,17.9844 L385.4688,20.7031 Q384.8438,20.125 384.25,19.8594 Q383.6563,19.5781 383.0313,19.5781 Q381.6875,19.5781 381,20.6563 Q380.3125,21.7188 380.3125,23.8125 Q380.3125,25.9063 381,26.9844 Q381.6875,28.0469 383.0313,28.0469 Q383.6563,28.0469 384.25,27.7813 Q384.8438,27.5 385.4688,26.9219 L385.4688,29.6406 Z "/><text fill="#000000" font-family="sans-serif" font-size="12" lengthAdjust="spacingAndGlyphs" textLength="119" x="396.5" y="28.1543">IPointerExitHandler</text><line style="stroke: #A80036; stroke-width: 1.5;" x1="368.5" x2="517.5" y1="40" y2="40"/><line style="stroke: #A80036; stroke-width: 1.5;" x1="368.5" x2="517.5" y1="48" y2="48"/><!--MD5=[461668fedb11703ee0efd569ed7c4f48]
class IPointerDownHandler--><rect fill="#FEFECE" filter="url(#f1bswue9wmuhx1)" height="48" id="IPointerDownHandler" style="stroke: #A80036; stroke-width: 1.5;" width="163" x="553.5" y="8"/><ellipse cx="568.5" cy="24" fill="#ADD1B2" rx="11" ry="11" style="stroke: #A80036; stroke-width: 1.0;"/><path d="M571.4688,29.6406 Q570.8906,29.9375 570.25,30.0781 Q569.6094,30.2344 568.9063,30.2344 Q566.4063,30.2344 565.0781,28.5938 Q563.7656,26.9375 563.7656,23.8125 Q563.7656,20.6875 565.0781,19.0313 Q566.4063,17.375 568.9063,17.375 Q569.6094,17.375 570.25,17.5313 Q570.9063,17.6875 571.4688,17.9844 L571.4688,20.7031 Q570.8438,20.125 570.25,19.8594 Q569.6563,19.5781 569.0313,19.5781 Q567.6875,19.5781 567,20.6563 Q566.3125,21.7188 566.3125,23.8125 Q566.3125,25.9063 567,26.9844 Q567.6875,28.0469 569.0313,28.0469 Q569.6563,28.0469 570.25,27.7813 Q570.8438,27.5 571.4688,26.9219 L571.4688,29.6406 Z "/><text fill="#000000" font-family="sans-serif" font-size="12" lengthAdjust="spacingAndGlyphs" textLength="131" x="582.5" y="28.1543">IPointerDownHandler</text><line style="stroke: #A80036; stroke-width: 1.5;" x1="554.5" x2="715.5" y1="40" y2="40"/><line style="stroke: #A80036; stroke-width: 1.5;" x1="554.5" x2="715.5" y1="48" y2="48"/><!--MD5=[18eee71c88ab61f27581b8cbdd3ef5ee]
class Color--><rect fill="#FEFECE" filter="url(#f1bswue9wmuhx1)" height="48" id="Color" style="stroke: #A80036; stroke-width: 1.5;" width="64" x="315" y="314"/><ellipse cx="330" cy="330" fill="#ADD1B2" rx="11" ry="11" style="stroke: #A80036; stroke-width: 1.0;"/><path d="M332.9688,335.6406 Q332.3906,335.9375 331.75,336.0781 Q331.1094,336.2344 330.4063,336.2344 Q327.9063,336.2344 326.5781,334.5938 Q325.2656,332.9375 325.2656,329.8125 Q325.2656,326.6875 326.5781,325.0313 Q327.9063,323.375 330.4063,323.375 Q331.1094,323.375 331.75,323.5313 Q332.4063,323.6875 332.9688,323.9844 L332.9688,326.7031 Q332.3438,326.125 331.75,325.8594 Q331.1563,325.5781 330.5313,325.5781 Q329.1875,325.5781 328.5,326.6563 Q327.8125,327.7188 327.8125,329.8125 Q327.8125,331.9063 328.5,332.9844 Q329.1875,334.0469 330.5313,334.0469 Q331.1563,334.0469 331.75,333.7813 Q332.3438,333.5 332.9688,332.9219 L332.9688,335.6406 Z "/><text fill="#000000" font-family="sans-serif" font-size="12" lengthAdjust="spacingAndGlyphs" textLength="32" x="344" y="334.1543">Color</text><line style="stroke: #A80036; stroke-width: 1.5;" x1="316" x2="378" y1="346" y2="346"/><line style="stroke: #A80036; stroke-width: 1.5;" x1="316" x2="378" y1="354" y2="354"/><!--MD5=[10ed8217fae08446b374b8129a7b390b]
reverse link MonoBehaviour to ButtonFeedback--><path d="M130.08,65.75 C157.15,80.51 190.19,98.52 222.23,115.99 " fill="none" id="MonoBehaviour&lt;-ButtonFeedback" style="stroke: #A80036; stroke-width: 1.0;"/><polygon fill="none" points="126.58,71.82,112.37,56.1,133.28,59.52,126.58,71.82" style="stroke: #A80036; stroke-width: 1.0;"/><!--MD5=[a59632b043637f262f03e41ed47f5f9c]
reverse link IPointerEnterHandler to ButtonFeedback--><path d="M276.66,73.36 C284.99,86.47 294.49,101.4 303.74,115.96 " fill="none" id="IPointerEnterHandler&lt;-ButtonFeedback" style="stroke: #A80036; stroke-width: 1.0;"/><polygon fill="none" points="270.61,76.9,265.79,56.26,282.43,69.39,270.61,76.9" style="stroke: #A80036; stroke-width: 1.0;"/><!--MD5=[414740b955c721108a01683424203ab9]
reverse link IPointerExitHandler to ButtonFeedback--><path d="M417.34,73.36 C409.01,86.47 399.51,101.4 390.26,115.96 " fill="none" id="IPointerExitHandler&lt;-ButtonFeedback" style="stroke: #A80036; stroke-width: 1.0;"/><polygon fill="none" points="411.57,69.39,428.21,56.26,423.39,76.9,411.57,69.39" style="stroke: #A80036; stroke-width: 1.0;"/><!--MD5=[11716d4efa5c1a26ba0a80e0378f75c3]
reverse link IPointerDownHandler to ButtonFeedback--><path d="M572.94,65.54 C544.72,80.33 510.2,98.43 476.72,115.99 " fill="none" id="IPointerDownHandler&lt;-ButtonFeedback" style="stroke: #A80036; stroke-width: 1.0;"/><polygon fill="none" points="569.98,59.19,590.95,56.1,576.48,71.58,569.98,59.19" style="stroke: #A80036; stroke-width: 1.0;"/><!--MD5=[b7b887b330f07a87567a986ebf707775]
link ButtonFeedback to Color--><path d="M347,254.43 C347,273.64 347,293.47 347,308.87 " fill="none" id="ButtonFeedback-&gt;Color" style="stroke: #A80036; stroke-width: 1.0;"/><polygon fill="#A80036" points="347,313.92,351,304.92,347,308.92,343,304.92,347,313.92" style="stroke: #A80036; stroke-width: 1.0;"/><text fill="#000000" font-family="sans-serif" font-size="13" lengthAdjust="spacingAndGlyphs" textLength="77" x="260.1344" y="302.9115">defaultColor</text><!--MD5=[25f746cc0a8a9b737366c8e706a35eac]
@startuml
class ButtonFeedback {
    selected : bool = false
    +  <<event>> OnClicked : Action 
    + ResetButton() : void
    + OnPointerEnter(eventData:PointerEventData) : void
    + OnPointerExit(eventData:PointerEventData) : void
    + OnPointerDown(eventData:PointerEventData) : void
    + ApplyClickedFeedback() : void
}
MonoBehaviour <|- - ButtonFeedback
IPointerEnterHandler <|- - ButtonFeedback
IPointerExitHandler <|- - ButtonFeedback
IPointerDownHandler <|- - ButtonFeedback
ButtonFeedback - -> "defaultColor" Color
@enduml

PlantUML version 1.2020.02(Sun Mar 01 10:22:07 GMT 2020)
(GPL source distribution)
Java Runtime: OpenJDK Runtime Environment
JVM: OpenJDK 64-Bit Server VM
Java Version: 11.0.9+11-Ubuntu-0ubuntu1
Operating System: Linux
Default Encoding: ANSI_X3.4-1968
Language: en
Country: US
--></g></svg>