<?xml version="1.0" encoding="UTF-8" standalone="no"?><svg xmlns="http://www.w3.org/2000/svg" xmlns:xlink="http://www.w3.org/1999/xlink" contentScriptType="application/ecmascript" contentStyleType="text/css" height="296px" preserveAspectRatio="none" style="width:239px;height:296px;" version="1.1" viewBox="0 0 239 296" width="239px" zoomAndPan="magnify"><defs><filter height="300%" id="f14x8t6lrapipf" width="300%" x="-1" y="-1"><feGaussianBlur result="blurOut" stdDeviation="2.0"/><feColorMatrix in="blurOut" result="blurOut2" type="matrix" values="0 0 0 0 0 0 0 0 0 0 0 0 0 0 0 0 0 0 .4 0"/><feOffset dx="4.0" dy="4.0" in="blurOut2" result="blurOut3"/><feBlend in="SourceGraphic" in2="blurOut3" mode="normal"/></filter></defs><g><!--MD5=[fdea9886e97e47a8989e4eddca89bb5b]
class ButtonHighlightController--><rect fill="#FEFECE" filter="url(#f14x8t6lrapipf)" height="60.8047" id="ButtonHighlightController" style="stroke: #A80036; stroke-width: 1.5;" width="190" x="38" y="116"/><ellipse cx="53" cy="132" fill="#ADD1B2" rx="11" ry="11" style="stroke: #A80036; stroke-width: 1.0;"/><path d="M55.9688,137.6406 Q55.3906,137.9375 54.75,138.0781 Q54.1094,138.2344 53.4063,138.2344 Q50.9063,138.2344 49.5781,136.5938 Q48.2656,134.9375 48.2656,131.8125 Q48.2656,128.6875 49.5781,127.0313 Q50.9063,125.375 53.4063,125.375 Q54.1094,125.375 54.75,125.5313 Q55.4063,125.6875 55.9688,125.9844 L55.9688,128.7031 Q55.3438,128.125 54.75,127.8594 Q54.1563,127.5781 53.5313,127.5781 Q52.1875,127.5781 51.5,128.6563 Q50.8125,129.7188 50.8125,131.8125 Q50.8125,133.9063 51.5,134.9844 Q52.1875,136.0469 53.5313,136.0469 Q54.1563,136.0469 54.75,135.7813 Q55.3438,135.5 55.9688,134.9219 L55.9688,137.6406 Z "/><text fill="#000000" font-family="sans-serif" font-size="12" lengthAdjust="spacingAndGlyphs" textLength="158" x="67" y="136.1543">ButtonHighlightController</text><line style="stroke: #A80036; stroke-width: 1.5;" x1="39" x2="227" y1="148" y2="148"/><line style="stroke: #A80036; stroke-width: 1.5;" x1="39" x2="227" y1="156" y2="156"/><ellipse cx="49" cy="167" fill="#84BE84" rx="3" ry="3" style="stroke: #038048; stroke-width: 1.0;"/><text fill="#000000" font-family="sans-serif" font-size="11" lengthAdjust="spacingAndGlyphs" textLength="88" x="58" y="170.2104">ResetAll() : void</text><!--MD5=[83b3cf3d23d77c6f1e1b5291a241bc2a]
class MonoBehaviour--><rect fill="#FEFECE" filter="url(#f14x8t6lrapipf)" height="48" id="MonoBehaviour" style="stroke: #A80036; stroke-width: 1.5;" width="128" x="69" y="8"/><ellipse cx="84" cy="24" fill="#ADD1B2" rx="11" ry="11" style="stroke: #A80036; stroke-width: 1.0;"/><path d="M86.9688,29.6406 Q86.3906,29.9375 85.75,30.0781 Q85.1094,30.2344 84.4063,30.2344 Q81.9063,30.2344 80.5781,28.5938 Q79.2656,26.9375 79.2656,23.8125 Q79.2656,20.6875 80.5781,19.0313 Q81.9063,17.375 84.4063,17.375 Q85.1094,17.375 85.75,17.5313 Q86.4063,17.6875 86.9688,17.9844 L86.9688,20.7031 Q86.3438,20.125 85.75,19.8594 Q85.1563,19.5781 84.5313,19.5781 Q83.1875,19.5781 82.5,20.6563 Q81.8125,21.7188 81.8125,23.8125 Q81.8125,25.9063 82.5,26.9844 Q83.1875,28.0469 84.5313,28.0469 Q85.1563,28.0469 85.75,27.7813 Q86.3438,27.5 86.9688,26.9219 L86.9688,29.6406 Z "/><text fill="#000000" font-family="sans-serif" font-size="12" lengthAdjust="spacingAndGlyphs" textLength="96" x="98" y="28.1543">MonoBehaviour</text><line style="stroke: #A80036; stroke-width: 1.5;" x1="70" x2="196" y1="40" y2="40"/><line style="stroke: #A80036; stroke-width: 1.5;" x1="70" x2="196" y1="48" y2="48"/><!--MD5=[1dcb072468b0d7732dfb17a5d7634985]
class AudioSource--><rect fill="#FEFECE" filter="url(#f14x8t6lrapipf)" height="48" id="AudioSource" style="stroke: #A80036; stroke-width: 1.5;" width="111" x="77.5" y="237"/><ellipse cx="92.5" cy="253" fill="#ADD1B2" rx="11" ry="11" style="stroke: #A80036; stroke-width: 1.0;"/><path d="M95.4688,258.6406 Q94.8906,258.9375 94.25,259.0781 Q93.6094,259.2344 92.9063,259.2344 Q90.4063,259.2344 89.0781,257.5938 Q87.7656,255.9375 87.7656,252.8125 Q87.7656,249.6875 89.0781,248.0313 Q90.4063,246.375 92.9063,246.375 Q93.6094,246.375 94.25,246.5313 Q94.9063,246.6875 95.4688,246.9844 L95.4688,249.7031 Q94.8438,249.125 94.25,248.8594 Q93.6563,248.5781 93.0313,248.5781 Q91.6875,248.5781 91,249.6563 Q90.3125,250.7188 90.3125,252.8125 Q90.3125,254.9063 91,255.9844 Q91.6875,257.0469 93.0313,257.0469 Q93.6563,257.0469 94.25,256.7813 Q94.8438,256.5 95.4688,255.9219 L95.4688,258.6406 Z "/><text fill="#000000" font-family="sans-serif" font-size="12" lengthAdjust="spacingAndGlyphs" textLength="79" x="106.5" y="257.1543">AudioSource</text><line style="stroke: #A80036; stroke-width: 1.5;" x1="78.5" x2="187.5" y1="269" y2="269"/><line style="stroke: #A80036; stroke-width: 1.5;" x1="78.5" x2="187.5" y1="277" y2="277"/><!--MD5=[14401994ffba9f790426511d5dea6ae4]
reverse link MonoBehaviour to ButtonHighlightController--><path d="M133,76.11 C133,89.31 133,103.54 133,115.65 " fill="none" id="MonoBehaviour&lt;-ButtonHighlightController" style="stroke: #A80036; stroke-width: 1.0;"/><polygon fill="none" points="126,76.04,133,56.04,140,76.04,126,76.04" style="stroke: #A80036; stroke-width: 1.0;"/><!--MD5=[8129deb74c898fb0fc4edbf408620704]
link ButtonHighlightController to AudioSource--><path d="M133,177.06 C133,193.93 133,214.98 133,231.65 " fill="none" id="ButtonHighlightController-&gt;AudioSource" style="stroke: #A80036; stroke-width: 1.0;"/><polygon fill="#A80036" points="133,236.67,137,227.67,133,231.67,129,227.67,133,236.67" style="stroke: #A80036; stroke-width: 1.0;"/><text fill="#000000" font-family="sans-serif" font-size="13" lengthAdjust="spacingAndGlyphs" textLength="112" x="7.35" y="225.9945">buttonClickSound</text><!--MD5=[7d122c199d69e29cf69b77c4d3d4734e]
@startuml
class ButtonHighlightController {
    + ResetAll() : void
}
MonoBehaviour <|- - ButtonHighlightController
ButtonHighlightController - -> "buttonClickSound" AudioSource
@enduml

PlantUML version 1.2020.02(Sun Mar 01 10:22:07 GMT 2020)
(GPL source distribution)
Java Runtime: OpenJDK Runtime Environment
JVM: OpenJDK 64-Bit Server VM
Java Version: 11.0.9+11-Ubuntu-0ubuntu1
Operating System: Linux
Default Encoding: ANSI_X3.4-1968
Language: en
Country: US
--></g></svg>