<?xml version="1.0" encoding="UTF-8" standalone="no"?><svg xmlns="http://www.w3.org/2000/svg" xmlns:xlink="http://www.w3.org/1999/xlink" contentScriptType="application/ecmascript" contentStyleType="text/css" height="296px" preserveAspectRatio="none" style="width:551px;height:296px;" version="1.1" viewBox="0 0 551 296" width="551px" zoomAndPan="magnify"><defs><filter height="300%" id="f1mpquqah9vpz3" width="300%" x="-1" y="-1"><feGaussianBlur result="blurOut" stdDeviation="2.0"/><feColorMatrix in="blurOut" result="blurOut2" type="matrix" values="0 0 0 0 0 0 0 0 0 0 0 0 0 0 0 0 0 0 .4 0"/><feOffset dx="4.0" dy="4.0" in="blurOut2" result="blurOut3"/><feBlend in="SourceGraphic" in2="blurOut3" mode="normal"/></filter></defs><g><!--MD5=[20f999d165a711baf13c6c03137435c1]
class CameraMovement--><rect fill="#FEFECE" filter="url(#f1mpquqah9vpz3)" height="60.8047" id="CameraMovement" style="stroke: #A80036; stroke-width: 1.5;" width="144" x="261" y="116"/><ellipse cx="276" cy="132" fill="#ADD1B2" rx="11" ry="11" style="stroke: #A80036; stroke-width: 1.0;"/><path d="M278.9688,137.6406 Q278.3906,137.9375 277.75,138.0781 Q277.1094,138.2344 276.4063,138.2344 Q273.9063,138.2344 272.5781,136.5938 Q271.2656,134.9375 271.2656,131.8125 Q271.2656,128.6875 272.5781,127.0313 Q273.9063,125.375 276.4063,125.375 Q277.1094,125.375 277.75,125.5313 Q278.4063,125.6875 278.9688,125.9844 L278.9688,128.7031 Q278.3438,128.125 277.75,127.8594 Q277.1563,127.5781 276.5313,127.5781 Q275.1875,127.5781 274.5,128.6563 Q273.8125,129.7188 273.8125,131.8125 Q273.8125,133.9063 274.5,134.9844 Q275.1875,136.0469 276.5313,136.0469 Q277.1563,136.0469 277.75,135.7813 Q278.3438,135.5 278.9688,134.9219 L278.9688,137.6406 Z "/><text fill="#000000" font-family="sans-serif" font-size="12" lengthAdjust="spacingAndGlyphs" textLength="112" x="290" y="136.1543">CameraMovement</text><line style="stroke: #A80036; stroke-width: 1.5;" x1="262" x2="404" y1="148" y2="148"/><line style="stroke: #A80036; stroke-width: 1.5;" x1="262" x2="404" y1="156" y2="156"/><text fill="#000000" font-family="sans-serif" font-size="11" lengthAdjust="spacingAndGlyphs" textLength="83" x="267" y="170.2104">Update() : void</text><!--MD5=[83b3cf3d23d77c6f1e1b5291a241bc2a]
class MonoBehaviour--><rect fill="#FEFECE" filter="url(#f1mpquqah9vpz3)" height="48" id="MonoBehaviour" style="stroke: #A80036; stroke-width: 1.5;" width="128" x="269" y="8"/><ellipse cx="284" cy="24" fill="#ADD1B2" rx="11" ry="11" style="stroke: #A80036; stroke-width: 1.0;"/><path d="M286.9688,29.6406 Q286.3906,29.9375 285.75,30.0781 Q285.1094,30.2344 284.4063,30.2344 Q281.9063,30.2344 280.5781,28.5938 Q279.2656,26.9375 279.2656,23.8125 Q279.2656,20.6875 280.5781,19.0313 Q281.9063,17.375 284.4063,17.375 Q285.1094,17.375 285.75,17.5313 Q286.4063,17.6875 286.9688,17.9844 L286.9688,20.7031 Q286.3438,20.125 285.75,19.8594 Q285.1563,19.5781 284.5313,19.5781 Q283.1875,19.5781 282.5,20.6563 Q281.8125,21.7188 281.8125,23.8125 Q281.8125,25.9063 282.5,26.9844 Q283.1875,28.0469 284.5313,28.0469 Q285.1563,28.0469 285.75,27.7813 Q286.3438,27.5 286.9688,26.9219 L286.9688,29.6406 Z "/><text fill="#000000" font-family="sans-serif" font-size="12" lengthAdjust="spacingAndGlyphs" textLength="96" x="298" y="28.1543">MonoBehaviour</text><line style="stroke: #A80036; stroke-width: 1.5;" x1="270" x2="396" y1="40" y2="40"/><line style="stroke: #A80036; stroke-width: 1.5;" x1="270" x2="396" y1="48" y2="48"/><!--MD5=[e47152314210b9a5a3b12358ef976b05]
class CinemachineVirtualCamera--><rect fill="#FEFECE" filter="url(#f1mpquqah9vpz3)" height="48" id="CinemachineVirtualCamera" style="stroke: #A80036; stroke-width: 1.5;" width="200" x="6" y="237"/><ellipse cx="21" cy="253" fill="#ADD1B2" rx="11" ry="11" style="stroke: #A80036; stroke-width: 1.0;"/><path d="M23.9688,258.6406 Q23.3906,258.9375 22.75,259.0781 Q22.1094,259.2344 21.4063,259.2344 Q18.9063,259.2344 17.5781,257.5938 Q16.2656,255.9375 16.2656,252.8125 Q16.2656,249.6875 17.5781,248.0313 Q18.9063,246.375 21.4063,246.375 Q22.1094,246.375 22.75,246.5313 Q23.4063,246.6875 23.9688,246.9844 L23.9688,249.7031 Q23.3438,249.125 22.75,248.8594 Q22.1563,248.5781 21.5313,248.5781 Q20.1875,248.5781 19.5,249.6563 Q18.8125,250.7188 18.8125,252.8125 Q18.8125,254.9063 19.5,255.9844 Q20.1875,257.0469 21.5313,257.0469 Q22.1563,257.0469 22.75,256.7813 Q23.3438,256.5 23.9688,255.9219 L23.9688,258.6406 Z "/><text fill="#000000" font-family="sans-serif" font-size="12" lengthAdjust="spacingAndGlyphs" textLength="168" x="35" y="257.1543">CinemachineVirtualCamera</text><line style="stroke: #A80036; stroke-width: 1.5;" x1="7" x2="205" y1="269" y2="269"/><line style="stroke: #A80036; stroke-width: 1.5;" x1="7" x2="205" y1="277" y2="277"/><!--MD5=[b2438942cdcd9df8b77b1fd38b5999c4]
class CinemachineTransposer--><rect fill="#FEFECE" filter="url(#f1mpquqah9vpz3)" height="48" id="CinemachineTransposer" style="stroke: #A80036; stroke-width: 1.5;" width="183" x="241.5" y="237"/><ellipse cx="256.5" cy="253" fill="#ADD1B2" rx="11" ry="11" style="stroke: #A80036; stroke-width: 1.0;"/><path d="M259.4688,258.6406 Q258.8906,258.9375 258.25,259.0781 Q257.6094,259.2344 256.9063,259.2344 Q254.4063,259.2344 253.0781,257.5938 Q251.7656,255.9375 251.7656,252.8125 Q251.7656,249.6875 253.0781,248.0313 Q254.4063,246.375 256.9063,246.375 Q257.6094,246.375 258.25,246.5313 Q258.9063,246.6875 259.4688,246.9844 L259.4688,249.7031 Q258.8438,249.125 258.25,248.8594 Q257.6563,248.5781 257.0313,248.5781 Q255.6875,248.5781 255,249.6563 Q254.3125,250.7188 254.3125,252.8125 Q254.3125,254.9063 255,255.9844 Q255.6875,257.0469 257.0313,257.0469 Q257.6563,257.0469 258.25,256.7813 Q258.8438,256.5 259.4688,255.9219 L259.4688,258.6406 Z "/><text fill="#000000" font-family="sans-serif" font-size="12" lengthAdjust="spacingAndGlyphs" textLength="151" x="270.5" y="257.1543">CinemachineTransposer</text><line style="stroke: #A80036; stroke-width: 1.5;" x1="242.5" x2="423.5" y1="269" y2="269"/><line style="stroke: #A80036; stroke-width: 1.5;" x1="242.5" x2="423.5" y1="277" y2="277"/><!--MD5=[3f551f1273bbfa514d2f681c1c48b5c1]
class Vector2--><rect fill="#FEFECE" filter="url(#f1mpquqah9vpz3)" height="48" id="Vector2" style="stroke: #A80036; stroke-width: 1.5;" width="81" x="459.5" y="237"/><ellipse cx="474.5" cy="253" fill="#ADD1B2" rx="11" ry="11" style="stroke: #A80036; stroke-width: 1.0;"/><path d="M477.4688,258.6406 Q476.8906,258.9375 476.25,259.0781 Q475.6094,259.2344 474.9063,259.2344 Q472.4063,259.2344 471.0781,257.5938 Q469.7656,255.9375 469.7656,252.8125 Q469.7656,249.6875 471.0781,248.0313 Q472.4063,246.375 474.9063,246.375 Q475.6094,246.375 476.25,246.5313 Q476.9063,246.6875 477.4688,246.9844 L477.4688,249.7031 Q476.8438,249.125 476.25,248.8594 Q475.6563,248.5781 475.0313,248.5781 Q473.6875,248.5781 473,249.6563 Q472.3125,250.7188 472.3125,252.8125 Q472.3125,254.9063 473,255.9844 Q473.6875,257.0469 475.0313,257.0469 Q475.6563,257.0469 476.25,256.7813 Q476.8438,256.5 477.4688,255.9219 L477.4688,258.6406 Z "/><text fill="#000000" font-family="sans-serif" font-size="12" lengthAdjust="spacingAndGlyphs" textLength="49" x="488.5" y="257.1543">Vector2</text><line style="stroke: #A80036; stroke-width: 1.5;" x1="460.5" x2="539.5" y1="269" y2="269"/><line style="stroke: #A80036; stroke-width: 1.5;" x1="460.5" x2="539.5" y1="277" y2="277"/><!--MD5=[50e71a9143f22e2e008af95b83649189]
reverse link MonoBehaviour to CameraMovement--><path d="M333,76.11 C333,89.31 333,103.54 333,115.65 " fill="none" id="MonoBehaviour&lt;-CameraMovement" style="stroke: #A80036; stroke-width: 1.0;"/><polygon fill="none" points="326,76.04,333,56.04,340,76.04,326,76.04" style="stroke: #A80036; stroke-width: 1.0;"/><!--MD5=[6563ebbfcaf339e8976837048d3db353]
link CameraMovement to CinemachineVirtualCamera--><path d="M273.36,177.06 C237.28,194.94 191.75,217.51 157.28,234.58 " fill="none" id="CameraMovement-&gt;CinemachineVirtualCamera" style="stroke: #A80036; stroke-width: 1.0;"/><polygon fill="#A80036" points="152.71,236.85,162.5498,236.4279,157.1878,234.6253,158.9904,229.2634,152.71,236.85" style="stroke: #A80036; stroke-width: 1.0;"/><text fill="#000000" font-family="sans-serif" font-size="13" lengthAdjust="spacingAndGlyphs" textLength="113" x="37.2013" y="225.8236">cameraReference</text><!--MD5=[ed13d47f8240d94f0a7abb49e2431fef]
link CameraMovement to CinemachineTransposer--><path d="M333,177.06 C333,193.93 333,214.98 333,231.65 " fill="none" id="CameraMovement-&gt;CinemachineTransposer" style="stroke: #A80036; stroke-width: 1.0;"/><polygon fill="#A80036" points="333,236.67,337,227.67,333,231.67,329,227.67,333,236.67" style="stroke: #A80036; stroke-width: 1.0;"/><text fill="#000000" font-family="sans-serif" font-size="13" lengthAdjust="spacingAndGlyphs" textLength="120" x="199.3486" y="225.8093">cameraTransposer</text><!--MD5=[abd5d21e73e988a8f4d8ff69ffdcaea8]
link CameraMovement to Vector2--><path d="M376.88,177.06 C403.1,194.72 436.1,216.95 461.34,233.95 " fill="none" id="CameraMovement-&gt;Vector2" style="stroke: #A80036; stroke-width: 1.0;"/><polygon fill="#A80036" points="465.63,236.85,460.3999,228.5046,461.483,234.0568,455.9307,235.1399,465.63,236.85" style="stroke: #A80036; stroke-width: 1.0;"/><text fill="#000000" font-family="sans-serif" font-size="13" lengthAdjust="spacingAndGlyphs" textLength="32" x="420.7227" y="225.8236">input</text><!--MD5=[235416972f7ca15fa7327eb444dff57b]
@startuml
class CameraMovement {
    Update() : void
}
MonoBehaviour <|- - CameraMovement
CameraMovement - -> "cameraReference" CinemachineVirtualCamera
CameraMovement - -> "cameraTransposer" CinemachineTransposer
CameraMovement - -> "input" Vector2
@enduml

PlantUML version 1.2020.02(Sun Mar 01 10:22:07 GMT 2020)
(GPL source distribution)
Java Runtime: OpenJDK Runtime Environment
JVM: OpenJDK 64-Bit Server VM
Java Version: 11.0.9+11-Ubuntu-0ubuntu1
Operating System: Linux
Default Encoding: ANSI_X3.4-1968
Language: en
Country: US
--></g></svg>