<?xml version="1.0" encoding="UTF-8" standalone="no"?><svg xmlns="http://www.w3.org/2000/svg" xmlns:xlink="http://www.w3.org/1999/xlink" contentScriptType="application/ecmascript" contentStyleType="text/css" height="117px" preserveAspectRatio="none" style="width:302px;height:117px;" version="1.1" viewBox="0 0 302 117" width="302px" zoomAndPan="magnify"><defs><filter height="300%" id="f1srjtyrz3qm20" width="300%" x="-1" y="-1"><feGaussianBlur result="blurOut" stdDeviation="2.0"/><feColorMatrix in="blurOut" result="blurOut2" type="matrix" values="0 0 0 0 0 0 0 0 0 0 0 0 0 0 0 0 0 0 .4 0"/><feOffset dx="4.0" dy="4.0" in="blurOut2" result="blurOut3"/><feBlend in="SourceGraphic" in2="blurOut3" mode="normal"/></filter></defs><g><!--MD5=[c1f8e17d83d5d6a6ca17c065171989b6]
class CommandManager--><rect fill="#FEFECE" filter="url(#f1srjtyrz3qm20)" height="99.2188" id="CommandManager" style="stroke: #A80036; stroke-width: 1.5;" width="284" x="7" y="7"/><ellipse cx="86.25" cy="23" fill="#ADD1B2" rx="11" ry="11" style="stroke: #A80036; stroke-width: 1.0;"/><path d="M89.2188,28.6406 Q88.6406,28.9375 88,29.0781 Q87.3594,29.2344 86.6563,29.2344 Q84.1563,29.2344 82.8281,27.5938 Q81.5156,25.9375 81.5156,22.8125 Q81.5156,19.6875 82.8281,18.0313 Q84.1563,16.375 86.6563,16.375 Q87.3594,16.375 88,16.5313 Q88.6563,16.6875 89.2188,16.9844 L89.2188,19.7031 Q88.5938,19.125 88,18.8594 Q87.4063,18.5781 86.7813,18.5781 Q85.4375,18.5781 84.75,19.6563 Q84.0625,20.7188 84.0625,22.8125 Q84.0625,24.9063 84.75,25.9844 Q85.4375,27.0469 86.7813,27.0469 Q87.4063,27.0469 88,26.7813 Q88.5938,26.5 89.2188,25.9219 L89.2188,28.6406 Z "/><text fill="#000000" font-family="sans-serif" font-size="12" lengthAdjust="spacingAndGlyphs" textLength="117" x="106.75" y="27.1543">CommandManager</text><line style="stroke: #A80036; stroke-width: 1.5;" x1="8" x2="290" y1="39" y2="39"/><line style="stroke: #A80036; stroke-width: 1.5;" x1="8" x2="290" y1="47" y2="47"/><ellipse cx="18" cy="58" fill="#84BE84" rx="3" ry="3" style="stroke: #038048; stroke-width: 1.0;"/><text fill="#000000" font-family="sans-serif" font-size="11" lengthAdjust="spacingAndGlyphs" textLength="258" x="27" y="61.2104">Invoke(commandToExecute:ICommand) : void</text><ellipse cx="18" cy="70.8047" fill="#84BE84" rx="3" ry="3" style="stroke: #038048; stroke-width: 1.0;"/><text fill="#000000" font-family="sans-serif" font-size="11" lengthAdjust="spacingAndGlyphs" textLength="73" x="27" y="74.0151">Undo() : bool</text><ellipse cx="18" cy="83.6094" fill="#84BE84" rx="3" ry="3" style="stroke: #038048; stroke-width: 1.0;"/><text fill="#000000" font-family="sans-serif" font-size="11" lengthAdjust="spacingAndGlyphs" textLength="158" x="27" y="86.8198">ClearCommandsList() : void</text><ellipse cx="18" cy="96.4141" fill="#84BE84" rx="3" ry="3" style="stroke: #038048; stroke-width: 1.0;"/><text fill="#000000" font-family="sans-serif" font-size="11" lengthAdjust="spacingAndGlyphs" textLength="152" x="27" y="99.6245">GetCommandsCount() : int</text><!--MD5=[82591bb59732e8bdea303838a65c9548]
@startuml
class CommandManager {
    + Invoke(commandToExecute:ICommand) : void
    + Undo() : bool
    + ClearCommandsList() : void
    + GetCommandsCount() : int
}
@enduml

PlantUML version 1.2020.02(Sun Mar 01 10:22:07 GMT 2020)
(GPL source distribution)
Java Runtime: OpenJDK Runtime Environment
JVM: OpenJDK 64-Bit Server VM
Java Version: 11.0.9+11-Ubuntu-0ubuntu1
Operating System: Linux
Default Encoding: ANSI_X3.4-1968
Language: en
Country: US
--></g></svg>