<?xml version="1.0" encoding="UTF-8" standalone="no"?><svg xmlns="http://www.w3.org/2000/svg" xmlns:xlink="http://www.w3.org/1999/xlink" contentScriptType="application/ecmascript" contentStyleType="text/css" height="200px" preserveAspectRatio="none" style="width:175px;height:200px;" version="1.1" viewBox="0 0 175 200" width="175px" zoomAndPan="magnify"><defs><filter height="300%" id="f1t88sdjoyig6d" width="300%" x="-1" y="-1"><feGaussianBlur result="blurOut" stdDeviation="2.0"/><feColorMatrix in="blurOut" result="blurOut2" type="matrix" values="0 0 0 0 0 0 0 0 0 0 0 0 0 0 0 0 0 0 .4 0"/><feOffset dx="4.0" dy="4.0" in="blurOut2" result="blurOut3"/><feBlend in="SourceGraphic" in2="blurOut3" mode="normal"/></filter></defs><g><!--MD5=[363a71e747ba9198455733c1e04793f5]
class DaytimeScript--><rect fill="#FEFECE" filter="url(#f1t88sdjoyig6d)" height="73.6094" id="DaytimeScript" style="stroke: #A80036; stroke-width: 1.5;" width="158" x="6" y="116"/><ellipse cx="39" cy="132" fill="#ADD1B2" rx="11" ry="11" style="stroke: #A80036; stroke-width: 1.0;"/><path d="M41.9688,137.6406 Q41.3906,137.9375 40.75,138.0781 Q40.1094,138.2344 39.4063,138.2344 Q36.9063,138.2344 35.5781,136.5938 Q34.2656,134.9375 34.2656,131.8125 Q34.2656,128.6875 35.5781,127.0313 Q36.9063,125.375 39.4063,125.375 Q40.1094,125.375 40.75,125.5313 Q41.4063,125.6875 41.9688,125.9844 L41.9688,128.7031 Q41.3438,128.125 40.75,127.8594 Q40.1563,127.5781 39.5313,127.5781 Q38.1875,127.5781 37.5,128.6563 Q36.8125,129.7188 36.8125,131.8125 Q36.8125,133.9063 37.5,134.9844 Q38.1875,136.0469 39.5313,136.0469 Q40.1563,136.0469 40.75,135.7813 Q41.3438,135.5 41.9688,134.9219 L41.9688,137.6406 Z "/><text fill="#000000" font-family="sans-serif" font-size="12" lengthAdjust="spacingAndGlyphs" textLength="86" x="57" y="136.1543">DaytimeScript</text><line style="stroke: #A80036; stroke-width: 1.5;" x1="7" x2="163" y1="148" y2="148"/><line style="stroke: #A80036; stroke-width: 1.5;" x1="7" x2="163" y1="156" y2="156"/><text fill="#000000" font-family="sans-serif" font-size="11" lengthAdjust="spacingAndGlyphs" textLength="71" x="26" y="170.2104">Start() : void</text><ellipse cx="17" cy="179.8047" fill="#84BE84" rx="3" ry="3" style="stroke: #038048; stroke-width: 1.0;"/><text fill="#000000" font-family="sans-serif" font-size="11" lengthAdjust="spacingAndGlyphs" textLength="132" x="26" y="183.0151">ChangeDaytime() : void</text><!--MD5=[83b3cf3d23d77c6f1e1b5291a241bc2a]
class MonoBehaviour--><rect fill="#FEFECE" filter="url(#f1t88sdjoyig6d)" height="48" id="MonoBehaviour" style="stroke: #A80036; stroke-width: 1.5;" width="128" x="21" y="8"/><ellipse cx="36" cy="24" fill="#ADD1B2" rx="11" ry="11" style="stroke: #A80036; stroke-width: 1.0;"/><path d="M38.9688,29.6406 Q38.3906,29.9375 37.75,30.0781 Q37.1094,30.2344 36.4063,30.2344 Q33.9063,30.2344 32.5781,28.5938 Q31.2656,26.9375 31.2656,23.8125 Q31.2656,20.6875 32.5781,19.0313 Q33.9063,17.375 36.4063,17.375 Q37.1094,17.375 37.75,17.5313 Q38.4063,17.6875 38.9688,17.9844 L38.9688,20.7031 Q38.3438,20.125 37.75,19.8594 Q37.1563,19.5781 36.5313,19.5781 Q35.1875,19.5781 34.5,20.6563 Q33.8125,21.7188 33.8125,23.8125 Q33.8125,25.9063 34.5,26.9844 Q35.1875,28.0469 36.5313,28.0469 Q37.1563,28.0469 37.75,27.7813 Q38.3438,27.5 38.9688,26.9219 L38.9688,29.6406 Z "/><text fill="#000000" font-family="sans-serif" font-size="12" lengthAdjust="spacingAndGlyphs" textLength="96" x="50" y="28.1543">MonoBehaviour</text><line style="stroke: #A80036; stroke-width: 1.5;" x1="22" x2="148" y1="40" y2="40"/><line style="stroke: #A80036; stroke-width: 1.5;" x1="22" x2="148" y1="48" y2="48"/><!--MD5=[49ccf088f10351b9a3bf2f79c23cf16d]
reverse link MonoBehaviour to DaytimeScript--><path d="M85,76.43 C85,89.33 85,103.32 85,115.71 " fill="none" id="MonoBehaviour&lt;-DaytimeScript" style="stroke: #A80036; stroke-width: 1.0;"/><polygon fill="none" points="78,76.23,85,56.23,92,76.23,78,76.23" style="stroke: #A80036; stroke-width: 1.0;"/><!--MD5=[e2b8d770f5b27ea3fea07bdd53e83ff1]
@startuml
class DaytimeScript {
    Start() : void
    + ChangeDaytime() : void
}
MonoBehaviour <|- - DaytimeScript
@enduml

PlantUML version 1.2020.02(Sun Mar 01 10:22:07 GMT 2020)
(GPL source distribution)
Java Runtime: OpenJDK Runtime Environment
JVM: OpenJDK 64-Bit Server VM
Java Version: 11.0.9+11-Ubuntu-0ubuntu1
Operating System: Linux
Default Encoding: ANSI_X3.4-1968
Language: en
Country: US
--></g></svg>