<?xml version="1.0" encoding="UTF-8" standalone="no"?><svg xmlns="http://www.w3.org/2000/svg" xmlns:xlink="http://www.w3.org/1999/xlink" contentScriptType="application/ecmascript" contentStyleType="text/css" height="187px" preserveAspectRatio="none" style="width:529px;height:187px;" version="1.1" viewBox="0 0 529 187" width="529px" zoomAndPan="magnify"><defs><filter height="300%" id="f1ccfmc2ybf07s" width="300%" x="-1" y="-1"><feGaussianBlur result="blurOut" stdDeviation="2.0"/><feColorMatrix in="blurOut" result="blurOut2" type="matrix" values="0 0 0 0 0 0 0 0 0 0 0 0 0 0 0 0 0 0 .4 0"/><feOffset dx="4.0" dy="4.0" in="blurOut2" result="blurOut3"/><feBlend in="SourceGraphic" in2="blurOut3" mode="normal"/></filter></defs><g><!--MD5=[a34e1556a3b0bfc0a84447c0d558b171]
class FloorRemovalStrategy--><rect fill="#FEFECE" filter="url(#f1ccfmc2ybf07s)" height="60.8047" id="FloorRemovalStrategy" style="stroke: #A80036; stroke-width: 1.5;" width="512" x="6" y="116"/><ellipse cx="189.75" cy="132" fill="#ADD1B2" rx="11" ry="11" style="stroke: #A80036; stroke-width: 1.0;"/><path d="M192.7188,137.6406 Q192.1406,137.9375 191.5,138.0781 Q190.8594,138.2344 190.1563,138.2344 Q187.6563,138.2344 186.3281,136.5938 Q185.0156,134.9375 185.0156,131.8125 Q185.0156,128.6875 186.3281,127.0313 Q187.6563,125.375 190.1563,125.375 Q190.8594,125.375 191.5,125.5313 Q192.1563,125.6875 192.7188,125.9844 L192.7188,128.7031 Q192.0938,128.125 191.5,127.8594 Q190.9063,127.5781 190.2813,127.5781 Q188.9375,127.5781 188.25,128.6563 Q187.5625,129.7188 187.5625,131.8125 Q187.5625,133.9063 188.25,134.9844 Q188.9375,136.0469 190.2813,136.0469 Q190.9063,136.0469 191.5,135.7813 Q192.0938,135.5 192.7188,134.9219 L192.7188,137.6406 Z "/><text fill="#000000" font-family="sans-serif" font-size="12" lengthAdjust="spacingAndGlyphs" textLength="136" x="210.25" y="136.1543">FloorRemovalStrategy</text><line style="stroke: #A80036; stroke-width: 1.5;" x1="7" x2="517" y1="148" y2="148"/><line style="stroke: #A80036; stroke-width: 1.5;" x1="7" x2="517" y1="156" y2="156"/><ellipse cx="17" cy="167" fill="#84BE84" rx="3" ry="3" style="stroke: #038048; stroke-width: 1.0;"/><text fill="#000000" font-family="sans-serif" font-size="11" lengthAdjust="spacingAndGlyphs" textLength="486" x="26" y="170.2104">FloorRemovalStrategy(placementData:PlacementGridData, gridManager:GridManager)</text><!--MD5=[99a223c99682a2c07db0d19af40aade3]
class BoxSelection--><rect fill="#FEFECE" filter="url(#f1ccfmc2ybf07s)" height="48" id="BoxSelection" style="stroke: #A80036; stroke-width: 1.5;" width="112" x="206" y="8"/><ellipse cx="221" cy="24" fill="#ADD1B2" rx="11" ry="11" style="stroke: #A80036; stroke-width: 1.0;"/><path d="M223.9688,29.6406 Q223.3906,29.9375 222.75,30.0781 Q222.1094,30.2344 221.4063,30.2344 Q218.9063,30.2344 217.5781,28.5938 Q216.2656,26.9375 216.2656,23.8125 Q216.2656,20.6875 217.5781,19.0313 Q218.9063,17.375 221.4063,17.375 Q222.1094,17.375 222.75,17.5313 Q223.4063,17.6875 223.9688,17.9844 L223.9688,20.7031 Q223.3438,20.125 222.75,19.8594 Q222.1563,19.5781 221.5313,19.5781 Q220.1875,19.5781 219.5,20.6563 Q218.8125,21.7188 218.8125,23.8125 Q218.8125,25.9063 219.5,26.9844 Q220.1875,28.0469 221.5313,28.0469 Q222.1563,28.0469 222.75,27.7813 Q223.3438,27.5 223.9688,26.9219 L223.9688,29.6406 Z "/><text fill="#000000" font-family="sans-serif" font-size="12" lengthAdjust="spacingAndGlyphs" textLength="80" x="235" y="28.1543">BoxSelection</text><line style="stroke: #A80036; stroke-width: 1.5;" x1="207" x2="317" y1="40" y2="40"/><line style="stroke: #A80036; stroke-width: 1.5;" x1="207" x2="317" y1="48" y2="48"/><!--MD5=[1026e0be7a6e0a7a8693cc1ff60e048c]
reverse link BoxSelection to FloorRemovalStrategy--><path d="M262,76.11 C262,89.31 262,103.54 262,115.65 " fill="none" id="BoxSelection&lt;-FloorRemovalStrategy" style="stroke: #A80036; stroke-width: 1.0;"/><polygon fill="none" points="255,76.04,262,56.04,269,76.04,255,76.04" style="stroke: #A80036; stroke-width: 1.0;"/><!--MD5=[ef36b52feccdcd524334c2accefc35fd]
@startuml
class FloorRemovalStrategy {
    + FloorRemovalStrategy(placementData:PlacementGridData, gridManager:GridManager)
}
BoxSelection <|- - FloorRemovalStrategy
@enduml

PlantUML version 1.2020.02(Sun Mar 01 10:22:07 GMT 2020)
(GPL source distribution)
Java Runtime: OpenJDK Runtime Environment
JVM: OpenJDK 64-Bit Server VM
Java Version: 11.0.9+11-Ubuntu-0ubuntu1
Operating System: Linux
Default Encoding: ANSI_X3.4-1968
Language: en
Country: US
--></g></svg>