<?xml version="1.0" encoding="UTF-8" standalone="no"?><svg xmlns="http://www.w3.org/2000/svg" xmlns:xlink="http://www.w3.org/1999/xlink" contentScriptType="application/ecmascript" contentStyleType="text/css" height="239px" preserveAspectRatio="none" style="width:1039px;height:239px;" version="1.1" viewBox="0 0 1039 239" width="1039px" zoomAndPan="magnify"><defs><filter height="300%" id="f1w5alhvun1cva" width="300%" x="-1" y="-1"><feGaussianBlur result="blurOut" stdDeviation="2.0"/><feColorMatrix in="blurOut" result="blurOut2" type="matrix" values="0 0 0 0 0 0 0 0 0 0 0 0 0 0 0 0 0 0 .4 0"/><feOffset dx="4.0" dy="4.0" in="blurOut2" result="blurOut3"/><feBlend in="SourceGraphic" in2="blurOut3" mode="normal"/></filter></defs><g><!--MD5=[100bce6b154cfb57161bb3b2f68d3110]
class FreeObjectPlacementStrategy--><rect fill="#FEFECE" filter="url(#f1w5alhvun1cva)" height="112.0234" id="FreeObjectPlacementStrategy" style="stroke: #A80036; stroke-width: 1.5;" width="1022" x="6" y="116"/><ellipse cx="419.25" cy="132" fill="#ADD1B2" rx="11" ry="11" style="stroke: #A80036; stroke-width: 1.0;"/><path d="M422.2188,137.6406 Q421.6406,137.9375 421,138.0781 Q420.3594,138.2344 419.6563,138.2344 Q417.1563,138.2344 415.8281,136.5938 Q414.5156,134.9375 414.5156,131.8125 Q414.5156,128.6875 415.8281,127.0313 Q417.1563,125.375 419.6563,125.375 Q420.3594,125.375 421,125.5313 Q421.6563,125.6875 422.2188,125.9844 L422.2188,128.7031 Q421.5938,128.125 421,127.8594 Q420.4063,127.5781 419.7813,127.5781 Q418.4375,127.5781 417.75,128.6563 Q417.0625,129.7188 417.0625,131.8125 Q417.0625,133.9063 417.75,134.9844 Q418.4375,136.0469 419.7813,136.0469 Q420.4063,136.0469 421,135.7813 Q421.5938,135.5 422.2188,134.9219 L422.2188,137.6406 Z "/><text fill="#000000" font-family="sans-serif" font-size="12" lengthAdjust="spacingAndGlyphs" textLength="187" x="439.75" y="136.1543">FreeObjectPlacementStrategy</text><line style="stroke: #A80036; stroke-width: 1.5;" x1="7" x2="1027" y1="148" y2="148"/><line style="stroke: #A80036; stroke-width: 1.5;" x1="7" x2="1027" y1="156" y2="156"/><ellipse cx="17" cy="167" fill="#84BE84" rx="3" ry="3" style="stroke: #038048; stroke-width: 1.0;"/><text fill="#000000" font-family="sans-serif" font-size="11" lengthAdjust="spacingAndGlyphs" textLength="996" x="26" y="170.2104">FreeObjectPlacementStrategy(placementData:PlacementGridData, wallPlacementData:PlacementGridData, inWallPlacementData:PlacementGridData, gridManager:GridManager)</text><ellipse cx="17" cy="179.8047" fill="#84BE84" rx="3" ry="3" style="stroke: #038048; stroke-width: 1.0;"/><text fill="#000000" font-family="sans-serif" font-size="11" lengthAdjust="spacingAndGlyphs" textLength="486" x="26" y="183.0151">«override» StartSelection(mousePosition:Vector3, selectionData:SelectionData) : void</text><ellipse cx="17" cy="192.6094" fill="#84BE84" rx="3" ry="3" style="stroke: #038048; stroke-width: 1.0;"/><text fill="#000000" font-family="sans-serif" font-size="11" lengthAdjust="spacingAndGlyphs" textLength="495" x="26" y="195.8198">«override» ModifySelection(mousePosition:Vector3, selectionData:SelectionData) : bool</text><ellipse cx="17" cy="205.4141" fill="#84BE84" rx="3" ry="3" style="stroke: #038048; stroke-width: 1.0;"/><text fill="#000000" font-family="sans-serif" font-size="11" lengthAdjust="spacingAndGlyphs" textLength="511" x="26" y="208.6245">«override» HandleRotation(rotation:Quaternion, selectionData:SelectionData) : Quaternion</text><ellipse cx="17" cy="218.2188" fill="#84BE84" rx="3" ry="3" style="stroke: #038048; stroke-width: 1.0;"/><text fill="#000000" font-family="sans-serif" font-size="11" lengthAdjust="spacingAndGlyphs" textLength="352" x="26" y="221.4292">«override» FinishSelection(selectionData:SelectionData) : void</text><!--MD5=[b9d97c2f6c0f798d1e584316650c0b1a]
class SelectionStrategy--><rect fill="#FEFECE" filter="url(#f1w5alhvun1cva)" height="48" id="SelectionStrategy" style="stroke: #A80036; stroke-width: 1.5;" width="143" x="445.5" y="8"/><ellipse cx="460.5" cy="24" fill="#ADD1B2" rx="11" ry="11" style="stroke: #A80036; stroke-width: 1.0;"/><path d="M463.4688,29.6406 Q462.8906,29.9375 462.25,30.0781 Q461.6094,30.2344 460.9063,30.2344 Q458.4063,30.2344 457.0781,28.5938 Q455.7656,26.9375 455.7656,23.8125 Q455.7656,20.6875 457.0781,19.0313 Q458.4063,17.375 460.9063,17.375 Q461.6094,17.375 462.25,17.5313 Q462.9063,17.6875 463.4688,17.9844 L463.4688,20.7031 Q462.8438,20.125 462.25,19.8594 Q461.6563,19.5781 461.0313,19.5781 Q459.6875,19.5781 459,20.6563 Q458.3125,21.7188 458.3125,23.8125 Q458.3125,25.9063 459,26.9844 Q459.6875,28.0469 461.0313,28.0469 Q461.6563,28.0469 462.25,27.7813 Q462.8438,27.5 463.4688,26.9219 L463.4688,29.6406 Z "/><text fill="#000000" font-family="sans-serif" font-size="12" lengthAdjust="spacingAndGlyphs" textLength="111" x="474.5" y="28.1543">SelectionStrategy</text><line style="stroke: #A80036; stroke-width: 1.5;" x1="446.5" x2="587.5" y1="40" y2="40"/><line style="stroke: #A80036; stroke-width: 1.5;" x1="446.5" x2="587.5" y1="48" y2="48"/><!--MD5=[8d12e7e4970b5f559d330355f4bff575]
reverse link SelectionStrategy to FreeObjectPlacementStrategy--><path d="M517,76.25 C517,88.82 517,102.73 517,115.93 " fill="none" id="SelectionStrategy&lt;-FreeObjectPlacementStrategy" style="stroke: #A80036; stroke-width: 1.0;"/><polygon fill="none" points="510,76.1,517,56.1,524,76.1,510,76.1" style="stroke: #A80036; stroke-width: 1.0;"/><!--MD5=[8a38018c15576654dc85af7ac38c9bd7]
@startuml
class FreeObjectPlacementStrategy {
    + FreeObjectPlacementStrategy(placementData:PlacementGridData, wallPlacementData:PlacementGridData, inWallPlacementData:PlacementGridData, gridManager:GridManager)
    + <<override>> StartSelection(mousePosition:Vector3, selectionData:SelectionData) : void
    + <<override>> ModifySelection(mousePosition:Vector3, selectionData:SelectionData) : bool
    + <<override>> HandleRotation(rotation:Quaternion, selectionData:SelectionData) : Quaternion
    + <<override>> FinishSelection(selectionData:SelectionData) : void
}
SelectionStrategy <|- - FreeObjectPlacementStrategy
@enduml

PlantUML version 1.2020.02(Sun Mar 01 10:22:07 GMT 2020)
(GPL source distribution)
Java Runtime: OpenJDK Runtime Environment
JVM: OpenJDK 64-Bit Server VM
Java Version: 11.0.9+11-Ubuntu-0ubuntu1
Operating System: Linux
Default Encoding: ANSI_X3.4-1968
Language: en
Country: US
--></g></svg>