<?xml version="1.0" encoding="UTF-8" standalone="no"?><svg xmlns="http://www.w3.org/2000/svg" xmlns:xlink="http://www.w3.org/1999/xlink" contentScriptType="application/ecmascript" contentStyleType="text/css" height="111px" preserveAspectRatio="none" style="width:889px;height:111px;" version="1.1" viewBox="0 0 889 111" width="889px" zoomAndPan="magnify"><defs><filter height="300%" id="f1a02p6f7xbq24" width="300%" x="-1" y="-1"><feGaussianBlur result="blurOut" stdDeviation="2.0"/><feColorMatrix in="blurOut" result="blurOut2" type="matrix" values="0 0 0 0 0 0 0 0 0 0 0 0 0 0 0 0 0 0 .4 0"/><feOffset dx="4.0" dy="4.0" in="blurOut2" result="blurOut3"/><feBlend in="SourceGraphic" in2="blurOut3" mode="normal"/></filter></defs><g><!--MD5=[51a025c6bd3e52ab6a7ceaf7f033a860]
class GridSelectionHelper--><rect fill="#FEFECE" filter="url(#f1a02p6f7xbq24)" height="92.3516" id="GridSelectionHelper" style="stroke: #A80036; stroke-width: 1.5;" width="598" x="6" y="8"/><ellipse cx="238.75" cy="26.9688" fill="#ADD1B2" rx="11" ry="11" style="stroke: #A80036; stroke-width: 1.0;"/><path d="M241.7188,32.6094 Q241.1406,32.9063 240.5,33.0469 Q239.8594,33.2031 239.1563,33.2031 Q236.6563,33.2031 235.3281,31.5625 Q234.0156,29.9063 234.0156,26.7813 Q234.0156,23.6563 235.3281,22 Q236.6563,20.3438 239.1563,20.3438 Q239.8594,20.3438 240.5,20.5 Q241.1563,20.6563 241.7188,20.9531 L241.7188,23.6719 Q241.0938,23.0938 240.5,22.8281 Q239.9063,22.5469 239.2813,22.5469 Q237.9375,22.5469 237.25,23.625 Q236.5625,24.6875 236.5625,26.7813 Q236.5625,28.875 237.25,29.9531 Q237.9375,31.0156 239.2813,31.0156 Q239.9063,31.0156 240.5,30.75 Q241.0938,30.4688 241.7188,29.8906 L241.7188,32.6094 Z "/><text fill="#000000" font-family="sans-serif" font-size="12" font-style="italic" lengthAdjust="spacingAndGlyphs" textLength="48" x="297.25" y="24.1387">«static»</text><text fill="#000000" font-family="sans-serif" font-size="12" lengthAdjust="spacingAndGlyphs" textLength="124" x="259.25" y="38.1074">GridSelectionHelper</text><line style="stroke: #A80036; stroke-width: 1.5;" x1="7" x2="603" y1="45.9375" y2="45.9375"/><line style="stroke: #A80036; stroke-width: 1.5;" x1="7" x2="603" y1="53.9375" y2="53.9375"/><ellipse cx="17" cy="64.9375" fill="#84BE84" rx="3" ry="3" style="stroke: #038048; stroke-width: 1.0;"/><text fill="#000000" font-family="sans-serif" font-size="11" lengthAdjust="spacingAndGlyphs" text-decoration="underline" textLength="430" x="26" y="68.1479">MoveMinToMaxInclusive(minVal:int, maxVal:int, step:int) : IEnumerable&lt;int&gt;</text><ellipse cx="17" cy="77.7422" fill="#84BE84" rx="3" ry="3" style="stroke: #038048; stroke-width: 1.0;"/><text fill="#000000" font-family="sans-serif" font-size="11" lengthAdjust="spacingAndGlyphs" text-decoration="underline" textLength="430" x="26" y="80.9526">MoveMaxToMinInclusive(minVal:int, maxVal:int, step:int) : IEnumerable&lt;int&gt;</text><ellipse cx="17" cy="90.5469" fill="#84BE84" rx="3" ry="3" style="stroke: #038048; stroke-width: 1.0;"/><text fill="#000000" font-family="sans-serif" font-size="11" lengthAdjust="spacingAndGlyphs" text-decoration="underline" textLength="572" x="26" y="93.7573">AStar(startPos:Vector3Int, endPos:Vector3Int, placementData:PlacementGridData) : List&lt;Vector3Int&gt;</text><!--MD5=[e644022de7dea015dd09463c37421447]
class List`1--><rect fill="#FEFECE" filter="url(#f1a02p6f7xbq24)" height="48" id="List`1" style="stroke: #A80036; stroke-width: 1.5;" width="78" x="639" y="30"/><ellipse cx="654" cy="46" fill="#ADD1B2" rx="11" ry="11" style="stroke: #A80036; stroke-width: 1.0;"/><path d="M656.9688,51.6406 Q656.3906,51.9375 655.75,52.0781 Q655.1094,52.2344 654.4063,52.2344 Q651.9063,52.2344 650.5781,50.5938 Q649.2656,48.9375 649.2656,45.8125 Q649.2656,42.6875 650.5781,41.0313 Q651.9063,39.375 654.4063,39.375 Q655.1094,39.375 655.75,39.5313 Q656.4063,39.6875 656.9688,39.9844 L656.9688,42.7031 Q656.3438,42.125 655.75,41.8594 Q655.1563,41.5781 654.5313,41.5781 Q653.1875,41.5781 652.5,42.6563 Q651.8125,43.7188 651.8125,45.8125 Q651.8125,47.9063 652.5,48.9844 Q653.1875,50.0469 654.5313,50.0469 Q655.1563,50.0469 655.75,49.7813 Q656.3438,49.5 656.9688,48.9219 L656.9688,51.6406 Z "/><text fill="#000000" font-family="sans-serif" font-size="12" lengthAdjust="spacingAndGlyphs" textLength="35" x="668" y="50.1543">List`1</text><rect fill="#FFFFFF" height="15.9688" style="stroke: #000000; stroke-width: 1.0; stroke-dasharray: 2.0,2.0;" width="9" x="711" y="27"/><text fill="#000000" font-family="sans-serif" font-size="12" font-style="italic" lengthAdjust="spacingAndGlyphs" textLength="7" x="712" y="39.1387">T</text><line style="stroke: #A80036; stroke-width: 1.5;" x1="640" x2="716" y1="62" y2="62"/><line style="stroke: #A80036; stroke-width: 1.5;" x1="640" x2="716" y1="70" y2="70"/><!--MD5=[896bd245467c7f0ca2d2838434d4c281]
link GridSelectionHelper to List`1--><path d="M616.06,54 C616.06,54 622.9,54 625.68,54 " fill="none" id="GridSelectionHelper-List`1" style="stroke: #A80036; stroke-width: 1.0;"/><polygon fill="#A80036" points="638.72,54,629.72,50,633.72,54,629.72,58,638.72,54" style="stroke: #A80036; stroke-width: 1.0;"/><line style="stroke: #A80036; stroke-width: 1.0;" x1="633.72" x2="625.72" y1="54" y2="54"/><polygon fill="#FFFFFF" points="604.06,54,610.06,58,616.06,54,610.06,50,604.06,54" style="stroke: #A80036; stroke-width: 1.0;"/><text fill="#000000" font-family="sans-serif" font-size="13" lengthAdjust="spacingAndGlyphs" textLength="152" x="725.012" y="33.5979">Directions&lt;Vector3Int&gt;</text><!--MD5=[7b039b39e762f7d05abb00220f7c490c]
@startuml
class GridSelectionHelper <<static>> {
    + {static} MoveMinToMaxInclusive(minVal:int, maxVal:int, step:int) : IEnumerable<int>
    + {static} MoveMaxToMinInclusive(minVal:int, maxVal:int, step:int) : IEnumerable<int>
    + {static} AStar(startPos:Vector3Int, endPos:Vector3Int, placementData:PlacementGridData) : List<Vector3Int>
}
class "List`1"<T> {
}
GridSelectionHelper o-> "Directions<Vector3Int>" "List`1"
@enduml

PlantUML version 1.2020.02(Sun Mar 01 10:22:07 GMT 2020)
(GPL source distribution)
Java Runtime: OpenJDK Runtime Environment
JVM: OpenJDK 64-Bit Server VM
Java Version: 11.0.9+11-Ubuntu-0ubuntu1
Operating System: Linux
Default Encoding: ANSI_X3.4-1968
Language: en
Country: US
--></g></svg>