<?xml version="1.0" encoding="UTF-8" standalone="no"?><svg xmlns="http://www.w3.org/2000/svg" xmlns:xlink="http://www.w3.org/1999/xlink" contentScriptType="application/ecmascript" contentStyleType="text/css" height="188px" preserveAspectRatio="none" style="width:415px;height:188px;" version="1.1" viewBox="0 0 415 188" width="415px" zoomAndPan="magnify"><defs><filter height="300%" id="f17m8sduw74adi" width="300%" x="-1" y="-1"><feGaussianBlur result="blurOut" stdDeviation="2.0"/><feColorMatrix in="blurOut" result="blurOut2" type="matrix" values="0 0 0 0 0 0 0 0 0 0 0 0 0 0 0 0 0 0 .4 0"/><feOffset dx="4.0" dy="4.0" in="blurOut2" result="blurOut3"/><feBlend in="SourceGraphic" in2="blurOut3" mode="normal"/></filter></defs><g><!--MD5=[135e7d6c733bf78c8ec9bc2aad8ab8ab]
class GridData--><rect fill="#FEFECE" filter="url(#f17m8sduw74adi)" height="60.8047" id="GridData" style="stroke: #A80036; stroke-width: 1.5;" width="190" x="82.32" y="8"/><ellipse cx="145.57" cy="24" fill="#ADD1B2" rx="11" ry="11" style="stroke: #A80036; stroke-width: 1.0;"/><path d="M148.5388,29.6406 Q147.9606,29.9375 147.32,30.0781 Q146.6794,30.2344 145.9763,30.2344 Q143.4763,30.2344 142.1481,28.5938 Q140.8356,26.9375 140.8356,23.8125 Q140.8356,20.6875 142.1481,19.0313 Q143.4763,17.375 145.9763,17.375 Q146.6794,17.375 147.32,17.5313 Q147.9763,17.6875 148.5388,17.9844 L148.5388,20.7031 Q147.9138,20.125 147.32,19.8594 Q146.7263,19.5781 146.1013,19.5781 Q144.7575,19.5781 144.07,20.6563 Q143.3825,21.7188 143.3825,23.8125 Q143.3825,25.9063 144.07,26.9844 Q144.7575,28.0469 146.1013,28.0469 Q146.7263,28.0469 147.32,27.7813 Q147.9138,27.5 148.5388,26.9219 L148.5388,29.6406 Z "/><text fill="#000000" font-family="sans-serif" font-size="12" lengthAdjust="spacingAndGlyphs" textLength="55" x="166.07" y="28.1543">GridData</text><line style="stroke: #A80036; stroke-width: 1.5;" x1="83.32" x2="271.32" y1="40" y2="40"/><line style="stroke: #A80036; stroke-width: 1.5;" x1="83.32" x2="271.32" y1="48" y2="48"/><ellipse cx="93.32" cy="59" fill="#84BE84" rx="3" ry="3" style="stroke: #038048; stroke-width: 1.0;"/><text fill="#000000" font-family="sans-serif" font-size="11" lengthAdjust="spacingAndGlyphs" textLength="164" x="102.32" y="62.2104">GridData(gridSize:Vector2Int)</text><!--MD5=[e9dcf1065f2d675ed598344b8e9d59e4]
class PlacementGridData--><rect fill="#FEFECE" filter="url(#f17m8sduw74adi)" height="48" id="PlacementGridData" style="stroke: #A80036; stroke-width: 1.5;" width="153" x="100.82" y="129"/><ellipse cx="115.82" cy="145" fill="#ADD1B2" rx="11" ry="11" style="stroke: #A80036; stroke-width: 1.0;"/><path d="M118.7888,150.6406 Q118.2106,150.9375 117.57,151.0781 Q116.9294,151.2344 116.2263,151.2344 Q113.7263,151.2344 112.3981,149.5938 Q111.0856,147.9375 111.0856,144.8125 Q111.0856,141.6875 112.3981,140.0313 Q113.7263,138.375 116.2263,138.375 Q116.9294,138.375 117.57,138.5313 Q118.2263,138.6875 118.7888,138.9844 L118.7888,141.7031 Q118.1638,141.125 117.57,140.8594 Q116.9763,140.5781 116.3513,140.5781 Q115.0075,140.5781 114.32,141.6563 Q113.6325,142.7188 113.6325,144.8125 Q113.6325,146.9063 114.32,147.9844 Q115.0075,149.0469 116.3513,149.0469 Q116.9763,149.0469 117.57,148.7813 Q118.1638,148.5 118.7888,147.9219 L118.7888,150.6406 Z "/><text fill="#000000" font-family="sans-serif" font-size="12" lengthAdjust="spacingAndGlyphs" textLength="121" x="129.82" y="149.1543">PlacementGridData</text><line style="stroke: #A80036; stroke-width: 1.5;" x1="101.82" x2="252.82" y1="161" y2="161"/><line style="stroke: #A80036; stroke-width: 1.5;" x1="101.82" x2="252.82" y1="169" y2="169"/><!--MD5=[c90dc88a3cf82752334edf15a32def3b]
link GridData to PlacementGridData--><path d="M142.52,69.06 C136.79,85.93 136.93,106.98 142.94,123.65 " fill="none" id="GridData-&gt;PlacementGridData" style="stroke: #A80036; stroke-width: 1.0;"/><polygon fill="#A80036" points="145,128.67,145.3087,118.826,143.1135,124.0395,137.9,121.8444,145,128.67" style="stroke: #A80036; stroke-width: 1.0;"/><text fill="#000000" font-family="sans-serif" font-size="13" lengthAdjust="spacingAndGlyphs" textLength="124" x="-1.9905" y="117.9945">WallPlacementData</text><!--MD5=[c90dc88a3cf82752334edf15a32def3b]
link GridData to PlacementGridData--><path d="M165.95,69.06 C164.07,85.93 164.12,106.98 166.08,123.65 " fill="none" id="GridData-&gt;PlacementGridData-1" style="stroke: #A80036; stroke-width: 1.0;"/><polygon fill="#A80036" points="166.76,128.67,169.5426,119.2224,166.1029,123.7134,161.612,120.2737,166.76,128.67" style="stroke: #A80036; stroke-width: 1.0;"/><text fill="#000000" font-family="sans-serif" font-size="13" lengthAdjust="spacingAndGlyphs" textLength="130" x="180.0297" y="117.9945">FloorPlacementData</text><!--MD5=[c90dc88a3cf82752334edf15a32def3b]
link GridData to PlacementGridData--><path d="M189.37,69.06 C191.36,85.93 191.31,106.98 189.22,123.65 " fill="none" id="GridData-&gt;PlacementGridData-2" style="stroke: #A80036; stroke-width: 1.0;"/><polygon fill="#A80036" points="188.51,128.67,193.7291,120.3177,189.2091,123.7191,185.8077,119.1991,188.51,128.67" style="stroke: #A80036; stroke-width: 1.0;"/><text fill="#000000" font-family="sans-serif" font-size="13" lengthAdjust="spacingAndGlyphs" textLength="140" x="263.6108" y="125.2306">ObjectPlacementData</text><!--MD5=[c90dc88a3cf82752334edf15a32def3b]
link GridData to PlacementGridData--><path d="M212.79,69.06 C218.64,85.93 218.5,106.98 212.36,123.65 " fill="none" id="GridData-&gt;PlacementGridData-3" style="stroke: #A80036; stroke-width: 1.0;"/><polygon fill="#A80036" points="210.27,128.67,217.4313,121.9086,212.1981,124.0567,210.05,118.8236,210.27,128.67" style="stroke: #A80036; stroke-width: 1.0;"/><text fill="#000000" font-family="sans-serif" font-size="13" lengthAdjust="spacingAndGlyphs" textLength="135" x="234.7547" y="117.9945">InWallPlacementData</text><!--MD5=[dd2216a5fecb9c1dfdb4e22941bb9e64]
@startuml
class GridData {
    + GridData(gridSize:Vector2Int)
}
GridData - -> "WallPlacementData" PlacementGridData
GridData - -> "FloorPlacementData" PlacementGridData
GridData - -> "ObjectPlacementData" PlacementGridData
GridData - -> "InWallPlacementData" PlacementGridData
@enduml

PlantUML version 1.2020.02(Sun Mar 01 10:22:07 GMT 2020)
(GPL source distribution)
Java Runtime: OpenJDK Runtime Environment
JVM: OpenJDK 64-Bit Server VM
Java Version: 11.0.9+11-Ubuntu-0ubuntu1
Operating System: Linux
Default Encoding: ANSI_X3.4-1968
Language: en
Country: US
--></g></svg>