<?xml version="1.0" encoding="UTF-8" standalone="no"?><svg xmlns="http://www.w3.org/2000/svg" xmlns:xlink="http://www.w3.org/1999/xlink" contentScriptType="application/ecmascript" contentStyleType="text/css" height="239px" preserveAspectRatio="none" style="width:454px;height:239px;" version="1.1" viewBox="0 0 454 239" width="454px" zoomAndPan="magnify"><defs><filter height="300%" id="fmth3m0avz7wl" width="300%" x="-1" y="-1"><feGaussianBlur result="blurOut" stdDeviation="2.0"/><feColorMatrix in="blurOut" result="blurOut2" type="matrix" values="0 0 0 0 0 0 0 0 0 0 0 0 0 0 0 0 0 0 .4 0"/><feOffset dx="4.0" dy="4.0" in="blurOut2" result="blurOut3"/><feBlend in="SourceGraphic" in2="blurOut3" mode="normal"/></filter></defs><g><!--MD5=[313835e2384f4c5003f55ee5fc6febf5]
class InputManager--><rect fill="#FEFECE" filter="url(#fmth3m0avz7wl)" height="112.0234" id="InputManager" style="stroke: #A80036; stroke-width: 1.5;" width="437" x="6" y="116"/><ellipse cx="176.75" cy="132" fill="#ADD1B2" rx="11" ry="11" style="stroke: #A80036; stroke-width: 1.0;"/><path d="M179.7188,137.6406 Q179.1406,137.9375 178.5,138.0781 Q177.8594,138.2344 177.1563,138.2344 Q174.6563,138.2344 173.3281,136.5938 Q172.0156,134.9375 172.0156,131.8125 Q172.0156,128.6875 173.3281,127.0313 Q174.6563,125.375 177.1563,125.375 Q177.8594,125.375 178.5,125.5313 Q179.1563,125.6875 179.7188,125.9844 L179.7188,128.7031 Q179.0938,128.125 178.5,127.8594 Q177.9063,127.5781 177.2813,127.5781 Q175.9375,127.5781 175.25,128.6563 Q174.5625,129.7188 174.5625,131.8125 Q174.5625,133.9063 175.25,134.9844 Q175.9375,136.0469 177.2813,136.0469 Q177.9063,136.0469 178.5,135.7813 Q179.0938,135.5 179.7188,134.9219 L179.7188,137.6406 Z "/><text fill="#000000" font-family="sans-serif" font-size="12" lengthAdjust="spacingAndGlyphs" textLength="87" x="197.25" y="136.1543">InputManager</text><line style="stroke: #A80036; stroke-width: 1.5;" x1="7" x2="442" y1="148" y2="148"/><ellipse cx="17" cy="159" fill="none" rx="3" ry="3" style="stroke: #038048; stroke-width: 1.0;"/><text fill="#000000" font-family="sans-serif" font-size="11" lengthAdjust="spacingAndGlyphs" textLength="411" x="26" y="162.2104">«event» OnMousePressed,OnMouseReleased,OnCancle,OnUndo : Action</text><ellipse cx="17" cy="171.8047" fill="none" rx="3" ry="3" style="stroke: #038048; stroke-width: 1.0;"/><text fill="#000000" font-family="sans-serif" font-size="11" lengthAdjust="spacingAndGlyphs" textLength="179" x="26" y="175.0151">«event» OnRotate : Action&lt;int&gt;</text><ellipse cx="17" cy="184.6094" fill="none" rx="3" ry="3" style="stroke: #038048; stroke-width: 1.0;"/><text fill="#000000" font-family="sans-serif" font-size="11" lengthAdjust="spacingAndGlyphs" textLength="227" x="26" y="187.8198">«event» OnToggleDelete : Action&lt;bool&gt;</text><line style="stroke: #A80036; stroke-width: 1.5;" x1="7" x2="442" y1="194.4141" y2="194.4141"/><ellipse cx="17" cy="205.4141" fill="#84BE84" rx="3" ry="3" style="stroke: #038048; stroke-width: 1.0;"/><text fill="#000000" font-family="sans-serif" font-size="11" lengthAdjust="spacingAndGlyphs" textLength="200" x="26" y="208.6245">GetSelectedMapPosition() : Vector3</text><ellipse cx="17" cy="218.2188" fill="#84BE84" rx="3" ry="3" style="stroke: #038048; stroke-width: 1.0;"/><text fill="#000000" font-family="sans-serif" font-size="11" lengthAdjust="spacingAndGlyphs" textLength="148" x="26" y="221.4292">IsInteractingWithUI() : bool</text><!--MD5=[83b3cf3d23d77c6f1e1b5291a241bc2a]
class MonoBehaviour--><rect fill="#FEFECE" filter="url(#fmth3m0avz7wl)" height="48" id="MonoBehaviour" style="stroke: #A80036; stroke-width: 1.5;" width="128" x="160.5" y="8"/><ellipse cx="175.5" cy="24" fill="#ADD1B2" rx="11" ry="11" style="stroke: #A80036; stroke-width: 1.0;"/><path d="M178.4688,29.6406 Q177.8906,29.9375 177.25,30.0781 Q176.6094,30.2344 175.9063,30.2344 Q173.4063,30.2344 172.0781,28.5938 Q170.7656,26.9375 170.7656,23.8125 Q170.7656,20.6875 172.0781,19.0313 Q173.4063,17.375 175.9063,17.375 Q176.6094,17.375 177.25,17.5313 Q177.9063,17.6875 178.4688,17.9844 L178.4688,20.7031 Q177.8438,20.125 177.25,19.8594 Q176.6563,19.5781 176.0313,19.5781 Q174.6875,19.5781 174,20.6563 Q173.3125,21.7188 173.3125,23.8125 Q173.3125,25.9063 174,26.9844 Q174.6875,28.0469 176.0313,28.0469 Q176.6563,28.0469 177.25,27.7813 Q177.8438,27.5 178.4688,26.9219 L178.4688,29.6406 Z "/><text fill="#000000" font-family="sans-serif" font-size="12" lengthAdjust="spacingAndGlyphs" textLength="96" x="189.5" y="28.1543">MonoBehaviour</text><line style="stroke: #A80036; stroke-width: 1.5;" x1="161.5" x2="287.5" y1="40" y2="40"/><line style="stroke: #A80036; stroke-width: 1.5;" x1="161.5" x2="287.5" y1="48" y2="48"/><!--MD5=[b35675c2c560fc21c3c319d702582a63]
reverse link MonoBehaviour to InputManager--><path d="M224.5,76.25 C224.5,88.82 224.5,102.73 224.5,115.93 " fill="none" id="MonoBehaviour&lt;-InputManager" style="stroke: #A80036; stroke-width: 1.0;"/><polygon fill="none" points="217.5,76.1,224.5,56.1,231.5,76.1,217.5,76.1" style="stroke: #A80036; stroke-width: 1.0;"/><!--MD5=[2a829a394a53b6dd9342f48640c47d16]
@startuml
class InputManager {
    +  <<event>> OnMousePressed,OnMouseReleased,OnCancle,OnUndo : Action 
    +  <<event>> OnRotate : Action<int> 
    +  <<event>> OnToggleDelete : Action<bool> 
    + GetSelectedMapPosition() : Vector3
    + IsInteractingWithUI() : bool
}
MonoBehaviour <|- - InputManager
@enduml

PlantUML version 1.2020.02(Sun Mar 01 10:22:07 GMT 2020)
(GPL source distribution)
Java Runtime: OpenJDK Runtime Environment
JVM: OpenJDK 64-Bit Server VM
Java Version: 11.0.9+11-Ubuntu-0ubuntu1
Operating System: Linux
Default Encoding: ANSI_X3.4-1968
Language: en
Country: US
--></g></svg>