<?xml version="1.0" encoding="UTF-8" standalone="no"?><svg xmlns="http://www.w3.org/2000/svg" xmlns:xlink="http://www.w3.org/1999/xlink" contentScriptType="application/ecmascript" contentStyleType="text/css" height="187px" preserveAspectRatio="none" style="width:814px;height:187px;" version="1.1" viewBox="0 0 814 187" width="814px" zoomAndPan="magnify"><defs><filter height="300%" id="f4n7g9cvirerw" width="300%" x="-1" y="-1"><feGaussianBlur result="blurOut" stdDeviation="2.0"/><feColorMatrix in="blurOut" result="blurOut2" type="matrix" values="0 0 0 0 0 0 0 0 0 0 0 0 0 0 0 0 0 0 .4 0"/><feOffset dx="4.0" dy="4.0" in="blurOut2" result="blurOut3"/><feBlend in="SourceGraphic" in2="blurOut3" mode="normal"/></filter></defs><g><!--MD5=[6b9514a7ce9da7dece625143065b9d77]
class InWallRemovalStrategy--><rect fill="#FEFECE" filter="url(#f4n7g9cvirerw)" height="60.8047" id="InWallRemovalStrategy" style="stroke: #A80036; stroke-width: 1.5;" width="797" x="6" y="116"/><ellipse cx="329.75" cy="132" fill="#ADD1B2" rx="11" ry="11" style="stroke: #A80036; stroke-width: 1.0;"/><path d="M332.7188,137.6406 Q332.1406,137.9375 331.5,138.0781 Q330.8594,138.2344 330.1563,138.2344 Q327.6563,138.2344 326.3281,136.5938 Q325.0156,134.9375 325.0156,131.8125 Q325.0156,128.6875 326.3281,127.0313 Q327.6563,125.375 330.1563,125.375 Q330.8594,125.375 331.5,125.5313 Q332.1563,125.6875 332.7188,125.9844 L332.7188,128.7031 Q332.0938,128.125 331.5,127.8594 Q330.9063,127.5781 330.2813,127.5781 Q328.9375,127.5781 328.25,128.6563 Q327.5625,129.7188 327.5625,131.8125 Q327.5625,133.9063 328.25,134.9844 Q328.9375,136.0469 330.2813,136.0469 Q330.9063,136.0469 331.5,135.7813 Q332.0938,135.5 332.7188,134.9219 L332.7188,137.6406 Z "/><text fill="#000000" font-family="sans-serif" font-size="12" lengthAdjust="spacingAndGlyphs" textLength="141" x="350.25" y="136.1543">InWallRemovalStrategy</text><line style="stroke: #A80036; stroke-width: 1.5;" x1="7" x2="802" y1="148" y2="148"/><line style="stroke: #A80036; stroke-width: 1.5;" x1="7" x2="802" y1="156" y2="156"/><ellipse cx="17" cy="167" fill="#84BE84" rx="3" ry="3" style="stroke: #038048; stroke-width: 1.0;"/><text fill="#000000" font-family="sans-serif" font-size="11" lengthAdjust="spacingAndGlyphs" textLength="771" x="26" y="170.2104">InWallRemovalStrategy(inWallObjectsPlacementData:PlacementGridData, placementData:PlacementGridData, gridManager:GridManager)</text><!--MD5=[5d8871ed9238a095c0627dea90568feb]
class InWallPlacementStrategy--><rect fill="#FEFECE" filter="url(#f4n7g9cvirerw)" height="48" id="InWallPlacementStrategy" style="stroke: #A80036; stroke-width: 1.5;" width="187" x="311" y="8"/><ellipse cx="326" cy="24" fill="#ADD1B2" rx="11" ry="11" style="stroke: #A80036; stroke-width: 1.0;"/><path d="M328.9688,29.6406 Q328.3906,29.9375 327.75,30.0781 Q327.1094,30.2344 326.4063,30.2344 Q323.9063,30.2344 322.5781,28.5938 Q321.2656,26.9375 321.2656,23.8125 Q321.2656,20.6875 322.5781,19.0313 Q323.9063,17.375 326.4063,17.375 Q327.1094,17.375 327.75,17.5313 Q328.4063,17.6875 328.9688,17.9844 L328.9688,20.7031 Q328.3438,20.125 327.75,19.8594 Q327.1563,19.5781 326.5313,19.5781 Q325.1875,19.5781 324.5,20.6563 Q323.8125,21.7188 323.8125,23.8125 Q323.8125,25.9063 324.5,26.9844 Q325.1875,28.0469 326.5313,28.0469 Q327.1563,28.0469 327.75,27.7813 Q328.3438,27.5 328.9688,26.9219 L328.9688,29.6406 Z "/><text fill="#000000" font-family="sans-serif" font-size="12" lengthAdjust="spacingAndGlyphs" textLength="155" x="340" y="28.1543">InWallPlacementStrategy</text><line style="stroke: #A80036; stroke-width: 1.5;" x1="312" x2="497" y1="40" y2="40"/><line style="stroke: #A80036; stroke-width: 1.5;" x1="312" x2="497" y1="48" y2="48"/><!--MD5=[7525293bab79b61eb27d89aef07bf9e3]
reverse link InWallPlacementStrategy to InWallRemovalStrategy--><path d="M404.5,76.11 C404.5,89.31 404.5,103.54 404.5,115.65 " fill="none" id="InWallPlacementStrategy&lt;-InWallRemovalStrategy" style="stroke: #A80036; stroke-width: 1.0;"/><polygon fill="none" points="397.5,76.04,404.5,56.04,411.5,76.04,397.5,76.04" style="stroke: #A80036; stroke-width: 1.0;"/><!--MD5=[4c124a943a0d765e83f55e270d181d8a]
@startuml
class InWallRemovalStrategy {
    + InWallRemovalStrategy(inWallObjectsPlacementData:PlacementGridData, placementData:PlacementGridData, gridManager:GridManager)
}
InWallPlacementStrategy <|- - InWallRemovalStrategy
@enduml

PlantUML version 1.2020.02(Sun Mar 01 10:22:07 GMT 2020)
(GPL source distribution)
Java Runtime: OpenJDK Runtime Environment
JVM: OpenJDK 64-Bit Server VM
Java Version: 11.0.9+11-Ubuntu-0ubuntu1
Operating System: Linux
Default Encoding: ANSI_X3.4-1968
Language: en
Country: US
--></g></svg>