<?xml version="1.0" encoding="UTF-8" standalone="no"?><svg xmlns="http://www.w3.org/2000/svg" xmlns:xlink="http://www.w3.org/1999/xlink" contentScriptType="application/ecmascript" contentStyleType="text/css" height="226px" preserveAspectRatio="none" style="width:772px;height:226px;" version="1.1" viewBox="0 0 772 226" width="772px" zoomAndPan="magnify"><defs><filter height="300%" id="fapi9xch4yzjo" width="300%" x="-1" y="-1"><feGaussianBlur result="blurOut" stdDeviation="2.0"/><feColorMatrix in="blurOut" result="blurOut2" type="matrix" values="0 0 0 0 0 0 0 0 0 0 0 0 0 0 0 0 0 0 .4 0"/><feOffset dx="4.0" dy="4.0" in="blurOut2" result="blurOut3"/><feBlend in="SourceGraphic" in2="blurOut3" mode="normal"/></filter></defs><g><!--MD5=[5d8871ed9238a095c0627dea90568feb]
class InWallPlacementStrategy--><rect fill="#FEFECE" filter="url(#fapi9xch4yzjo)" height="99.2188" id="InWallPlacementStrategy" style="stroke: #A80036; stroke-width: 1.5;" width="755" x="6" y="116"/><ellipse cx="301.75" cy="132" fill="#ADD1B2" rx="11" ry="11" style="stroke: #A80036; stroke-width: 1.0;"/><path d="M304.7188,137.6406 Q304.1406,137.9375 303.5,138.0781 Q302.8594,138.2344 302.1563,138.2344 Q299.6563,138.2344 298.3281,136.5938 Q297.0156,134.9375 297.0156,131.8125 Q297.0156,128.6875 298.3281,127.0313 Q299.6563,125.375 302.1563,125.375 Q302.8594,125.375 303.5,125.5313 Q304.1563,125.6875 304.7188,125.9844 L304.7188,128.7031 Q304.0938,128.125 303.5,127.8594 Q302.9063,127.5781 302.2813,127.5781 Q300.9375,127.5781 300.25,128.6563 Q299.5625,129.7188 299.5625,131.8125 Q299.5625,133.9063 300.25,134.9844 Q300.9375,136.0469 302.2813,136.0469 Q302.9063,136.0469 303.5,135.7813 Q304.0938,135.5 304.7188,134.9219 L304.7188,137.6406 Z "/><text fill="#000000" font-family="sans-serif" font-size="12" lengthAdjust="spacingAndGlyphs" textLength="155" x="322.25" y="136.1543">InWallPlacementStrategy</text><line style="stroke: #A80036; stroke-width: 1.5;" x1="7" x2="760" y1="148" y2="148"/><line style="stroke: #A80036; stroke-width: 1.5;" x1="7" x2="760" y1="156" y2="156"/><ellipse cx="17" cy="167" fill="#84BE84" rx="3" ry="3" style="stroke: #038048; stroke-width: 1.0;"/><text fill="#000000" font-family="sans-serif" font-size="11" lengthAdjust="spacingAndGlyphs" textLength="729" x="26" y="170.2104">InWallPlacementStrategy(wallPlacementData:PlacementGridData, placementData:PlacementGridData, gridManager:GridManager)</text><ellipse cx="17" cy="179.8047" fill="#84BE84" rx="3" ry="3" style="stroke: #038048; stroke-width: 1.0;"/><text fill="#000000" font-family="sans-serif" font-size="11" lengthAdjust="spacingAndGlyphs" textLength="486" x="26" y="183.0151">«override» StartSelection(mousePosition:Vector3, selectionData:SelectionData) : void</text><ellipse cx="17" cy="192.6094" fill="#84BE84" rx="3" ry="3" style="stroke: #038048; stroke-width: 1.0;"/><text fill="#000000" font-family="sans-serif" font-size="11" lengthAdjust="spacingAndGlyphs" textLength="495" x="26" y="195.8198">«override» ModifySelection(mousePosition:Vector3, selectionData:SelectionData) : bool</text><ellipse cx="17" cy="205.4141" fill="#84BE84" rx="3" ry="3" style="stroke: #038048; stroke-width: 1.0;"/><text fill="#000000" font-family="sans-serif" font-size="11" lengthAdjust="spacingAndGlyphs" textLength="352" x="26" y="208.6245">«override» FinishSelection(selectionData:SelectionData) : void</text><!--MD5=[b9d97c2f6c0f798d1e584316650c0b1a]
class SelectionStrategy--><rect fill="#FEFECE" filter="url(#fapi9xch4yzjo)" height="48" id="SelectionStrategy" style="stroke: #A80036; stroke-width: 1.5;" width="143" x="312" y="8"/><ellipse cx="327" cy="24" fill="#ADD1B2" rx="11" ry="11" style="stroke: #A80036; stroke-width: 1.0;"/><path d="M329.9688,29.6406 Q329.3906,29.9375 328.75,30.0781 Q328.1094,30.2344 327.4063,30.2344 Q324.9063,30.2344 323.5781,28.5938 Q322.2656,26.9375 322.2656,23.8125 Q322.2656,20.6875 323.5781,19.0313 Q324.9063,17.375 327.4063,17.375 Q328.1094,17.375 328.75,17.5313 Q329.4063,17.6875 329.9688,17.9844 L329.9688,20.7031 Q329.3438,20.125 328.75,19.8594 Q328.1563,19.5781 327.5313,19.5781 Q326.1875,19.5781 325.5,20.6563 Q324.8125,21.7188 324.8125,23.8125 Q324.8125,25.9063 325.5,26.9844 Q326.1875,28.0469 327.5313,28.0469 Q328.1563,28.0469 328.75,27.7813 Q329.3438,27.5 329.9688,26.9219 L329.9688,29.6406 Z "/><text fill="#000000" font-family="sans-serif" font-size="12" lengthAdjust="spacingAndGlyphs" textLength="111" x="341" y="28.1543">SelectionStrategy</text><line style="stroke: #A80036; stroke-width: 1.5;" x1="313" x2="454" y1="40" y2="40"/><line style="stroke: #A80036; stroke-width: 1.5;" x1="313" x2="454" y1="48" y2="48"/><!--MD5=[98c7137259b747e7fd088f7dc7902e9c]
reverse link SelectionStrategy to InWallPlacementStrategy--><path d="M383.5,76.51 C383.5,89.14 383.5,103.01 383.5,115.93 " fill="none" id="SelectionStrategy&lt;-InWallPlacementStrategy" style="stroke: #A80036; stroke-width: 1.0;"/><polygon fill="none" points="376.5,76.21,383.5,56.21,390.5,76.21,376.5,76.21" style="stroke: #A80036; stroke-width: 1.0;"/><!--MD5=[c88c679ed41db03562aeff45ae800665]
@startuml
class InWallPlacementStrategy {
    + InWallPlacementStrategy(wallPlacementData:PlacementGridData, placementData:PlacementGridData, gridManager:GridManager)
    + <<override>> StartSelection(mousePosition:Vector3, selectionData:SelectionData) : void
    + <<override>> ModifySelection(mousePosition:Vector3, selectionData:SelectionData) : bool
    + <<override>> FinishSelection(selectionData:SelectionData) : void
}
SelectionStrategy <|- - InWallPlacementStrategy
@enduml

PlantUML version 1.2020.02(Sun Mar 01 10:22:07 GMT 2020)
(GPL source distribution)
Java Runtime: OpenJDK Runtime Environment
JVM: OpenJDK 64-Bit Server VM
Java Version: 11.0.9+11-Ubuntu-0ubuntu1
Operating System: Linux
Default Encoding: ANSI_X3.4-1968
Language: en
Country: US
--></g></svg>