<?xml version="1.0" encoding="UTF-8" standalone="no"?><svg xmlns="http://www.w3.org/2000/svg" xmlns:xlink="http://www.w3.org/1999/xlink" contentScriptType="application/ecmascript" contentStyleType="text/css" height="322px" preserveAspectRatio="none" style="width:762px;height:322px;" version="1.1" viewBox="0 0 762 322" width="762px" zoomAndPan="magnify"><defs><filter height="300%" id="f1ps0gpccg1tf9" width="300%" x="-1" y="-1"><feGaussianBlur result="blurOut" stdDeviation="2.0"/><feColorMatrix in="blurOut" result="blurOut2" type="matrix" values="0 0 0 0 0 0 0 0 0 0 0 0 0 0 0 0 0 0 .4 0"/><feOffset dx="4.0" dy="4.0" in="blurOut2" result="blurOut3"/><feBlend in="SourceGraphic" in2="blurOut3" mode="normal"/></filter></defs><g><!--MD5=[67f09aff83807155081f5ed3a1915a77]
class ItemDataBaseSO--><rect fill="#FEFECE" filter="url(#f1ps0gpccg1tf9)" height="60.8047" id="ItemDataBaseSO" style="stroke: #A80036; stroke-width: 1.5;" width="204" x="66" y="142"/><ellipse cx="111.25" cy="158" fill="#ADD1B2" rx="11" ry="11" style="stroke: #A80036; stroke-width: 1.0;"/><path d="M114.2188,163.6406 Q113.6406,163.9375 113,164.0781 Q112.3594,164.2344 111.6563,164.2344 Q109.1563,164.2344 107.8281,162.5938 Q106.5156,160.9375 106.5156,157.8125 Q106.5156,154.6875 107.8281,153.0313 Q109.1563,151.375 111.6563,151.375 Q112.3594,151.375 113,151.5313 Q113.6563,151.6875 114.2188,151.9844 L114.2188,154.7031 Q113.5938,154.125 113,153.8594 Q112.4063,153.5781 111.7813,153.5781 Q110.4375,153.5781 109.75,154.6563 Q109.0625,155.7188 109.0625,157.8125 Q109.0625,159.9063 109.75,160.9844 Q110.4375,162.0469 111.7813,162.0469 Q112.4063,162.0469 113,161.7813 Q113.5938,161.5 114.2188,160.9219 L114.2188,163.6406 Z "/><text fill="#000000" font-family="sans-serif" font-size="12" lengthAdjust="spacingAndGlyphs" textLength="105" x="131.75" y="162.1543">ItemDataBaseSO</text><line style="stroke: #A80036; stroke-width: 1.5;" x1="67" x2="269" y1="174" y2="174"/><line style="stroke: #A80036; stroke-width: 1.5;" x1="67" x2="269" y1="182" y2="182"/><ellipse cx="77" cy="193" fill="#84BE84" rx="3" ry="3" style="stroke: #038048; stroke-width: 1.0;"/><text fill="#000000" font-family="sans-serif" font-size="11" lengthAdjust="spacingAndGlyphs" textLength="178" x="86" y="196.2104">GetItemWithID(id:int) : ItemData</text><!--MD5=[9f3fcd8bc4efc713d6f54d260476c26d]
class ItemData--><rect fill="#FEFECE" filter="url(#f1ps0gpccg1tf9)" height="73.6094" id="ItemData" style="stroke: #A80036; stroke-width: 1.5;" width="103" x="525.5" y="8"/><ellipse cx="546.8" cy="24" fill="#ADD1B2" rx="11" ry="11" style="stroke: #A80036; stroke-width: 1.0;"/><path d="M549.7688,29.6406 Q549.1906,29.9375 548.55,30.0781 Q547.9094,30.2344 547.2063,30.2344 Q544.7063,30.2344 543.3781,28.5938 Q542.0656,26.9375 542.0656,23.8125 Q542.0656,20.6875 543.3781,19.0313 Q544.7063,17.375 547.2063,17.375 Q547.9094,17.375 548.55,17.5313 Q549.2063,17.6875 549.7688,17.9844 L549.7688,20.7031 Q549.1438,20.125 548.55,19.8594 Q547.9563,19.5781 547.3313,19.5781 Q545.9875,19.5781 545.3,20.6563 Q544.6125,21.7188 544.6125,23.8125 Q544.6125,25.9063 545.3,26.9844 Q545.9875,28.0469 547.3313,28.0469 Q547.9563,28.0469 548.55,27.7813 Q549.1438,27.5 549.7688,26.9219 L549.7688,29.6406 Z "/><text fill="#000000" font-family="sans-serif" font-size="12" lengthAdjust="spacingAndGlyphs" textLength="57" x="562.2" y="28.1543">ItemData</text><line style="stroke: #A80036; stroke-width: 1.5;" x1="526.5" x2="627.5" y1="40" y2="40"/><ellipse cx="536.5" cy="51" fill="none" rx="3" ry="3" style="stroke: #038048; stroke-width: 1.0;"/><text fill="#000000" font-family="sans-serif" font-size="11" lengthAdjust="spacingAndGlyphs" textLength="77" x="545.5" y="54.2104">name : string</text><ellipse cx="536.5" cy="63.8047" fill="none" rx="3" ry="3" style="stroke: #038048; stroke-width: 1.0;"/><text fill="#000000" font-family="sans-serif" font-size="11" lengthAdjust="spacingAndGlyphs" textLength="37" x="545.5" y="67.0151">ID : int</text><line style="stroke: #A80036; stroke-width: 1.5;" x1="526.5" x2="627.5" y1="73.6094" y2="73.6094"/><!--MD5=[e644022de7dea015dd09463c37421447]
class List`1--><rect fill="#FEFECE" filter="url(#f1ps0gpccg1tf9)" height="48" id="List`1" style="stroke: #A80036; stroke-width: 1.5;" width="78" x="129" y="263"/><ellipse cx="144" cy="279" fill="#ADD1B2" rx="11" ry="11" style="stroke: #A80036; stroke-width: 1.0;"/><path d="M146.9688,284.6406 Q146.3906,284.9375 145.75,285.0781 Q145.1094,285.2344 144.4063,285.2344 Q141.9063,285.2344 140.5781,283.5938 Q139.2656,281.9375 139.2656,278.8125 Q139.2656,275.6875 140.5781,274.0313 Q141.9063,272.375 144.4063,272.375 Q145.1094,272.375 145.75,272.5313 Q146.4063,272.6875 146.9688,272.9844 L146.9688,275.7031 Q146.3438,275.125 145.75,274.8594 Q145.1563,274.5781 144.5313,274.5781 Q143.1875,274.5781 142.5,275.6563 Q141.8125,276.7188 141.8125,278.8125 Q141.8125,280.9063 142.5,281.9844 Q143.1875,283.0469 144.5313,283.0469 Q145.1563,283.0469 145.75,282.7813 Q146.3438,282.5 146.9688,281.9219 L146.9688,284.6406 Z "/><text fill="#000000" font-family="sans-serif" font-size="12" lengthAdjust="spacingAndGlyphs" textLength="35" x="158" y="283.1543">List`1</text><rect fill="#FFFFFF" height="15.9688" style="stroke: #000000; stroke-width: 1.0; stroke-dasharray: 2.0,2.0;" width="9" x="201" y="260"/><text fill="#000000" font-family="sans-serif" font-size="12" font-style="italic" lengthAdjust="spacingAndGlyphs" textLength="7" x="202" y="272.1387">T</text><line style="stroke: #A80036; stroke-width: 1.5;" x1="130" x2="206" y1="295" y2="295"/><line style="stroke: #A80036; stroke-width: 1.5;" x1="130" x2="206" y1="303" y2="303"/><!--MD5=[44895057fba17b10f3053a7baa21df04]
class ScriptableObject--><rect fill="#FEFECE" filter="url(#f1ps0gpccg1tf9)" height="48" id="ScriptableObject" style="stroke: #A80036; stroke-width: 1.5;" width="135" x="100.5" y="21"/><ellipse cx="115.5" cy="37" fill="#ADD1B2" rx="11" ry="11" style="stroke: #A80036; stroke-width: 1.0;"/><path d="M118.4688,42.6406 Q117.8906,42.9375 117.25,43.0781 Q116.6094,43.2344 115.9063,43.2344 Q113.4063,43.2344 112.0781,41.5938 Q110.7656,39.9375 110.7656,36.8125 Q110.7656,33.6875 112.0781,32.0313 Q113.4063,30.375 115.9063,30.375 Q116.6094,30.375 117.25,30.5313 Q117.9063,30.6875 118.4688,30.9844 L118.4688,33.7031 Q117.8438,33.125 117.25,32.8594 Q116.6563,32.5781 116.0313,32.5781 Q114.6875,32.5781 114,33.6563 Q113.3125,34.7188 113.3125,36.8125 Q113.3125,38.9063 114,39.9844 Q114.6875,41.0469 116.0313,41.0469 Q116.6563,41.0469 117.25,40.7813 Q117.8438,40.5 118.4688,39.9219 L118.4688,42.6406 Z "/><text fill="#000000" font-family="sans-serif" font-size="12" lengthAdjust="spacingAndGlyphs" textLength="103" x="129.5" y="41.1543">ScriptableObject</text><line style="stroke: #A80036; stroke-width: 1.5;" x1="101.5" x2="234.5" y1="53" y2="53"/><line style="stroke: #A80036; stroke-width: 1.5;" x1="101.5" x2="234.5" y1="61" y2="61"/><!--MD5=[93fe7800e575c20b85b745370e1c4e4b]
class Vector2Int--><rect fill="#FEFECE" filter="url(#f1ps0gpccg1tf9)" height="48" id="Vector2Int" style="stroke: #A80036; stroke-width: 1.5;" width="97" x="305.5" y="148.5"/><ellipse cx="320.5" cy="164.5" fill="#ADD1B2" rx="11" ry="11" style="stroke: #A80036; stroke-width: 1.0;"/><path d="M323.4688,170.1406 Q322.8906,170.4375 322.25,170.5781 Q321.6094,170.7344 320.9063,170.7344 Q318.4063,170.7344 317.0781,169.0938 Q315.7656,167.4375 315.7656,164.3125 Q315.7656,161.1875 317.0781,159.5313 Q318.4063,157.875 320.9063,157.875 Q321.6094,157.875 322.25,158.0313 Q322.9063,158.1875 323.4688,158.4844 L323.4688,161.2031 Q322.8438,160.625 322.25,160.3594 Q321.6563,160.0781 321.0313,160.0781 Q319.6875,160.0781 319,161.1563 Q318.3125,162.2188 318.3125,164.3125 Q318.3125,166.4063 319,167.4844 Q319.6875,168.5469 321.0313,168.5469 Q321.6563,168.5469 322.25,168.2813 Q322.8438,168 323.4688,167.4219 L323.4688,170.1406 Z "/><text fill="#000000" font-family="sans-serif" font-size="12" lengthAdjust="spacingAndGlyphs" textLength="65" x="334.5" y="168.6543">Vector2Int</text><line style="stroke: #A80036; stroke-width: 1.5;" x1="306.5" x2="401.5" y1="180.5" y2="180.5"/><line style="stroke: #A80036; stroke-width: 1.5;" x1="306.5" x2="401.5" y1="188.5" y2="188.5"/><!--MD5=[c36d071016fc700d0379e1f147e9478f]
class PlacementType--><rect fill="#FEFECE" filter="url(#f1ps0gpccg1tf9)" height="48" id="PlacementType" style="stroke: #A80036; stroke-width: 1.5;" width="127" x="437.5" y="148.5"/><ellipse cx="452.5" cy="164.5" fill="#ADD1B2" rx="11" ry="11" style="stroke: #A80036; stroke-width: 1.0;"/><path d="M455.4688,170.1406 Q454.8906,170.4375 454.25,170.5781 Q453.6094,170.7344 452.9063,170.7344 Q450.4063,170.7344 449.0781,169.0938 Q447.7656,167.4375 447.7656,164.3125 Q447.7656,161.1875 449.0781,159.5313 Q450.4063,157.875 452.9063,157.875 Q453.6094,157.875 454.25,158.0313 Q454.9063,158.1875 455.4688,158.4844 L455.4688,161.2031 Q454.8438,160.625 454.25,160.3594 Q453.6563,160.0781 453.0313,160.0781 Q451.6875,160.0781 451,161.1563 Q450.3125,162.2188 450.3125,164.3125 Q450.3125,166.4063 451,167.4844 Q451.6875,168.5469 453.0313,168.5469 Q453.6563,168.5469 454.25,168.2813 Q454.8438,168 455.4688,167.4219 L455.4688,170.1406 Z "/><text fill="#000000" font-family="sans-serif" font-size="12" lengthAdjust="spacingAndGlyphs" textLength="95" x="466.5" y="168.6543">PlacementType</text><line style="stroke: #A80036; stroke-width: 1.5;" x1="438.5" x2="563.5" y1="180.5" y2="180.5"/><line style="stroke: #A80036; stroke-width: 1.5;" x1="438.5" x2="563.5" y1="188.5" y2="188.5"/><!--MD5=[064f7a74fee85463ec1a30143664ee17]
class GameObject--><rect fill="#FEFECE" filter="url(#f1ps0gpccg1tf9)" height="48" id="GameObject" style="stroke: #A80036; stroke-width: 1.5;" width="108" x="600" y="148.5"/><ellipse cx="615" cy="164.5" fill="#ADD1B2" rx="11" ry="11" style="stroke: #A80036; stroke-width: 1.0;"/><path d="M617.9688,170.1406 Q617.3906,170.4375 616.75,170.5781 Q616.1094,170.7344 615.4063,170.7344 Q612.9063,170.7344 611.5781,169.0938 Q610.2656,167.4375 610.2656,164.3125 Q610.2656,161.1875 611.5781,159.5313 Q612.9063,157.875 615.4063,157.875 Q616.1094,157.875 616.75,158.0313 Q617.4063,158.1875 617.9688,158.4844 L617.9688,161.2031 Q617.3438,160.625 616.75,160.3594 Q616.1563,160.0781 615.5313,160.0781 Q614.1875,160.0781 613.5,161.1563 Q612.8125,162.2188 612.8125,164.3125 Q612.8125,166.4063 613.5,167.4844 Q614.1875,168.5469 615.5313,168.5469 Q616.1563,168.5469 616.75,168.2813 Q617.3438,168 617.9688,167.4219 L617.9688,170.1406 Z "/><text fill="#000000" font-family="sans-serif" font-size="12" lengthAdjust="spacingAndGlyphs" textLength="76" x="629" y="168.6543">GameObject</text><line style="stroke: #A80036; stroke-width: 1.5;" x1="601" x2="707" y1="180.5" y2="180.5"/><line style="stroke: #A80036; stroke-width: 1.5;" x1="601" x2="707" y1="188.5" y2="188.5"/><!--MD5=[32e1a96799cc56e2386939d71f3cf49d]
reverse link ScriptableObject to ItemDataBaseSO--><path d="M168,89.09 C168,106.53 168,126.22 168,141.98 " fill="none" id="ScriptableObject&lt;-ItemDataBaseSO" style="stroke: #A80036; stroke-width: 1.0;"/><polygon fill="none" points="161,89.02,168,69.02,175,89.02,161,89.02" style="stroke: #A80036; stroke-width: 1.0;"/><!--MD5=[ae40d374dc2cb8aa238614ee71f961ee]
link ItemDataBaseSO to List`1--><path d="M168,203.06 C168,219.93 168,240.98 168,257.65 " fill="none" id="ItemDataBaseSO-&gt;List`1" style="stroke: #A80036; stroke-width: 1.0;"/><polygon fill="#A80036" points="168,262.67,172,253.67,168,257.67,164,253.67,168,262.67" style="stroke: #A80036; stroke-width: 1.0;"/><text fill="#000000" font-family="sans-serif" font-size="13" lengthAdjust="spacingAndGlyphs" textLength="147" x="3.0844" y="251.9945">structures&lt;ItemData&gt;</text><!--MD5=[8413fedec886484a57ccca6f3757b545]
link ItemData to Vector2Int--><path d="M525.28,75.11 C487.2,96.54 435.91,125.4 399.41,145.95 " fill="none" id="ItemData-&gt;Vector2Int" style="stroke: #A80036; stroke-width: 1.0;"/><polygon fill="#A80036" points="395.03,148.41,404.8342,147.4733,399.3852,145.9539,400.9045,140.5049,395.03,148.41" style="stroke: #A80036; stroke-width: 1.0;"/><text fill="#000000" font-family="sans-serif" font-size="13" lengthAdjust="spacingAndGlyphs" textLength="25" x="377.3408" y="137.399">size</text><!--MD5=[d9ae965dff55affcd77735fb6abded04]
link ItemData to PlacementType--><path d="M555.02,82.3 C543.14,101.92 528.7,125.76 517.74,143.86 " fill="none" id="ItemData-&gt;PlacementType" style="stroke: #A80036; stroke-width: 1.0;"/><polygon fill="#A80036" points="515.03,148.33,523.1043,142.6903,517.613,144.0488,516.2544,138.5575,515.03,148.33" style="stroke: #A80036; stroke-width: 1.0;"/><text fill="#000000" font-family="sans-serif" font-size="13" lengthAdjust="spacingAndGlyphs" textLength="137" x="536.1783" y="137.2985">objectPlacementType</text><!--MD5=[493ead93a355a3a5bc41b09c8acce798]
link ItemData to GameObject--><path d="M587.59,82.3 C598.04,102.09 613.13,126.17 626.6,144.32 " fill="none" id="ItemData-&gt;GameObject" style="stroke: #A80036; stroke-width: 1.0;"/><polygon fill="#A80036" points="629.63,148.33,627.43,138.73,626.63,144.33,621.03,143.53,629.63,148.33" style="stroke: #A80036; stroke-width: 1.0;"/><text fill="#000000" font-family="sans-serif" font-size="13" lengthAdjust="spacingAndGlyphs" textLength="41" x="628.6383" y="137.2985">prefab</text><!--MD5=[493ead93a355a3a5bc41b09c8acce798]
link ItemData to GameObject--><path d="M611.64,82.3 C625.34,101.75 639.52,125.36 648.23,143.4 " fill="none" id="ItemData-&gt;GameObject-1" style="stroke: #A80036; stroke-width: 1.0;"/><polygon fill="#A80036" points="650.54,148.33,650.3571,138.4828,648.4248,143.7994,643.1082,141.8672,650.54,148.33" style="stroke: #A80036; stroke-width: 1.0;"/><text fill="#000000" font-family="sans-serif" font-size="13" lengthAdjust="spacingAndGlyphs" textLength="89" x="661.0565" y="137.2985">previewObject</text><!--MD5=[2d248e59dfb88dba63d9901f2e372544]
@startuml
class ItemDataBaseSO {
    + GetItemWithID(id:int) : ItemData
}
class ItemData {
    + name : string
    + ID : int
}
class "List`1"<T> {
}
ScriptableObject <|- - ItemDataBaseSO
ItemDataBaseSO - -> "structures<ItemData>" "List`1"
ItemData - -> "size" Vector2Int
ItemData - -> "objectPlacementType" PlacementType
ItemData - -> "prefab" GameObject
ItemData - -> "previewObject" GameObject
@enduml

PlantUML version 1.2020.02(Sun Mar 01 10:22:07 GMT 2020)
(GPL source distribution)
Java Runtime: OpenJDK Runtime Environment
JVM: OpenJDK 64-Bit Server VM
Java Version: 11.0.9+11-Ubuntu-0ubuntu1
Operating System: Linux
Default Encoding: ANSI_X3.4-1968
Language: en
Country: US
--></g></svg>