<?xml version="1.0" encoding="UTF-8" standalone="no"?><svg xmlns="http://www.w3.org/2000/svg" xmlns:xlink="http://www.w3.org/1999/xlink" contentScriptType="application/ecmascript" contentStyleType="text/css" height="117px" preserveAspectRatio="none" style="width:309px;height:117px;" version="1.1" viewBox="0 0 309 117" width="309px" zoomAndPan="magnify"><defs><filter height="300%" id="fckc260zi4c4j" width="300%" x="-1" y="-1"><feGaussianBlur result="blurOut" stdDeviation="2.0"/><feColorMatrix in="blurOut" result="blurOut2" type="matrix" values="0 0 0 0 0 0 0 0 0 0 0 0 0 0 0 0 0 0 .4 0"/><feOffset dx="4.0" dy="4.0" in="blurOut2" result="blurOut3"/><feBlend in="SourceGraphic" in2="blurOut3" mode="normal"/></filter></defs><g><!--MD5=[dbe48d91a55f8a1cb4edf124df700ef7]
class LastDetectedPositon--><rect fill="#FEFECE" filter="url(#fckc260zi4c4j)" height="99.2188" id="LastDetectedPositon" style="stroke: #A80036; stroke-width: 1.5;" width="291" x="7" y="7"/><ellipse cx="82.75" cy="23" fill="#ADD1B2" rx="11" ry="11" style="stroke: #A80036; stroke-width: 1.0;"/><path d="M85.7188,28.6406 Q85.1406,28.9375 84.5,29.0781 Q83.8594,29.2344 83.1563,29.2344 Q80.6563,29.2344 79.3281,27.5938 Q78.0156,25.9375 78.0156,22.8125 Q78.0156,19.6875 79.3281,18.0313 Q80.6563,16.375 83.1563,16.375 Q83.8594,16.375 84.5,16.5313 Q85.1563,16.6875 85.7188,16.9844 L85.7188,19.7031 Q85.0938,19.125 84.5,18.8594 Q83.9063,18.5781 83.2813,18.5781 Q81.9375,18.5781 81.25,19.6563 Q80.5625,20.7188 80.5625,22.8125 Q80.5625,24.9063 81.25,25.9844 Q81.9375,27.0469 83.2813,27.0469 Q83.9063,27.0469 84.5,26.7813 Q85.0938,26.5 85.7188,25.9219 L85.7188,28.6406 Z "/><text fill="#000000" font-family="sans-serif" font-size="12" lengthAdjust="spacingAndGlyphs" textLength="131" x="103.25" y="27.1543">LastDetectedPositon</text><line style="stroke: #A80036; stroke-width: 1.5;" x1="8" x2="297" y1="39" y2="39"/><ellipse cx="18" cy="50" fill="none" rx="3" ry="3" style="stroke: #038048; stroke-width: 1.0;"/><text fill="#000000" font-family="sans-serif" font-size="11" lengthAdjust="spacingAndGlyphs" textLength="141" x="27" y="53.2104">lastPosition : Vector3Int?</text><line style="stroke: #A80036; stroke-width: 1.5;" x1="8" x2="297" y1="59.8047" y2="59.8047"/><ellipse cx="18" cy="70.8047" fill="#84BE84" rx="3" ry="3" style="stroke: #038048; stroke-width: 1.0;"/><text fill="#000000" font-family="sans-serif" font-size="11" lengthAdjust="spacingAndGlyphs" textLength="142" x="27" y="74.0151">GetPosition() : Vector3Int</text><ellipse cx="18" cy="83.6094" fill="#84BE84" rx="3" ry="3" style="stroke: #038048; stroke-width: 1.0;"/><text fill="#000000" font-family="sans-serif" font-size="11" lengthAdjust="spacingAndGlyphs" textLength="265" x="27" y="86.8198">TryUpdatingPositon(tempPos:Vector3Int) : bool</text><ellipse cx="18" cy="96.4141" fill="#84BE84" rx="3" ry="3" style="stroke: #038048; stroke-width: 1.0;"/><text fill="#000000" font-family="sans-serif" font-size="11" lengthAdjust="spacingAndGlyphs" textLength="75" x="27" y="99.6245">Reset() : void</text><!--MD5=[6fa3c1585aa4ffb45013b1fa010a1067]
@startuml
class LastDetectedPositon {
    + lastPosition : Vector3Int?
    + GetPosition() : Vector3Int
    + TryUpdatingPositon(tempPos:Vector3Int) : bool
    + Reset() : void
}
@enduml

PlantUML version 1.2020.02(Sun Mar 01 10:22:07 GMT 2020)
(GPL source distribution)
Java Runtime: OpenJDK Runtime Environment
JVM: OpenJDK 64-Bit Server VM
Java Version: 11.0.9+11-Ubuntu-0ubuntu1
Operating System: Linux
Default Encoding: ANSI_X3.4-1968
Language: en
Country: US
--></g></svg>