<?xml version="1.0" encoding="UTF-8" standalone="no"?><svg xmlns="http://www.w3.org/2000/svg" xmlns:xlink="http://www.w3.org/1999/xlink" contentScriptType="application/ecmascript" contentStyleType="text/css" height="213px" preserveAspectRatio="none" style="width:1027px;height:213px;" version="1.1" viewBox="0 0 1027 213" width="1027px" zoomAndPan="magnify"><defs><filter height="300%" id="ftlu3xla3da4w" width="300%" x="-1" y="-1"><feGaussianBlur result="blurOut" stdDeviation="2.0"/><feColorMatrix in="blurOut" result="blurOut2" type="matrix" values="0 0 0 0 0 0 0 0 0 0 0 0 0 0 0 0 0 0 .4 0"/><feOffset dx="4.0" dy="4.0" in="blurOut2" result="blurOut3"/><feBlend in="SourceGraphic" in2="blurOut3" mode="normal"/></filter></defs><g><!--MD5=[b38038f6db88348d65be094a17b89727]
class NearWallPlacementStrategy--><rect fill="#FEFECE" filter="url(#ftlu3xla3da4w)" height="86.4141" id="NearWallPlacementStrategy" style="stroke: #A80036; stroke-width: 1.5;" width="1010" x="6" y="116"/><ellipse cx="419.75" cy="132" fill="#ADD1B2" rx="11" ry="11" style="stroke: #A80036; stroke-width: 1.0;"/><path d="M422.7188,137.6406 Q422.1406,137.9375 421.5,138.0781 Q420.8594,138.2344 420.1563,138.2344 Q417.6563,138.2344 416.3281,136.5938 Q415.0156,134.9375 415.0156,131.8125 Q415.0156,128.6875 416.3281,127.0313 Q417.6563,125.375 420.1563,125.375 Q420.8594,125.375 421.5,125.5313 Q422.1563,125.6875 422.7188,125.9844 L422.7188,128.7031 Q422.0938,128.125 421.5,127.8594 Q420.9063,127.5781 420.2813,127.5781 Q418.9375,127.5781 418.25,128.6563 Q417.5625,129.7188 417.5625,131.8125 Q417.5625,133.9063 418.25,134.9844 Q418.9375,136.0469 420.2813,136.0469 Q420.9063,136.0469 421.5,135.7813 Q422.0938,135.5 422.7188,134.9219 L422.7188,137.6406 Z "/><text fill="#000000" font-family="sans-serif" font-size="12" lengthAdjust="spacingAndGlyphs" textLength="174" x="440.25" y="136.1543">NearWallPlacementStrategy</text><line style="stroke: #A80036; stroke-width: 1.5;" x1="7" x2="1015" y1="148" y2="148"/><line style="stroke: #A80036; stroke-width: 1.5;" x1="7" x2="1015" y1="156" y2="156"/><ellipse cx="17" cy="167" fill="#84BE84" rx="3" ry="3" style="stroke: #038048; stroke-width: 1.0;"/><text fill="#000000" font-family="sans-serif" font-size="11" lengthAdjust="spacingAndGlyphs" textLength="984" x="26" y="170.2104">NearWallPlacementStrategy(placementData:PlacementGridData, wallPlacementData:PlacementGridData, inWallPlacementData:PlacementGridData, gridManager:GridManager)</text><ellipse cx="17" cy="179.8047" fill="#84BE84" rx="3" ry="3" style="stroke: #038048; stroke-width: 1.0;"/><text fill="#000000" font-family="sans-serif" font-size="11" lengthAdjust="spacingAndGlyphs" textLength="495" x="26" y="183.0151">«override» ModifySelection(mousePosition:Vector3, selectionData:SelectionData) : bool</text><ellipse cx="17" cy="192.6094" fill="#84BE84" rx="3" ry="3" style="stroke: #038048; stroke-width: 1.0;"/><text fill="#000000" font-family="sans-serif" font-size="11" lengthAdjust="spacingAndGlyphs" textLength="511" x="26" y="195.8198">«override» HandleRotation(rotation:Quaternion, selectionData:SelectionData) : Quaternion</text><!--MD5=[100bce6b154cfb57161bb3b2f68d3110]
class FreeObjectPlacementStrategy--><rect fill="#FEFECE" filter="url(#ftlu3xla3da4w)" height="48" id="FreeObjectPlacementStrategy" style="stroke: #A80036; stroke-width: 1.5;" width="219" x="401.5" y="8"/><ellipse cx="416.5" cy="24" fill="#ADD1B2" rx="11" ry="11" style="stroke: #A80036; stroke-width: 1.0;"/><path d="M419.4688,29.6406 Q418.8906,29.9375 418.25,30.0781 Q417.6094,30.2344 416.9063,30.2344 Q414.4063,30.2344 413.0781,28.5938 Q411.7656,26.9375 411.7656,23.8125 Q411.7656,20.6875 413.0781,19.0313 Q414.4063,17.375 416.9063,17.375 Q417.6094,17.375 418.25,17.5313 Q418.9063,17.6875 419.4688,17.9844 L419.4688,20.7031 Q418.8438,20.125 418.25,19.8594 Q417.6563,19.5781 417.0313,19.5781 Q415.6875,19.5781 415,20.6563 Q414.3125,21.7188 414.3125,23.8125 Q414.3125,25.9063 415,26.9844 Q415.6875,28.0469 417.0313,28.0469 Q417.6563,28.0469 418.25,27.7813 Q418.8438,27.5 419.4688,26.9219 L419.4688,29.6406 Z "/><text fill="#000000" font-family="sans-serif" font-size="12" lengthAdjust="spacingAndGlyphs" textLength="187" x="430.5" y="28.1543">FreeObjectPlacementStrategy</text><line style="stroke: #A80036; stroke-width: 1.5;" x1="402.5" x2="619.5" y1="40" y2="40"/><line style="stroke: #A80036; stroke-width: 1.5;" x1="402.5" x2="619.5" y1="48" y2="48"/><!--MD5=[3a5e2d0979053a2ff5918d8af8ba96cd]
reverse link FreeObjectPlacementStrategy to NearWallPlacementStrategy--><path d="M511,76.27 C511,89.12 511,103.17 511,115.94 " fill="none" id="FreeObjectPlacementStrategy&lt;-NearWallPlacementStrategy" style="stroke: #A80036; stroke-width: 1.0;"/><polygon fill="none" points="504,76.22,511,56.22,518,76.22,504,76.22" style="stroke: #A80036; stroke-width: 1.0;"/><!--MD5=[dbb6efb746a0542260789597fdd8414f]
@startuml
class NearWallPlacementStrategy {
    + NearWallPlacementStrategy(placementData:PlacementGridData, wallPlacementData:PlacementGridData, inWallPlacementData:PlacementGridData, gridManager:GridManager)
    + <<override>> ModifySelection(mousePosition:Vector3, selectionData:SelectionData) : bool
    + <<override>> HandleRotation(rotation:Quaternion, selectionData:SelectionData) : Quaternion
}
FreeObjectPlacementStrategy <|- - NearWallPlacementStrategy
@enduml

PlantUML version 1.2020.02(Sun Mar 01 10:22:07 GMT 2020)
(GPL source distribution)
Java Runtime: OpenJDK Runtime Environment
JVM: OpenJDK 64-Bit Server VM
Java Version: 11.0.9+11-Ubuntu-0ubuntu1
Operating System: Linux
Default Encoding: ANSI_X3.4-1968
Language: en
Country: US
--></g></svg>