<?xml version="1.0" encoding="UTF-8" standalone="no"?><svg xmlns="http://www.w3.org/2000/svg" xmlns:xlink="http://www.w3.org/1999/xlink" contentScriptType="application/ecmascript" contentStyleType="text/css" height="187px" preserveAspectRatio="none" style="width:1003px;height:187px;" version="1.1" viewBox="0 0 1003 187" width="1003px" zoomAndPan="magnify"><defs><filter height="300%" id="f137rcc9rkh0t0" width="300%" x="-1" y="-1"><feGaussianBlur result="blurOut" stdDeviation="2.0"/><feColorMatrix in="blurOut" result="blurOut2" type="matrix" values="0 0 0 0 0 0 0 0 0 0 0 0 0 0 0 0 0 0 .4 0"/><feOffset dx="4.0" dy="4.0" in="blurOut2" result="blurOut3"/><feBlend in="SourceGraphic" in2="blurOut3" mode="normal"/></filter></defs><g><!--MD5=[e6531e4485546c5497179a03da2e7143]
class ObjectRemovalStrategy--><rect fill="#FEFECE" filter="url(#f137rcc9rkh0t0)" height="60.8047" id="ObjectRemovalStrategy" style="stroke: #A80036; stroke-width: 1.5;" width="986" x="6" y="116"/><ellipse cx="422.25" cy="132" fill="#ADD1B2" rx="11" ry="11" style="stroke: #A80036; stroke-width: 1.0;"/><path d="M425.2188,137.6406 Q424.6406,137.9375 424,138.0781 Q423.3594,138.2344 422.6563,138.2344 Q420.1563,138.2344 418.8281,136.5938 Q417.5156,134.9375 417.5156,131.8125 Q417.5156,128.6875 418.8281,127.0313 Q420.1563,125.375 422.6563,125.375 Q423.3594,125.375 424,125.5313 Q424.6563,125.6875 425.2188,125.9844 L425.2188,128.7031 Q424.5938,128.125 424,127.8594 Q423.4063,127.5781 422.7813,127.5781 Q421.4375,127.5781 420.75,128.6563 Q420.0625,129.7188 420.0625,131.8125 Q420.0625,133.9063 420.75,134.9844 Q421.4375,136.0469 422.7813,136.0469 Q423.4063,136.0469 424,135.7813 Q424.5938,135.5 425.2188,134.9219 L425.2188,137.6406 Z "/><text fill="#000000" font-family="sans-serif" font-size="12" lengthAdjust="spacingAndGlyphs" textLength="145" x="442.75" y="136.1543">ObjectRemovalStrategy</text><line style="stroke: #A80036; stroke-width: 1.5;" x1="7" x2="991" y1="148" y2="148"/><line style="stroke: #A80036; stroke-width: 1.5;" x1="7" x2="991" y1="156" y2="156"/><ellipse cx="17" cy="167" fill="#84BE84" rx="3" ry="3" style="stroke: #038048; stroke-width: 1.0;"/><text fill="#000000" font-family="sans-serif" font-size="11" lengthAdjust="spacingAndGlyphs" textLength="960" x="26" y="170.2104">ObjectRemovalStrategy(placementData:PlacementGridData, wallPlacementData:PlacementGridData, inWallPlacementData:PlacementGridData, gridManager:GridManager)</text><!--MD5=[100bce6b154cfb57161bb3b2f68d3110]
class FreeObjectPlacementStrategy--><rect fill="#FEFECE" filter="url(#f137rcc9rkh0t0)" height="48" id="FreeObjectPlacementStrategy" style="stroke: #A80036; stroke-width: 1.5;" width="219" x="389.5" y="8"/><ellipse cx="404.5" cy="24" fill="#ADD1B2" rx="11" ry="11" style="stroke: #A80036; stroke-width: 1.0;"/><path d="M407.4688,29.6406 Q406.8906,29.9375 406.25,30.0781 Q405.6094,30.2344 404.9063,30.2344 Q402.4063,30.2344 401.0781,28.5938 Q399.7656,26.9375 399.7656,23.8125 Q399.7656,20.6875 401.0781,19.0313 Q402.4063,17.375 404.9063,17.375 Q405.6094,17.375 406.25,17.5313 Q406.9063,17.6875 407.4688,17.9844 L407.4688,20.7031 Q406.8438,20.125 406.25,19.8594 Q405.6563,19.5781 405.0313,19.5781 Q403.6875,19.5781 403,20.6563 Q402.3125,21.7188 402.3125,23.8125 Q402.3125,25.9063 403,26.9844 Q403.6875,28.0469 405.0313,28.0469 Q405.6563,28.0469 406.25,27.7813 Q406.8438,27.5 407.4688,26.9219 L407.4688,29.6406 Z "/><text fill="#000000" font-family="sans-serif" font-size="12" lengthAdjust="spacingAndGlyphs" textLength="187" x="418.5" y="28.1543">FreeObjectPlacementStrategy</text><line style="stroke: #A80036; stroke-width: 1.5;" x1="390.5" x2="607.5" y1="40" y2="40"/><line style="stroke: #A80036; stroke-width: 1.5;" x1="390.5" x2="607.5" y1="48" y2="48"/><!--MD5=[064c38c40d59cab2b96cdd6d0ef8e261]
reverse link FreeObjectPlacementStrategy to ObjectRemovalStrategy--><path d="M499,76.11 C499,89.31 499,103.54 499,115.65 " fill="none" id="FreeObjectPlacementStrategy&lt;-ObjectRemovalStrategy" style="stroke: #A80036; stroke-width: 1.0;"/><polygon fill="none" points="492,76.04,499,56.04,506,76.04,492,76.04" style="stroke: #A80036; stroke-width: 1.0;"/><!--MD5=[2653c1351c622e6cd1212230b34f81b6]
@startuml
class ObjectRemovalStrategy {
    + ObjectRemovalStrategy(placementData:PlacementGridData, wallPlacementData:PlacementGridData, inWallPlacementData:PlacementGridData, gridManager:GridManager)
}
FreeObjectPlacementStrategy <|- - ObjectRemovalStrategy
@enduml

PlantUML version 1.2020.02(Sun Mar 01 10:22:07 GMT 2020)
(GPL source distribution)
Java Runtime: OpenJDK Runtime Environment
JVM: OpenJDK 64-Bit Server VM
Java Version: 11.0.9+11-Ubuntu-0ubuntu1
Operating System: Linux
Default Encoding: ANSI_X3.4-1968
Language: en
Country: US
--></g></svg>