<?xml version="1.0" encoding="UTF-8" standalone="no"?><svg xmlns="http://www.w3.org/2000/svg" xmlns:xlink="http://www.w3.org/1999/xlink" contentScriptType="application/ecmascript" contentStyleType="text/css" height="213px" preserveAspectRatio="none" style="width:739px;height:213px;" version="1.1" viewBox="0 0 739 213" width="739px" zoomAndPan="magnify"><defs><filter height="300%" id="fycjhjbiockqk" width="300%" x="-1" y="-1"><feGaussianBlur result="blurOut" stdDeviation="2.0"/><feColorMatrix in="blurOut" result="blurOut2" type="matrix" values="0 0 0 0 0 0 0 0 0 0 0 0 0 0 0 0 0 0 .4 0"/><feOffset dx="4.0" dy="4.0" in="blurOut2" result="blurOut3"/><feBlend in="SourceGraphic" in2="blurOut3" mode="normal"/></filter></defs><g><!--MD5=[ef2e484eedc16d80ef504c2fe5722184]
class PlacedCellObjectData--><rect fill="#FEFECE" filter="url(#fycjhjbiockqk)" height="86.4141" id="PlacedCellObjectData" style="stroke: #A80036; stroke-width: 1.5;" width="722" x="6" y="8"/><ellipse cx="295.75" cy="24" fill="#ADD1B2" rx="11" ry="11" style="stroke: #A80036; stroke-width: 1.0;"/><path d="M298.7188,29.6406 Q298.1406,29.9375 297.5,30.0781 Q296.8594,30.2344 296.1563,30.2344 Q293.6563,30.2344 292.3281,28.5938 Q291.0156,26.9375 291.0156,23.8125 Q291.0156,20.6875 292.3281,19.0313 Q293.6563,17.375 296.1563,17.375 Q296.8594,17.375 297.5,17.5313 Q298.1563,17.6875 298.7188,17.9844 L298.7188,20.7031 Q298.0938,20.125 297.5,19.8594 Q296.9063,19.5781 296.2813,19.5781 Q294.9375,19.5781 294.25,20.6563 Q293.5625,21.7188 293.5625,23.8125 Q293.5625,25.9063 294.25,26.9844 Q294.9375,28.0469 296.2813,28.0469 Q296.9063,28.0469 297.5,27.7813 Q298.0938,27.5 298.7188,26.9219 L298.7188,29.6406 Z "/><text fill="#000000" font-family="sans-serif" font-size="12" lengthAdjust="spacingAndGlyphs" textLength="134" x="316.25" y="28.1543">PlacedCellObjectData</text><line style="stroke: #A80036; stroke-width: 1.5;" x1="7" x2="727" y1="40" y2="40"/><ellipse cx="17" cy="51" fill="none" rx="3" ry="3" style="stroke: #038048; stroke-width: 1.0;"/><text fill="#000000" font-family="sans-serif" font-size="11" lengthAdjust="spacingAndGlyphs" textLength="124" x="26" y="54.2104">gameObjectIndex : int</text><ellipse cx="17" cy="63.8047" fill="none" rx="3" ry="3" style="stroke: #038048; stroke-width: 1.0;"/><text fill="#000000" font-family="sans-serif" font-size="11" lengthAdjust="spacingAndGlyphs" textLength="89" x="26" y="67.0151">structureID : int</text><line style="stroke: #A80036; stroke-width: 1.5;" x1="7" x2="727" y1="73.6094" y2="73.6094"/><ellipse cx="17" cy="84.6094" fill="#84BE84" rx="3" ry="3" style="stroke: #038048; stroke-width: 1.0;"/><text fill="#000000" font-family="sans-serif" font-size="11" lengthAdjust="spacingAndGlyphs" textLength="696" x="26" y="87.8198">PlacedCellObjectData(gameObjectIndex:int, structureID:int, positionsOccupied:IEnumerable&lt;Vector3Int&gt;, origin:Vector3Int)</text><!--MD5=[6fcf91f8cf9ffbe80305b00d1b111ce3]
class IEnumerable`1--><rect fill="#FEFECE" filter="url(#fycjhjbiockqk)" height="48" id="IEnumerable`1" style="stroke: #A80036; stroke-width: 1.5;" width="135" x="224.5" y="154"/><ellipse cx="239.5" cy="170" fill="#ADD1B2" rx="11" ry="11" style="stroke: #A80036; stroke-width: 1.0;"/><path d="M242.4688,175.6406 Q241.8906,175.9375 241.25,176.0781 Q240.6094,176.2344 239.9063,176.2344 Q237.4063,176.2344 236.0781,174.5938 Q234.7656,172.9375 234.7656,169.8125 Q234.7656,166.6875 236.0781,165.0313 Q237.4063,163.375 239.9063,163.375 Q240.6094,163.375 241.25,163.5313 Q241.9063,163.6875 242.4688,163.9844 L242.4688,166.7031 Q241.8438,166.125 241.25,165.8594 Q240.6563,165.5781 240.0313,165.5781 Q238.6875,165.5781 238,166.6563 Q237.3125,167.7188 237.3125,169.8125 Q237.3125,171.9063 238,172.9844 Q238.6875,174.0469 240.0313,174.0469 Q240.6563,174.0469 241.25,173.7813 Q241.8438,173.5 242.4688,172.9219 L242.4688,175.6406 Z "/><text fill="#000000" font-family="sans-serif" font-size="12" lengthAdjust="spacingAndGlyphs" textLength="92" x="253.5" y="174.1543">IEnumerable`1</text><rect fill="#FFFFFF" height="15.9688" style="stroke: #000000; stroke-width: 1.0; stroke-dasharray: 2.0,2.0;" width="9" x="353.5" y="151"/><text fill="#000000" font-family="sans-serif" font-size="12" font-style="italic" lengthAdjust="spacingAndGlyphs" textLength="7" x="354.5" y="163.1387">T</text><line style="stroke: #A80036; stroke-width: 1.5;" x1="225.5" x2="358.5" y1="186" y2="186"/><line style="stroke: #A80036; stroke-width: 1.5;" x1="225.5" x2="358.5" y1="194" y2="194"/><!--MD5=[b82851eba8b96963309b8de495357535]
class Vector3Int--><rect fill="#FEFECE" filter="url(#fycjhjbiockqk)" height="48" id="Vector3Int" style="stroke: #A80036; stroke-width: 1.5;" width="97" x="394.5" y="154"/><ellipse cx="409.5" cy="170" fill="#ADD1B2" rx="11" ry="11" style="stroke: #A80036; stroke-width: 1.0;"/><path d="M412.4688,175.6406 Q411.8906,175.9375 411.25,176.0781 Q410.6094,176.2344 409.9063,176.2344 Q407.4063,176.2344 406.0781,174.5938 Q404.7656,172.9375 404.7656,169.8125 Q404.7656,166.6875 406.0781,165.0313 Q407.4063,163.375 409.9063,163.375 Q410.6094,163.375 411.25,163.5313 Q411.9063,163.6875 412.4688,163.9844 L412.4688,166.7031 Q411.8438,166.125 411.25,165.8594 Q410.6563,165.5781 410.0313,165.5781 Q408.6875,165.5781 408,166.6563 Q407.3125,167.7188 407.3125,169.8125 Q407.3125,171.9063 408,172.9844 Q408.6875,174.0469 410.0313,174.0469 Q410.6563,174.0469 411.25,173.7813 Q411.8438,173.5 412.4688,172.9219 L412.4688,175.6406 Z "/><text fill="#000000" font-family="sans-serif" font-size="12" lengthAdjust="spacingAndGlyphs" textLength="65" x="423.5" y="174.1543">Vector3Int</text><line style="stroke: #A80036; stroke-width: 1.5;" x1="395.5" x2="490.5" y1="186" y2="186"/><line style="stroke: #A80036; stroke-width: 1.5;" x1="395.5" x2="490.5" y1="194" y2="194"/><!--MD5=[f5c6c51d21613e7fcee96c8aa93fb504]
link PlacedCellObjectData to IEnumerable`1--><path d="M341.61,94.32 C330.73,112.45 318.33,133.11 308.65,149.25 " fill="none" id="PlacedCellObjectData-&gt;IEnumerable`1" style="stroke: #A80036; stroke-width: 1.0;"/><polygon fill="#A80036" points="306,153.67,314.0604,148.0105,308.5725,149.3825,307.2005,143.8946,306,153.67" style="stroke: #A80036; stroke-width: 1.0;"/><text fill="#000000" font-family="sans-serif" font-size="13" lengthAdjust="spacingAndGlyphs" textLength="204" x="80.55" y="142.9945">PositionsOccupied&lt;Vector3Int&gt;</text><!--MD5=[e38e3ed0d172cc8d4492b7a15825c87e]
link PlacedCellObjectData to Vector3Int--><path d="M392.73,94.32 C403.75,112.45 416.32,133.11 426.13,149.25 " fill="none" id="PlacedCellObjectData-&gt;Vector3Int" style="stroke: #A80036; stroke-width: 1.0;"/><polygon fill="#A80036" points="428.82,153.67,427.5573,143.9024,426.2203,149.399,420.7237,148.062,428.82,153.67" style="stroke: #A80036; stroke-width: 1.0;"/><text fill="#000000" font-family="sans-serif" font-size="13" lengthAdjust="spacingAndGlyphs" textLength="35" x="386.098" y="142.9945">origin</text><!--MD5=[d63d25069e4332e19fa78fc3e647af4c]
@startuml
class PlacedCellObjectData {
    + gameObjectIndex : int
    + structureID : int
    + PlacedCellObjectData(gameObjectIndex:int, structureID:int, positionsOccupied:IEnumerable<Vector3Int>, origin:Vector3Int)
}
class "IEnumerable`1"<T> {
}
PlacedCellObjectData - -> "PositionsOccupied<Vector3Int>" "IEnumerable`1"
PlacedCellObjectData - -> "origin" Vector3Int
@enduml

PlantUML version 1.2020.02(Sun Mar 01 10:22:07 GMT 2020)
(GPL source distribution)
Java Runtime: OpenJDK Runtime Environment
JVM: OpenJDK 64-Bit Server VM
Java Version: 11.0.9+11-Ubuntu-0ubuntu1
Operating System: Linux
Default Encoding: ANSI_X3.4-1968
Language: en
Country: US
--></g></svg>