<?xml version="1.0" encoding="UTF-8" standalone="no"?><svg xmlns="http://www.w3.org/2000/svg" xmlns:xlink="http://www.w3.org/1999/xlink" contentScriptType="application/ecmascript" contentStyleType="text/css" height="424px" preserveAspectRatio="none" style="width:1283px;height:424px;" version="1.1" viewBox="0 0 1283 424" width="1283px" zoomAndPan="magnify"><defs><filter height="300%" id="f1op0jsbpmhmo2" width="300%" x="-1" y="-1"><feGaussianBlur result="blurOut" stdDeviation="2.0"/><feColorMatrix in="blurOut" result="blurOut2" type="matrix" values="0 0 0 0 0 0 0 0 0 0 0 0 0 0 0 0 0 0 .4 0"/><feOffset dx="4.0" dy="4.0" in="blurOut2" result="blurOut3"/><feBlend in="SourceGraphic" in2="blurOut3" mode="normal"/></filter></defs><g><!--MD5=[282337bcbda18824f247f7d826f8d128]
class PlacementManager--><rect fill="#FEFECE" filter="url(#f1op0jsbpmhmo2)" height="188.8516" id="PlacementManager" style="stroke: #A80036; stroke-width: 1.5;" width="660" x="279.5" y="116"/><ellipse cx="544.75" cy="132" fill="#ADD1B2" rx="11" ry="11" style="stroke: #A80036; stroke-width: 1.0;"/><path d="M547.7188,137.6406 Q547.1406,137.9375 546.5,138.0781 Q545.8594,138.2344 545.1563,138.2344 Q542.6563,138.2344 541.3281,136.5938 Q540.0156,134.9375 540.0156,131.8125 Q540.0156,128.6875 541.3281,127.0313 Q542.6563,125.375 545.1563,125.375 Q545.8594,125.375 546.5,125.5313 Q547.1563,125.6875 547.7188,125.9844 L547.7188,128.7031 Q547.0938,128.125 546.5,127.8594 Q545.9063,127.5781 545.2813,127.5781 Q543.9375,127.5781 543.25,128.6563 Q542.5625,129.7188 542.5625,131.8125 Q542.5625,133.9063 543.25,134.9844 Q543.9375,136.0469 545.2813,136.0469 Q545.9063,136.0469 546.5,135.7813 Q547.0938,135.5 547.7188,134.9219 L547.7188,137.6406 Z "/><text fill="#000000" font-family="sans-serif" font-size="12" lengthAdjust="spacingAndGlyphs" textLength="121" x="565.25" y="136.1543">PlacementManager</text><line style="stroke: #A80036; stroke-width: 1.5;" x1="280.5" x2="938.5" y1="148" y2="148"/><text fill="#000000" font-family="sans-serif" font-size="11" lengthAdjust="spacingAndGlyphs" textLength="169" x="285.5" y="162.2104">previousPosition : Vector3Int?</text><line style="stroke: #A80036; stroke-width: 1.5;" x1="280.5" x2="938.5" y1="168.8047" y2="168.8047"/><ellipse cx="290.5" cy="179.8047" fill="#84BE84" rx="3" ry="3" style="stroke: #038048; stroke-width: 1.0;"/><text fill="#000000" font-family="sans-serif" font-size="11" lengthAdjust="spacingAndGlyphs" textLength="175" x="299.5" y="183.0151">StartPlacingObject(id:int) : void</text><ellipse cx="290.5" cy="192.6094" fill="#84BE84" rx="3" ry="3" style="stroke: #038048; stroke-width: 1.0;"/><text fill="#000000" font-family="sans-serif" font-size="11" lengthAdjust="spacingAndGlyphs" textLength="329" x="299.5" y="195.8198">TryRemovingObject(selectionResult:SelectionResult) : void</text><ellipse cx="290.5" cy="205.4141" fill="#84BE84" rx="3" ry="3" style="stroke: #038048; stroke-width: 1.0;"/><text fill="#000000" font-family="sans-serif" font-size="11" lengthAdjust="spacingAndGlyphs" textLength="173" x="299.5" y="208.6245">TryUndoLastPlacement() : void</text><ellipse cx="290.5" cy="218.2188" fill="#84BE84" rx="3" ry="3" style="stroke: #038048; stroke-width: 1.0;"/><text fill="#000000" font-family="sans-serif" font-size="11" lengthAdjust="spacingAndGlyphs" textLength="111" x="299.5" y="221.4292">CancelState() : void</text><ellipse cx="290.5" cy="231.0234" fill="#84BE84" rx="3" ry="3" style="stroke: #038048; stroke-width: 1.0;"/><text fill="#000000" font-family="sans-serif" font-size="11" lengthAdjust="spacingAndGlyphs" textLength="634" x="299.5" y="234.2339">PlaceStructureAt(selectionResult:SelectionResult, placementData:PlacementGridData, itemData:ItemData) : void</text><ellipse cx="290.5" cy="243.8281" fill="#84BE84" rx="3" ry="3" style="stroke: #038048; stroke-width: 1.0;"/><text fill="#000000" font-family="sans-serif" font-size="11" lengthAdjust="spacingAndGlyphs" textLength="535" x="299.5" y="247.0386">RemoveStructureAt(selectionResult:SelectionResult, placementData:PlacementGridData) : void</text><text fill="#000000" font-family="sans-serif" font-size="11" lengthAdjust="spacingAndGlyphs" textLength="83" x="299.5" y="259.8433">Update() : void</text><ellipse cx="290.5" cy="269.4375" fill="#84BE84" rx="3" ry="3" style="stroke: #038048; stroke-width: 1.0;"/><text fill="#000000" font-family="sans-serif" font-size="11" lengthAdjust="spacingAndGlyphs" textLength="147" x="299.5" y="272.6479">HandleMoveObject() : void</text><text fill="#000000" font-family="sans-serif" font-size="11" lengthAdjust="spacingAndGlyphs" textLength="97" x="299.5" y="285.4526">SaveData() : void</text><text fill="#000000" font-family="sans-serif" font-size="11" lengthAdjust="spacingAndGlyphs" textLength="96" x="299.5" y="298.2573">LoadData() : void</text><!--MD5=[75f1770188bed72f5adae599261d97dc]
class HashSet`1--><rect fill="#FEFECE" filter="url(#f1op0jsbpmhmo2)" height="48" id="HashSet`1" style="stroke: #A80036; stroke-width: 1.5;" width="110" x="1159.5" y="186.5"/><ellipse cx="1174.5" cy="202.5" fill="#ADD1B2" rx="11" ry="11" style="stroke: #A80036; stroke-width: 1.0;"/><path d="M1177.4688,208.1406 Q1176.8906,208.4375 1176.25,208.5781 Q1175.6094,208.7344 1174.9063,208.7344 Q1172.4063,208.7344 1171.0781,207.0938 Q1169.7656,205.4375 1169.7656,202.3125 Q1169.7656,199.1875 1171.0781,197.5313 Q1172.4063,195.875 1174.9063,195.875 Q1175.6094,195.875 1176.25,196.0313 Q1176.9063,196.1875 1177.4688,196.4844 L1177.4688,199.2031 Q1176.8438,198.625 1176.25,198.3594 Q1175.6563,198.0781 1175.0313,198.0781 Q1173.6875,198.0781 1173,199.1563 Q1172.3125,200.2188 1172.3125,202.3125 Q1172.3125,204.4063 1173,205.4844 Q1173.6875,206.5469 1175.0313,206.5469 Q1175.6563,206.5469 1176.25,206.2813 Q1176.8438,206 1177.4688,205.4219 L1177.4688,208.1406 Z "/><text fill="#000000" font-family="sans-serif" font-size="12" lengthAdjust="spacingAndGlyphs" textLength="67" x="1188.5" y="206.6543">HashSet`1</text><rect fill="#FFFFFF" height="15.9688" style="stroke: #000000; stroke-width: 1.0; stroke-dasharray: 2.0,2.0;" width="9" x="1263.5" y="183.5"/><text fill="#000000" font-family="sans-serif" font-size="12" font-style="italic" lengthAdjust="spacingAndGlyphs" textLength="7" x="1264.5" y="195.6387">T</text><line style="stroke: #A80036; stroke-width: 1.5;" x1="1160.5" x2="1268.5" y1="218.5" y2="218.5"/><line style="stroke: #A80036; stroke-width: 1.5;" x1="1160.5" x2="1268.5" y1="226.5" y2="226.5"/><!--MD5=[3db59899eb5beb210f00fd86984190c5]
class UnityEvent`1--><rect fill="#FEFECE" filter="url(#f1op0jsbpmhmo2)" height="48" id="UnityEvent`1" style="stroke: #A80036; stroke-width: 1.5;" width="123" x="6" y="365"/><ellipse cx="21" cy="381" fill="#ADD1B2" rx="11" ry="11" style="stroke: #A80036; stroke-width: 1.0;"/><path d="M23.9688,386.6406 Q23.3906,386.9375 22.75,387.0781 Q22.1094,387.2344 21.4063,387.2344 Q18.9063,387.2344 17.5781,385.5938 Q16.2656,383.9375 16.2656,380.8125 Q16.2656,377.6875 17.5781,376.0313 Q18.9063,374.375 21.4063,374.375 Q22.1094,374.375 22.75,374.5313 Q23.4063,374.6875 23.9688,374.9844 L23.9688,377.7031 Q23.3438,377.125 22.75,376.8594 Q22.1563,376.5781 21.5313,376.5781 Q20.1875,376.5781 19.5,377.6563 Q18.8125,378.7188 18.8125,380.8125 Q18.8125,382.9063 19.5,383.9844 Q20.1875,385.0469 21.5313,385.0469 Q22.1563,385.0469 22.75,384.7813 Q23.3438,384.5 23.9688,383.9219 L23.9688,386.6406 Z "/><text fill="#000000" font-family="sans-serif" font-size="12" lengthAdjust="spacingAndGlyphs" textLength="80" x="35" y="385.1543">UnityEvent`1</text><rect fill="#FFFFFF" height="15.9688" style="stroke: #000000; stroke-width: 1.0; stroke-dasharray: 2.0,2.0;" width="9" x="123" y="362"/><text fill="#000000" font-family="sans-serif" font-size="12" font-style="italic" lengthAdjust="spacingAndGlyphs" textLength="7" x="124" y="374.1387">T</text><line style="stroke: #A80036; stroke-width: 1.5;" x1="7" x2="128" y1="397" y2="397"/><line style="stroke: #A80036; stroke-width: 1.5;" x1="7" x2="128" y1="405" y2="405"/><!--MD5=[83b3cf3d23d77c6f1e1b5291a241bc2a]
class MonoBehaviour--><rect fill="#FEFECE" filter="url(#f1op0jsbpmhmo2)" height="48" id="MonoBehaviour" style="stroke: #A80036; stroke-width: 1.5;" width="128" x="545.5" y="8"/><ellipse cx="560.5" cy="24" fill="#ADD1B2" rx="11" ry="11" style="stroke: #A80036; stroke-width: 1.0;"/><path d="M563.4688,29.6406 Q562.8906,29.9375 562.25,30.0781 Q561.6094,30.2344 560.9063,30.2344 Q558.4063,30.2344 557.0781,28.5938 Q555.7656,26.9375 555.7656,23.8125 Q555.7656,20.6875 557.0781,19.0313 Q558.4063,17.375 560.9063,17.375 Q561.6094,17.375 562.25,17.5313 Q562.9063,17.6875 563.4688,17.9844 L563.4688,20.7031 Q562.8438,20.125 562.25,19.8594 Q561.6563,19.5781 561.0313,19.5781 Q559.6875,19.5781 559,20.6563 Q558.3125,21.7188 558.3125,23.8125 Q558.3125,25.9063 559,26.9844 Q559.6875,28.0469 561.0313,28.0469 Q561.6563,28.0469 562.25,27.7813 Q562.8438,27.5 563.4688,26.9219 L563.4688,29.6406 Z "/><text fill="#000000" font-family="sans-serif" font-size="12" lengthAdjust="spacingAndGlyphs" textLength="96" x="574.5" y="28.1543">MonoBehaviour</text><line style="stroke: #A80036; stroke-width: 1.5;" x1="546.5" x2="672.5" y1="40" y2="40"/><line style="stroke: #A80036; stroke-width: 1.5;" x1="546.5" x2="672.5" y1="48" y2="48"/><!--MD5=[c1f8e17d83d5d6a6ca17c065171989b6]
class CommandManager--><rect fill="#FEFECE" filter="url(#f1op0jsbpmhmo2)" height="48" id="CommandManager" style="stroke: #A80036; stroke-width: 1.5;" width="149" x="975" y="186.5"/><ellipse cx="990" cy="202.5" fill="#ADD1B2" rx="11" ry="11" style="stroke: #A80036; stroke-width: 1.0;"/><path d="M992.9688,208.1406 Q992.3906,208.4375 991.75,208.5781 Q991.1094,208.7344 990.4063,208.7344 Q987.9063,208.7344 986.5781,207.0938 Q985.2656,205.4375 985.2656,202.3125 Q985.2656,199.1875 986.5781,197.5313 Q987.9063,195.875 990.4063,195.875 Q991.1094,195.875 991.75,196.0313 Q992.4063,196.1875 992.9688,196.4844 L992.9688,199.2031 Q992.3438,198.625 991.75,198.3594 Q991.1563,198.0781 990.5313,198.0781 Q989.1875,198.0781 988.5,199.1563 Q987.8125,200.2188 987.8125,202.3125 Q987.8125,204.4063 988.5,205.4844 Q989.1875,206.5469 990.5313,206.5469 Q991.1563,206.5469 991.75,206.2813 Q992.3438,206 992.9688,205.4219 L992.9688,208.1406 Z "/><text fill="#000000" font-family="sans-serif" font-size="12" lengthAdjust="spacingAndGlyphs" textLength="117" x="1004" y="206.6543">CommandManager</text><line style="stroke: #A80036; stroke-width: 1.5;" x1="976" x2="1123" y1="218.5" y2="218.5"/><line style="stroke: #A80036; stroke-width: 1.5;" x1="976" x2="1123" y1="226.5" y2="226.5"/><!--MD5=[135e7d6c733bf78c8ec9bc2aad8ab8ab]
class GridData--><rect fill="#FEFECE" filter="url(#f1op0jsbpmhmo2)" height="48" id="GridData" style="stroke: #A80036; stroke-width: 1.5;" width="87" x="164" y="365"/><ellipse cx="179" cy="381" fill="#ADD1B2" rx="11" ry="11" style="stroke: #A80036; stroke-width: 1.0;"/><path d="M181.9688,386.6406 Q181.3906,386.9375 180.75,387.0781 Q180.1094,387.2344 179.4063,387.2344 Q176.9063,387.2344 175.5781,385.5938 Q174.2656,383.9375 174.2656,380.8125 Q174.2656,377.6875 175.5781,376.0313 Q176.9063,374.375 179.4063,374.375 Q180.1094,374.375 180.75,374.5313 Q181.4063,374.6875 181.9688,374.9844 L181.9688,377.7031 Q181.3438,377.125 180.75,376.8594 Q180.1563,376.5781 179.5313,376.5781 Q178.1875,376.5781 177.5,377.6563 Q176.8125,378.7188 176.8125,380.8125 Q176.8125,382.9063 177.5,383.9844 Q178.1875,385.0469 179.5313,385.0469 Q180.1563,385.0469 180.75,384.7813 Q181.3438,384.5 181.9688,383.9219 L181.9688,386.6406 Z "/><text fill="#000000" font-family="sans-serif" font-size="12" lengthAdjust="spacingAndGlyphs" textLength="55" x="193" y="385.1543">GridData</text><line style="stroke: #A80036; stroke-width: 1.5;" x1="165" x2="250" y1="397" y2="397"/><line style="stroke: #A80036; stroke-width: 1.5;" x1="165" x2="250" y1="405" y2="405"/><!--MD5=[9f3fcd8bc4efc713d6f54d260476c26d]
class ItemData--><rect fill="#FEFECE" filter="url(#f1op0jsbpmhmo2)" height="48" id="ItemData" style="stroke: #A80036; stroke-width: 1.5;" width="89" x="286" y="365"/><ellipse cx="301" cy="381" fill="#ADD1B2" rx="11" ry="11" style="stroke: #A80036; stroke-width: 1.0;"/><path d="M303.9688,386.6406 Q303.3906,386.9375 302.75,387.0781 Q302.1094,387.2344 301.4063,387.2344 Q298.9063,387.2344 297.5781,385.5938 Q296.2656,383.9375 296.2656,380.8125 Q296.2656,377.6875 297.5781,376.0313 Q298.9063,374.375 301.4063,374.375 Q302.1094,374.375 302.75,374.5313 Q303.4063,374.6875 303.9688,374.9844 L303.9688,377.7031 Q303.3438,377.125 302.75,376.8594 Q302.1563,376.5781 301.5313,376.5781 Q300.1875,376.5781 299.5,377.6563 Q298.8125,378.7188 298.8125,380.8125 Q298.8125,382.9063 299.5,383.9844 Q300.1875,385.0469 301.5313,385.0469 Q302.1563,385.0469 302.75,384.7813 Q303.3438,384.5 303.9688,383.9219 L303.9688,386.6406 Z "/><text fill="#000000" font-family="sans-serif" font-size="12" lengthAdjust="spacingAndGlyphs" textLength="57" x="315" y="385.1543">ItemData</text><line style="stroke: #A80036; stroke-width: 1.5;" x1="287" x2="374" y1="397" y2="397"/><line style="stroke: #A80036; stroke-width: 1.5;" x1="287" x2="374" y1="405" y2="405"/><!--MD5=[93a39f56209b9ca58574756748e779dd]
class BuildingState--><rect fill="#FEFECE" filter="url(#f1op0jsbpmhmo2)" height="48" id="BuildingState" style="stroke: #A80036; stroke-width: 1.5;" width="115" x="410" y="365"/><ellipse cx="425" cy="381" fill="#ADD1B2" rx="11" ry="11" style="stroke: #A80036; stroke-width: 1.0;"/><path d="M427.9688,386.6406 Q427.3906,386.9375 426.75,387.0781 Q426.1094,387.2344 425.4063,387.2344 Q422.9063,387.2344 421.5781,385.5938 Q420.2656,383.9375 420.2656,380.8125 Q420.2656,377.6875 421.5781,376.0313 Q422.9063,374.375 425.4063,374.375 Q426.1094,374.375 426.75,374.5313 Q427.4063,374.6875 427.9688,374.9844 L427.9688,377.7031 Q427.3438,377.125 426.75,376.8594 Q426.1563,376.5781 425.5313,376.5781 Q424.1875,376.5781 423.5,377.6563 Q422.8125,378.7188 422.8125,380.8125 Q422.8125,382.9063 423.5,383.9844 Q424.1875,385.0469 425.5313,385.0469 Q426.1563,385.0469 426.75,384.7813 Q427.3438,384.5 427.9688,383.9219 L427.9688,386.6406 Z "/><text fill="#000000" font-family="sans-serif" font-size="12" lengthAdjust="spacingAndGlyphs" textLength="83" x="439" y="385.1543">BuildingState</text><line style="stroke: #A80036; stroke-width: 1.5;" x1="411" x2="524" y1="397" y2="397"/><line style="stroke: #A80036; stroke-width: 1.5;" x1="411" x2="524" y1="405" y2="405"/><!--MD5=[3ead63e7a6dbaeb1466e3b865cfef6ea]
class UnityEvent--><rect fill="#FEFECE" filter="url(#f1op0jsbpmhmo2)" height="48" id="UnityEvent" style="stroke: #A80036; stroke-width: 1.5;" width="98" x="560.5" y="365"/><ellipse cx="575.5" cy="381" fill="#ADD1B2" rx="11" ry="11" style="stroke: #A80036; stroke-width: 1.0;"/><path d="M578.4688,386.6406 Q577.8906,386.9375 577.25,387.0781 Q576.6094,387.2344 575.9063,387.2344 Q573.4063,387.2344 572.0781,385.5938 Q570.7656,383.9375 570.7656,380.8125 Q570.7656,377.6875 572.0781,376.0313 Q573.4063,374.375 575.9063,374.375 Q576.6094,374.375 577.25,374.5313 Q577.9063,374.6875 578.4688,374.9844 L578.4688,377.7031 Q577.8438,377.125 577.25,376.8594 Q576.6563,376.5781 576.0313,376.5781 Q574.6875,376.5781 574,377.6563 Q573.3125,378.7188 573.3125,380.8125 Q573.3125,382.9063 574,383.9844 Q574.6875,385.0469 576.0313,385.0469 Q576.6563,385.0469 577.25,384.7813 Q577.8438,384.5 578.4688,383.9219 L578.4688,386.6406 Z "/><text fill="#000000" font-family="sans-serif" font-size="12" lengthAdjust="spacingAndGlyphs" textLength="66" x="589.5" y="385.1543">UnityEvent</text><line style="stroke: #A80036; stroke-width: 1.5;" x1="561.5" x2="657.5" y1="397" y2="397"/><line style="stroke: #A80036; stroke-width: 1.5;" x1="561.5" x2="657.5" y1="405" y2="405"/><!--MD5=[4c7b140fed10e9877852f4b8dc88c33d]
class Quaternion--><rect fill="#FEFECE" filter="url(#f1op0jsbpmhmo2)" height="48" id="Quaternion" style="stroke: #A80036; stroke-width: 1.5;" width="102" x="693.5" y="365"/><ellipse cx="708.5" cy="381" fill="#ADD1B2" rx="11" ry="11" style="stroke: #A80036; stroke-width: 1.0;"/><path d="M711.4688,386.6406 Q710.8906,386.9375 710.25,387.0781 Q709.6094,387.2344 708.9063,387.2344 Q706.4063,387.2344 705.0781,385.5938 Q703.7656,383.9375 703.7656,380.8125 Q703.7656,377.6875 705.0781,376.0313 Q706.4063,374.375 708.9063,374.375 Q709.6094,374.375 710.25,374.5313 Q710.9063,374.6875 711.4688,374.9844 L711.4688,377.7031 Q710.8438,377.125 710.25,376.8594 Q709.6563,376.5781 709.0313,376.5781 Q707.6875,376.5781 707,377.6563 Q706.3125,378.7188 706.3125,380.8125 Q706.3125,382.9063 707,383.9844 Q707.6875,385.0469 709.0313,385.0469 Q709.6563,385.0469 710.25,384.7813 Q710.8438,384.5 711.4688,383.9219 L711.4688,386.6406 Z "/><text fill="#000000" font-family="sans-serif" font-size="12" lengthAdjust="spacingAndGlyphs" textLength="70" x="722.5" y="385.1543">Quaternion</text><line style="stroke: #A80036; stroke-width: 1.5;" x1="694.5" x2="794.5" y1="397" y2="397"/><line style="stroke: #A80036; stroke-width: 1.5;" x1="694.5" x2="794.5" y1="405" y2="405"/><!--MD5=[6ef15c132aa71b6572665711166a5ef7]
reverse link MonoBehaviour to PlacementManager--><path d="M609.5,76.38 C609.5,88.4 609.5,101.93 609.5,115.65 " fill="none" id="MonoBehaviour&lt;-PlacementManager" style="stroke: #A80036; stroke-width: 1.0;"/><polygon fill="none" points="602.5,76.07,609.5,56.07,616.5,76.07,602.5,76.07" style="stroke: #A80036; stroke-width: 1.0;"/><!--MD5=[9230b5937aa710d2863d36d918062637]
link PlacementManager to HashSet`1--><path d="M781.9306,110.9501 C781.9306,110.9501 1017.46,31.73 1124,86 C1160.04,104.36 1185.1,144.54 1199.57,174.31 " fill="none" id="PlacementManager-HashSet`1" style="stroke: #A80036; stroke-width: 1.0;"/><polygon fill="#A80036" points="1205.12,186.34,1204.9826,176.4921,1203.0258,181.7997,1197.7181,179.8429,1205.12,186.34" style="stroke: #A80036; stroke-width: 1.0;"/><line style="stroke: #A80036; stroke-width: 1.0;" x1="1203.0258" x2="1199.67" y1="181.7997" y2="174.535"/><polygon fill="#FFFFFF" points="770.99,115.88,778.1036,117.0619,781.9306,110.9501,774.817,109.7682,770.99,115.88" style="stroke: #A80036; stroke-width: 1.0;"/><text fill="#000000" font-family="sans-serif" font-size="13" lengthAdjust="spacingAndGlyphs" textLength="172" x="1008.6789" y="175.311">cellsSelected&lt;Vector3Int&gt;</text><!--MD5=[fe5a90a93b307ebf5c390e2e517bb39b]
link PlacementManager to CommandManager--><path d="M951.93,210.5 C951.93,210.5 958.57,210.5 961.39,210.5 " fill="none" id="PlacementManager-CommandManager" style="stroke: #A80036; stroke-width: 1.0;"/><polygon fill="#A80036" points="974.6,210.5,965.6,206.5,969.6,210.5,965.6,214.5,974.6,210.5" style="stroke: #A80036; stroke-width: 1.0;"/><line style="stroke: #A80036; stroke-width: 1.0;" x1="969.6" x2="961.6" y1="210.5" y2="210.5"/><polygon fill="#FFFFFF" points="939.93,210.5,945.93,214.5,951.93,210.5,945.93,206.5,939.93,210.5" style="stroke: #A80036; stroke-width: 1.0;"/><text fill="#000000" font-family="sans-serif" font-size="13" lengthAdjust="spacingAndGlyphs" textLength="121" x="847.9106" y="182.5477">commandManager</text><!--MD5=[1f786321490fae615d4452cef8af2d64]
link PlacementManager to GridData--><path d="M396.43,305.05 C343.5,328.29 291.69,351.04 255.75,366.82 " fill="none" id="PlacementManager-&gt;GridData" style="stroke: #A80036; stroke-width: 1.0;"/><polygon fill="#A80036" points="251.01,368.9,260.8588,368.9315,255.5855,366.8839,257.6331,361.6106,251.01,368.9" style="stroke: #A80036; stroke-width: 1.0;"/><text fill="#000000" font-family="sans-serif" font-size="13" lengthAdjust="spacingAndGlyphs" textLength="55" x="223.1025" y="367.9819">gridData</text><!--MD5=[f3af50432d3ea4aa6dd70bc4d11f768c]
link PlacementManager to ItemData--><path d="M461.42,305.18 C428.27,326.15 395.77,346.71 371.44,362.1 " fill="none" id="PlacementManager-&gt;ItemData" style="stroke: #A80036; stroke-width: 1.0;"/><polygon fill="#A80036" points="367,364.91,376.7452,363.4848,371.2271,362.2395,372.4724,356.7214,367,364.91" style="stroke: #A80036; stroke-width: 1.0;"/><text fill="#000000" font-family="sans-serif" font-size="13" lengthAdjust="spacingAndGlyphs" textLength="60" x="308.6656" y="353.899">itemData</text><!--MD5=[882921180bfe7133324a8c35145e8e53]
link PlacementManager to BuildingState--><path d="M534.13,305.18 C517.75,325.54 501.68,345.52 489.43,360.75 " fill="none" id="PlacementManager-&gt;BuildingState" style="stroke: #A80036; stroke-width: 1.0;"/><polygon fill="#A80036" points="486.07,364.91,494.8299,360.4084,489.2057,361.0155,488.5986,355.3913,486.07,364.91" style="stroke: #A80036; stroke-width: 1.0;"/><text fill="#000000" font-family="sans-serif" font-size="13" lengthAdjust="spacingAndGlyphs" textLength="84" x="396.0661" y="353.899">buildingState</text><!--MD5=[e4531125c2a5f0ad943163a6a6eb42dd]
link PlacementManager to UnityEvent--><path d="M518.15,305.18 C519.65,331.59 532.12,357.34 555.54,372.94 " fill="none" id="PlacementManager-&gt;UnityEvent" style="stroke: #A80036; stroke-width: 1.0;"/><polygon fill="#A80036" points="560.04,375.74,554.5034,367.5947,555.792,373.1028,550.2839,374.3915,560.04,375.74" style="stroke: #A80036; stroke-width: 1.0;"/><text fill="#000000" font-family="sans-serif" font-size="13" lengthAdjust="spacingAndGlyphs" textLength="144" x="580.8895" y="353.6653">OnExitPlacementMode</text><!--MD5=[e4531125c2a5f0ad943163a6a6eb42dd]
link PlacementManager to UnityEvent--><path d="M544.36,305.18 C545.18,325.54 550.66,345.52 560.78,360.75 " fill="none" id="PlacementManager-&gt;UnityEvent-1" style="stroke: #A80036; stroke-width: 1.0;"/><polygon fill="#A80036" points="563.75,364.91,561.7866,355.2588,560.8492,360.8375,555.2706,359.9001,563.75,364.91" style="stroke: #A80036; stroke-width: 1.0;"/><text fill="#000000" font-family="sans-serif" font-size="13" lengthAdjust="spacingAndGlyphs" textLength="174" x="574.3203" y="353.899">OnPlaceConstructionObject</text><!--MD5=[e4531125c2a5f0ad943163a6a6eb42dd]
link PlacementManager to UnityEvent--><path d="M570.57,305.18 C571.05,325.19 574.22,344.83 580.07,359.96 " fill="none" id="PlacementManager-&gt;UnityEvent-2" style="stroke: #A80036; stroke-width: 1.0;"/><polygon fill="#A80036" points="582.16,364.91,582.38,355.0636,580.2319,360.2967,574.9987,358.1486,582.16,364.91" style="stroke: #A80036; stroke-width: 1.0;"/><text fill="#000000" font-family="sans-serif" font-size="13" lengthAdjust="spacingAndGlyphs" textLength="150" x="442.3229" y="353.899">OnPlaceFurnitureObject</text><!--MD5=[e4531125c2a5f0ad943163a6a6eb42dd]
link PlacementManager to UnityEvent--><path d="M596.77,305.18 C596.93,325.02 597.95,344.49 599.83,359.56 " fill="none" id="PlacementManager-&gt;UnityEvent-3" style="stroke: #A80036; stroke-width: 1.0;"/><polygon fill="#A80036" points="600.56,364.91,603.2891,355.4468,599.8749,359.9572,595.3645,356.543,600.56,364.91" style="stroke: #A80036; stroke-width: 1.0;"/><text fill="#000000" font-family="sans-serif" font-size="13" lengthAdjust="spacingAndGlyphs" textLength="111" x="522.0008" y="353.8051">OnRemoveObject</text><!--MD5=[e4531125c2a5f0ad943163a6a6eb42dd]
link PlacementManager to UnityEvent--><path d="M622.98,305.18 C622.81,325.19 621.71,344.83 619.69,359.96 " fill="none" id="PlacementManager-&gt;UnityEvent-4" style="stroke: #A80036; stroke-width: 1.0;"/><polygon fill="#A80036" points="618.96,364.91,624.2297,356.5895,619.6891,359.9634,616.3152,355.4229,618.96,364.91" style="stroke: #A80036; stroke-width: 1.0;"/><text fill="#000000" font-family="sans-serif" font-size="13" lengthAdjust="spacingAndGlyphs" textLength="52" x="664.3843" y="353.9426">OnUndo</text><!--MD5=[e4531125c2a5f0ad943163a6a6eb42dd]
link PlacementManager to UnityEvent--><path d="M649.18,305.18 C648.69,325.19 645.46,344.83 639.5,359.96 " fill="none" id="PlacementManager-&gt;UnityEvent-5" style="stroke: #A80036; stroke-width: 1.0;"/><polygon fill="#A80036" points="637.37,364.91,644.5919,358.2134,639.3396,360.3143,637.2387,355.062,637.37,364.91" style="stroke: #A80036; stroke-width: 1.0;"/><text fill="#000000" font-family="sans-serif" font-size="13" lengthAdjust="spacingAndGlyphs" textLength="60" x="652.1992" y="353.899">OnRotate</text><!--MD5=[e4531125c2a5f0ad943163a6a6eb42dd]
link PlacementManager to UnityEvent--><path d="M675.39,305.18 C674.55,325.54 669.02,345.52 658.78,360.75 " fill="none" id="PlacementManager-&gt;UnityEvent-6" style="stroke: #A80036; stroke-width: 1.0;"/><polygon fill="#A80036" points="655.77,364.91,664.2923,359.9733,658.7058,360.8626,657.8165,355.2761,655.77,364.91" style="stroke: #A80036; stroke-width: 1.0;"/><text fill="#000000" font-family="sans-serif" font-size="13" lengthAdjust="spacingAndGlyphs" textLength="109" x="652.2159" y="353.8258">OnExitMovement</text><!--MD5=[e4531125c2a5f0ad943163a6a6eb42dd]
link PlacementManager to UnityEvent--><path d="M701.59,305.18 C700.07,331.85 687.26,357.86 663.19,373.41 " fill="none" id="PlacementManager-&gt;UnityEvent-7" style="stroke: #A80036; stroke-width: 1.0;"/><polygon fill="#A80036" points="658.89,376,668.6625,374.7756,663.1712,373.417,664.5297,367.9257,658.89,376" style="stroke: #A80036; stroke-width: 1.0;"/><text fill="#000000" font-family="sans-serif" font-size="13" lengthAdjust="spacingAndGlyphs" textLength="171" x="576.1061" y="353.6655">OnMovementStateEntered</text><!--MD5=[6e87322b061f6c43bcc32a86fdbcfe88]
link PlacementManager to UnityEvent`1--><path d="M322.23,305.05 C251.61,328.05 182.46,350.56 134.07,366.32 " fill="none" id="PlacementManager-&gt;UnityEvent`1" style="stroke: #A80036; stroke-width: 1.0;"/><polygon fill="#A80036" points="129.16,367.92,138.955,368.9483,133.9161,366.3775,136.487,361.3386,129.16,367.92" style="stroke: #A80036; stroke-width: 1.0;"/><text fill="#000000" font-family="sans-serif" font-size="13" lengthAdjust="spacingAndGlyphs" textLength="143" x="136.5499" y="353.9166">OnToggleUndo&lt;bool&gt;</text><!--MD5=[15d0113535495cf8410237da306c1f89]
link PlacementManager to Quaternion--><path d="M681.15,305.18 C696.73,325.54 712,345.52 723.65,360.75 " fill="none" id="PlacementManager-&gt;Quaternion" style="stroke: #A80036; stroke-width: 1.0;"/><polygon fill="#A80036" points="726.84,364.91,724.5632,355.3279,723.8081,360.9342,718.2018,360.179,726.84,364.91" style="stroke: #A80036; stroke-width: 1.0;"/><text fill="#000000" font-family="sans-serif" font-size="13" lengthAdjust="spacingAndGlyphs" textLength="107" x="736.024" y="353.899">previousRotation</text><!--MD5=[23eb9bce7b8bdd06bd101a7ec8a3a6a6]
@startuml
class PlacementManager {
    + StartPlacingObject(id:int) : void
    + TryRemovingObject(selectionResult:SelectionResult) : void
    + TryUndoLastPlacement() : void
    + CancelState() : void
    + PlaceStructureAt(selectionResult:SelectionResult, placementData:PlacementGridData, itemData:ItemData) : void
    + RemoveStructureAt(selectionResult:SelectionResult, placementData:PlacementGridData) : void
    Update() : void
    previousPosition : Vector3Int?
    + HandleMoveObject() : void
    SaveData() : void
    LoadData() : void
}
class "HashSet`1"<T> {
}
class "UnityEvent`1"<T> {
}
MonoBehaviour <|- - PlacementManager
PlacementManager o-> "cellsSelected<Vector3Int>" "HashSet`1"
PlacementManager o-> "commandManager" CommandManager
PlacementManager - -> "gridData" GridData
PlacementManager - -> "itemData" ItemData
PlacementManager - -> "buildingState" BuildingState
PlacementManager - -> "OnExitPlacementMode" UnityEvent
PlacementManager - -> "OnPlaceConstructionObject" UnityEvent
PlacementManager - -> "OnPlaceFurnitureObject" UnityEvent
PlacementManager - -> "OnRemoveObject" UnityEvent
PlacementManager - -> "OnUndo" UnityEvent
PlacementManager - -> "OnRotate" UnityEvent
PlacementManager - -> "OnExitMovement" UnityEvent
PlacementManager - -> "OnMovementStateEntered" UnityEvent
PlacementManager - -> "OnToggleUndo<bool>" "UnityEvent`1"
PlacementManager - -> "previousRotation" Quaternion
@enduml

PlantUML version 1.2020.02(Sun Mar 01 10:22:07 GMT 2020)
(GPL source distribution)
Java Runtime: OpenJDK Runtime Environment
JVM: OpenJDK 64-Bit Server VM
Java Version: 11.0.9+11-Ubuntu-0ubuntu1
Operating System: Linux
Default Encoding: ANSI_X3.4-1968
Language: en
Country: US
--></g></svg>