<?xml version="1.0" encoding="UTF-8" standalone="no"?><svg xmlns="http://www.w3.org/2000/svg" xmlns:xlink="http://www.w3.org/1999/xlink" contentScriptType="application/ecmascript" contentStyleType="text/css" height="187px" preserveAspectRatio="none" style="width:536px;height:187px;" version="1.1" viewBox="0 0 536 187" width="536px" zoomAndPan="magnify"><defs><filter height="300%" id="f1qe873j2frcts" width="300%" x="-1" y="-1"><feGaussianBlur result="blurOut" stdDeviation="2.0"/><feColorMatrix in="blurOut" result="blurOut2" type="matrix" values="0 0 0 0 0 0 0 0 0 0 0 0 0 0 0 0 0 0 .4 0"/><feOffset dx="4.0" dy="4.0" in="blurOut2" result="blurOut3"/><feBlend in="SourceGraphic" in2="blurOut3" mode="normal"/></filter></defs><g><!--MD5=[32e97fc24bcab1a80afe44d05eb0313a]
class PlacingObjectsState--><rect fill="#FEFECE" filter="url(#f1qe873j2frcts)" height="60.8047" id="PlacingObjectsState" style="stroke: #A80036; stroke-width: 1.5;" width="519" x="6" y="116"/><ellipse cx="198.25" cy="132" fill="#ADD1B2" rx="11" ry="11" style="stroke: #A80036; stroke-width: 1.0;"/><path d="M201.2188,137.6406 Q200.6406,137.9375 200,138.0781 Q199.3594,138.2344 198.6563,138.2344 Q196.1563,138.2344 194.8281,136.5938 Q193.5156,134.9375 193.5156,131.8125 Q193.5156,128.6875 194.8281,127.0313 Q196.1563,125.375 198.6563,125.375 Q199.3594,125.375 200,125.5313 Q200.6563,125.6875 201.2188,125.9844 L201.2188,128.7031 Q200.5938,128.125 200,127.8594 Q199.4063,127.5781 198.7813,127.5781 Q197.4375,127.5781 196.75,128.6563 Q196.0625,129.7188 196.0625,131.8125 Q196.0625,133.9063 196.75,134.9844 Q197.4375,136.0469 198.7813,136.0469 Q199.4063,136.0469 200,135.7813 Q200.5938,135.5 201.2188,134.9219 L201.2188,137.6406 Z "/><text fill="#000000" font-family="sans-serif" font-size="12" lengthAdjust="spacingAndGlyphs" textLength="126" x="218.75" y="136.1543">PlacingObjectsState</text><line style="stroke: #A80036; stroke-width: 1.5;" x1="7" x2="524" y1="148" y2="148"/><line style="stroke: #A80036; stroke-width: 1.5;" x1="7" x2="524" y1="156" y2="156"/><ellipse cx="17" cy="167" fill="#84BE84" rx="3" ry="3" style="stroke: #038048; stroke-width: 1.0;"/><text fill="#000000" font-family="sans-serif" font-size="11" lengthAdjust="spacingAndGlyphs" textLength="493" x="26" y="170.2104">PlacingObjectsState(gridManager:GridManager, gridData:GridData, itemData:ItemData)</text><!--MD5=[93a39f56209b9ca58574756748e779dd]
class BuildingState--><rect fill="#FEFECE" filter="url(#f1qe873j2frcts)" height="48" id="BuildingState" style="stroke: #A80036; stroke-width: 1.5;" width="115" x="208" y="8"/><ellipse cx="223" cy="24" fill="#ADD1B2" rx="11" ry="11" style="stroke: #A80036; stroke-width: 1.0;"/><path d="M225.9688,29.6406 Q225.3906,29.9375 224.75,30.0781 Q224.1094,30.2344 223.4063,30.2344 Q220.9063,30.2344 219.5781,28.5938 Q218.2656,26.9375 218.2656,23.8125 Q218.2656,20.6875 219.5781,19.0313 Q220.9063,17.375 223.4063,17.375 Q224.1094,17.375 224.75,17.5313 Q225.4063,17.6875 225.9688,17.9844 L225.9688,20.7031 Q225.3438,20.125 224.75,19.8594 Q224.1563,19.5781 223.5313,19.5781 Q222.1875,19.5781 221.5,20.6563 Q220.8125,21.7188 220.8125,23.8125 Q220.8125,25.9063 221.5,26.9844 Q222.1875,28.0469 223.5313,28.0469 Q224.1563,28.0469 224.75,27.7813 Q225.3438,27.5 225.9688,26.9219 L225.9688,29.6406 Z "/><text fill="#000000" font-family="sans-serif" font-size="12" lengthAdjust="spacingAndGlyphs" textLength="83" x="237" y="28.1543">BuildingState</text><line style="stroke: #A80036; stroke-width: 1.5;" x1="209" x2="322" y1="40" y2="40"/><line style="stroke: #A80036; stroke-width: 1.5;" x1="209" x2="322" y1="48" y2="48"/><!--MD5=[de430bf1a9026b28fe26db5c07215c31]
reverse link BuildingState to PlacingObjectsState--><path d="M265.5,76.11 C265.5,89.31 265.5,103.54 265.5,115.65 " fill="none" id="BuildingState&lt;-PlacingObjectsState" style="stroke: #A80036; stroke-width: 1.0;"/><polygon fill="none" points="258.5,76.04,265.5,56.04,272.5,76.04,258.5,76.04" style="stroke: #A80036; stroke-width: 1.0;"/><!--MD5=[445a9e8e522e0974546c498fd6224b76]
@startuml
class PlacingObjectsState {
    + PlacingObjectsState(gridManager:GridManager, gridData:GridData, itemData:ItemData)
}
BuildingState <|- - PlacingObjectsState
@enduml

PlantUML version 1.2020.02(Sun Mar 01 10:22:07 GMT 2020)
(GPL source distribution)
Java Runtime: OpenJDK Runtime Environment
JVM: OpenJDK 64-Bit Server VM
Java Version: 11.0.9+11-Ubuntu-0ubuntu1
Operating System: Linux
Default Encoding: ANSI_X3.4-1968
Language: en
Country: US
--></g></svg>