<?xml version="1.0" encoding="UTF-8" standalone="no"?><svg xmlns="http://www.w3.org/2000/svg" xmlns:xlink="http://www.w3.org/1999/xlink" contentScriptType="application/ecmascript" contentStyleType="text/css" height="334px" preserveAspectRatio="none" style="width:461px;height:334px;" version="1.1" viewBox="0 0 461 334" width="461px" zoomAndPan="magnify"><defs><filter height="300%" id="f1vaumkqmrrdrm" width="300%" x="-1" y="-1"><feGaussianBlur result="blurOut" stdDeviation="2.0"/><feColorMatrix in="blurOut" result="blurOut2" type="matrix" values="0 0 0 0 0 0 0 0 0 0 0 0 0 0 0 0 0 0 .4 0"/><feOffset dx="4.0" dy="4.0" in="blurOut2" result="blurOut3"/><feBlend in="SourceGraphic" in2="blurOut3" mode="normal"/></filter></defs><g><!--MD5=[8df2c10d859d40abfab9659e92592227]
class PlacementPreview--><rect fill="#FEFECE" filter="url(#f1vaumkqmrrdrm)" height="99.2188" id="PlacementPreview" style="stroke: #A80036; stroke-width: 1.5;" width="444" x="6" y="116"/><ellipse cx="167.25" cy="132" fill="#ADD1B2" rx="11" ry="11" style="stroke: #A80036; stroke-width: 1.0;"/><path d="M170.2188,137.6406 Q169.6406,137.9375 169,138.0781 Q168.3594,138.2344 167.6563,138.2344 Q165.1563,138.2344 163.8281,136.5938 Q162.5156,134.9375 162.5156,131.8125 Q162.5156,128.6875 163.8281,127.0313 Q165.1563,125.375 167.6563,125.375 Q168.3594,125.375 169,125.5313 Q169.6563,125.6875 170.2188,125.9844 L170.2188,128.7031 Q169.5938,128.125 169,127.8594 Q168.4063,127.5781 167.7813,127.5781 Q166.4375,127.5781 165.75,128.6563 Q165.0625,129.7188 165.0625,131.8125 Q165.0625,133.9063 165.75,134.9844 Q166.4375,136.0469 167.7813,136.0469 Q168.4063,136.0469 169,135.7813 Q169.5938,135.5 170.2188,134.9219 L170.2188,137.6406 Z "/><text fill="#000000" font-family="sans-serif" font-size="12" lengthAdjust="spacingAndGlyphs" textLength="113" x="187.75" y="136.1543">PlacementPreview</text><line style="stroke: #A80036; stroke-width: 1.5;" x1="7" x2="449" y1="148" y2="148"/><line style="stroke: #A80036; stroke-width: 1.5;" x1="7" x2="449" y1="156" y2="156"/><ellipse cx="17" cy="167" fill="#84BE84" rx="3" ry="3" style="stroke: #038048; stroke-width: 1.0;"/><text fill="#000000" font-family="sans-serif" font-size="11" lengthAdjust="spacingAndGlyphs" textLength="410" x="26" y="170.2104">MovePreview(positions:List&lt;Vector3&gt;, rotation:List&lt;Quaternion&gt;) : void</text><ellipse cx="17" cy="179.8047" fill="#84BE84" rx="3" ry="3" style="stroke: #038048; stroke-width: 1.0;"/><text fill="#000000" font-family="sans-serif" font-size="11" lengthAdjust="spacingAndGlyphs" textLength="161" x="26" y="183.0151">StopShowingPreview() : void</text><ellipse cx="17" cy="192.6094" fill="#84BE84" rx="3" ry="3" style="stroke: #038048; stroke-width: 1.0;"/><text fill="#000000" font-family="sans-serif" font-size="11" lengthAdjust="spacingAndGlyphs" textLength="418" x="26" y="195.8198">StartShowingPreview(placedObject:GameObject, keepMaterial:bool) : void</text><ellipse cx="17" cy="205.4141" fill="#84BE84" rx="3" ry="3" style="stroke: #038048; stroke-width: 1.0;"/><text fill="#000000" font-family="sans-serif" font-size="11" lengthAdjust="spacingAndGlyphs" textLength="230" x="26" y="208.6245">ShowPlacementFeedback(val:bool) : void</text><!--MD5=[83b3cf3d23d77c6f1e1b5291a241bc2a]
class MonoBehaviour--><rect fill="#FEFECE" filter="url(#f1vaumkqmrrdrm)" height="48" id="MonoBehaviour" style="stroke: #A80036; stroke-width: 1.5;" width="128" x="164" y="8"/><ellipse cx="179" cy="24" fill="#ADD1B2" rx="11" ry="11" style="stroke: #A80036; stroke-width: 1.0;"/><path d="M181.9688,29.6406 Q181.3906,29.9375 180.75,30.0781 Q180.1094,30.2344 179.4063,30.2344 Q176.9063,30.2344 175.5781,28.5938 Q174.2656,26.9375 174.2656,23.8125 Q174.2656,20.6875 175.5781,19.0313 Q176.9063,17.375 179.4063,17.375 Q180.1094,17.375 180.75,17.5313 Q181.4063,17.6875 181.9688,17.9844 L181.9688,20.7031 Q181.3438,20.125 180.75,19.8594 Q180.1563,19.5781 179.5313,19.5781 Q178.1875,19.5781 177.5,20.6563 Q176.8125,21.7188 176.8125,23.8125 Q176.8125,25.9063 177.5,26.9844 Q178.1875,28.0469 179.5313,28.0469 Q180.1563,28.0469 180.75,27.7813 Q181.3438,27.5 181.9688,26.9219 L181.9688,29.6406 Z "/><text fill="#000000" font-family="sans-serif" font-size="12" lengthAdjust="spacingAndGlyphs" textLength="96" x="193" y="28.1543">MonoBehaviour</text><line style="stroke: #A80036; stroke-width: 1.5;" x1="165" x2="291" y1="40" y2="40"/><line style="stroke: #A80036; stroke-width: 1.5;" x1="165" x2="291" y1="48" y2="48"/><!--MD5=[18eee71c88ab61f27581b8cbdd3ef5ee]
class Color--><rect fill="#FEFECE" filter="url(#f1vaumkqmrrdrm)" height="48" id="Color" style="stroke: #A80036; stroke-width: 1.5;" width="64" x="196" y="275"/><ellipse cx="211" cy="291" fill="#ADD1B2" rx="11" ry="11" style="stroke: #A80036; stroke-width: 1.0;"/><path d="M213.9688,296.6406 Q213.3906,296.9375 212.75,297.0781 Q212.1094,297.2344 211.4063,297.2344 Q208.9063,297.2344 207.5781,295.5938 Q206.2656,293.9375 206.2656,290.8125 Q206.2656,287.6875 207.5781,286.0313 Q208.9063,284.375 211.4063,284.375 Q212.1094,284.375 212.75,284.5313 Q213.4063,284.6875 213.9688,284.9844 L213.9688,287.7031 Q213.3438,287.125 212.75,286.8594 Q212.1563,286.5781 211.5313,286.5781 Q210.1875,286.5781 209.5,287.6563 Q208.8125,288.7188 208.8125,290.8125 Q208.8125,292.9063 209.5,293.9844 Q210.1875,295.0469 211.5313,295.0469 Q212.1563,295.0469 212.75,294.7813 Q213.3438,294.5 213.9688,293.9219 L213.9688,296.6406 Z "/><text fill="#000000" font-family="sans-serif" font-size="12" lengthAdjust="spacingAndGlyphs" textLength="32" x="225" y="295.1543">Color</text><line style="stroke: #A80036; stroke-width: 1.5;" x1="197" x2="259" y1="307" y2="307"/><line style="stroke: #A80036; stroke-width: 1.5;" x1="197" x2="259" y1="315" y2="315"/><!--MD5=[ff01cdc1e1800d50348993c92c640027]
reverse link MonoBehaviour to PlacementPreview--><path d="M228,76.51 C228,89.14 228,103.01 228,115.93 " fill="none" id="MonoBehaviour&lt;-PlacementPreview" style="stroke: #A80036; stroke-width: 1.0;"/><polygon fill="none" points="221,76.21,228,56.21,235,76.21,221,76.21" style="stroke: #A80036; stroke-width: 1.0;"/><!--MD5=[ec6ac1e19e1e64e79bc5a0e5f7603e41]
link PlacementPreview to Color--><path d="M228,215.09 C228,233.5 228,253.83 228,269.75 " fill="none" id="PlacementPreview-&gt;Color" style="stroke: #A80036; stroke-width: 1.0;"/><polygon fill="#A80036" points="228,274.98,232,265.98,228,269.98,224,265.98,228,274.98" style="stroke: #A80036; stroke-width: 1.0;"/><text fill="#000000" font-family="sans-serif" font-size="13" lengthAdjust="spacingAndGlyphs" textLength="77" x="141.1344" y="263.9869">defautlColor</text><!--MD5=[142aaf4d7832a131707b9e484366335d]
@startuml
class PlacementPreview {
    + MovePreview(positions:List<Vector3>, rotation:List<Quaternion>) : void
    + StopShowingPreview() : void
    + StartShowingPreview(placedObject:GameObject, keepMaterial:bool) : void
    + ShowPlacementFeedback(val:bool) : void
}
MonoBehaviour <|- - PlacementPreview
PlacementPreview - -> "defautlColor" Color
@enduml

PlantUML version 1.2020.02(Sun Mar 01 10:22:07 GMT 2020)
(GPL source distribution)
Java Runtime: OpenJDK Runtime Environment
JVM: OpenJDK 64-Bit Server VM
Java Version: 11.0.9+11-Ubuntu-0ubuntu1
Operating System: Linux
Default Encoding: ANSI_X3.4-1968
Language: en
Country: US
--></g></svg>