<?xml version="1.0" encoding="UTF-8" standalone="no"?><svg xmlns="http://www.w3.org/2000/svg" xmlns:xlink="http://www.w3.org/1999/xlink" contentScriptType="application/ecmascript" contentStyleType="text/css" height="367px" preserveAspectRatio="none" style="width:861px;height:367px;" version="1.1" viewBox="0 0 861 367" width="861px" zoomAndPan="magnify"><defs><filter height="300%" id="f1fdzi2zfs8rkn" width="300%" x="-1" y="-1"><feGaussianBlur result="blurOut" stdDeviation="2.0"/><feColorMatrix in="blurOut" result="blurOut2" type="matrix" values="0 0 0 0 0 0 0 0 0 0 0 0 0 0 0 0 0 0 .4 0"/><feOffset dx="4.0" dy="4.0" in="blurOut2" result="blurOut3"/><feBlend in="SourceGraphic" in2="blurOut3" mode="normal"/></filter></defs><g><!--MD5=[e9dcf1065f2d675ed598344b8e9d59e4]
class PlacementGridData--><rect fill="#FEFECE" filter="url(#f1fdzi2zfs8rkn)" height="240.0703" id="PlacementGridData" style="stroke: #A80036; stroke-width: 1.5;" width="653" x="49.99" y="8"/><ellipse cx="311.74" cy="24" fill="#ADD1B2" rx="11" ry="11" style="stroke: #A80036; stroke-width: 1.0;"/><path d="M314.7088,29.6406 Q314.1306,29.9375 313.49,30.0781 Q312.8494,30.2344 312.1463,30.2344 Q309.6463,30.2344 308.3181,28.5938 Q307.0056,26.9375 307.0056,23.8125 Q307.0056,20.6875 308.3181,19.0313 Q309.6463,17.375 312.1463,17.375 Q312.8494,17.375 313.49,17.5313 Q314.1463,17.6875 314.7088,17.9844 L314.7088,20.7031 Q314.0838,20.125 313.49,19.8594 Q312.8963,19.5781 312.2713,19.5781 Q310.9275,19.5781 310.24,20.6563 Q309.5525,21.7188 309.5525,23.8125 Q309.5525,25.9063 310.24,26.9844 Q310.9275,28.0469 312.2713,28.0469 Q312.8963,28.0469 313.49,27.7813 Q314.0838,27.5 314.7088,26.9219 L314.7088,29.6406 Z "/><text fill="#000000" font-family="sans-serif" font-size="12" lengthAdjust="spacingAndGlyphs" textLength="121" x="332.24" y="28.1543">PlacementGridData</text><line style="stroke: #A80036; stroke-width: 1.5;" x1="50.99" x2="701.99" y1="40" y2="40"/><text fill="#000000" font-family="sans-serif" font-size="11" lengthAdjust="spacingAndGlyphs" textLength="111" x="55.99" y="54.2104">xGridBoundMin : int</text><text fill="#000000" font-family="sans-serif" font-size="11" lengthAdjust="spacingAndGlyphs" textLength="114" x="55.99" y="67.0151">xGridBoundMax : int</text><text fill="#000000" font-family="sans-serif" font-size="11" lengthAdjust="spacingAndGlyphs" textLength="110" x="55.99" y="79.8198">zGridBoundMin : int</text><text fill="#000000" font-family="sans-serif" font-size="11" lengthAdjust="spacingAndGlyphs" textLength="113" x="55.99" y="92.6245">zGridBoundMax : int</text><line style="stroke: #A80036; stroke-width: 1.5;" x1="50.99" x2="701.99" y1="99.2188" y2="99.2188"/><ellipse cx="60.99" cy="110.2188" fill="#84BE84" rx="3" ry="3" style="stroke: #038048; stroke-width: 1.0;"/><text fill="#000000" font-family="sans-serif" font-size="11" lengthAdjust="spacingAndGlyphs" textLength="317" x="69.99" y="113.4292">PlacementGridData(xMin:int, xMax:int, zMin:int, zMax:int)</text><ellipse cx="60.99" cy="123.0234" fill="#84BE84" rx="3" ry="3" style="stroke: #038048; stroke-width: 1.0;"/><text fill="#000000" font-family="sans-serif" font-size="11" lengthAdjust="spacingAndGlyphs" textLength="600" x="69.99" y="126.2339">IsSpaceFree(currentTilePosition:Vector3Int, objectSize:Vector2Int, rotation:int, edgePlacement:bool) : bool</text><ellipse cx="60.99" cy="135.8281" fill="#84BE84" rx="3" ry="3" style="stroke: #038048; stroke-width: 1.0;"/><text fill="#000000" font-family="sans-serif" font-size="11" lengthAdjust="spacingAndGlyphs" textLength="627" x="69.99" y="139.0386">IsSpaceOccupied(currentTilePosition:Vector3Int, objectSize:Vector2Int, rotation:int, edgePlacement:bool) : bool</text><ellipse cx="60.99" cy="148.6328" fill="#84BE84" rx="3" ry="3" style="stroke: #038048; stroke-width: 1.0;"/><text fill="#000000" font-family="sans-serif" font-size="11" lengthAdjust="spacingAndGlyphs" textLength="571" x="69.99" y="151.8433">GetCellPositions(currentTilePosition:Vector3Int, objectSize:Vector2Int, rotation:int) : List&lt;Vector3Int&gt;</text><ellipse cx="60.99" cy="161.4375" fill="#84BE84" rx="3" ry="3" style="stroke: #038048; stroke-width: 1.0;"/><text fill="#000000" font-family="sans-serif" font-size="11" lengthAdjust="spacingAndGlyphs" textLength="514" x="69.99" y="164.6479">GetEdgePositions(currentTilePosition:Vector3Int, size:Vector2Int, rotation:int) : List&lt;Edge&gt;</text><ellipse cx="60.99" cy="174.2422" fill="#84BE84" rx="3" ry="3" style="stroke: #038048; stroke-width: 1.0;"/><text fill="#000000" font-family="sans-serif" font-size="11" lengthAdjust="spacingAndGlyphs" textLength="577" x="69.99" y="177.4526">AddCellObject(index:int, ID:int, currentTilePosition:Vector3Int, objectSize:Vector2Int, rotation:int) : void</text><ellipse cx="60.99" cy="187.0469" fill="#84BE84" rx="3" ry="3" style="stroke: #038048; stroke-width: 1.0;"/><text fill="#000000" font-family="sans-serif" font-size="11" lengthAdjust="spacingAndGlyphs" textLength="584" x="69.99" y="190.2573">AddEdgeObject(index:int, ID:int, currentTilePosition:Vector3Int, objectSize:Vector2Int, rotation:int) : void</text><ellipse cx="60.99" cy="199.8516" fill="#84BE84" rx="3" ry="3" style="stroke: #038048; stroke-width: 1.0;"/><text fill="#000000" font-family="sans-serif" font-size="11" lengthAdjust="spacingAndGlyphs" textLength="383" x="69.99" y="203.062">GetEdgesOccupiedForEdgeObject(selectedEdge:Edge) : List&lt;Edge&gt;</text><ellipse cx="60.99" cy="212.6563" fill="#84BE84" rx="3" ry="3" style="stroke: #038048; stroke-width: 1.0;"/><text fill="#000000" font-family="sans-serif" font-size="11" lengthAdjust="spacingAndGlyphs" textLength="481" x="69.99" y="215.8667">GetPositionsOccupiedForCellObject(currentTilePosition:Vector3Int) : List&lt;Vector3Int&gt;</text><ellipse cx="60.99" cy="225.4609" fill="#84BE84" rx="3" ry="3" style="stroke: #038048; stroke-width: 1.0;"/><text fill="#000000" font-family="sans-serif" font-size="11" lengthAdjust="spacingAndGlyphs" textLength="437" x="69.99" y="228.6714">GetStructureIDForEdgeObject(currentTilePosition:Vector3Int, rotation:int) : int</text><ellipse cx="60.99" cy="238.2656" fill="#84BE84" rx="3" ry="3" style="stroke: #038048; stroke-width: 1.0;"/><text fill="#000000" font-family="sans-serif" font-size="11" lengthAdjust="spacingAndGlyphs" textLength="360" x="69.99" y="241.4761">GetStructureIDForCellObject(currentTilePosition:Vector3Int) : int</text><!--MD5=[899af51711648a7e02007b35b096c6c2]
class IsExternalInit--><rect fill="#FEFECE" filter="url(#f1fdzi2zfs8rkn)" height="48" id="IsExternalInit" style="stroke: #A80036; stroke-width: 1.5;" width="112" x="738.49" y="104"/><ellipse cx="753.49" cy="120" fill="#ADD1B2" rx="11" ry="11" style="stroke: #A80036; stroke-width: 1.0;"/><path d="M756.4588,125.6406 Q755.8806,125.9375 755.24,126.0781 Q754.5994,126.2344 753.8963,126.2344 Q751.3963,126.2344 750.0681,124.5938 Q748.7556,122.9375 748.7556,119.8125 Q748.7556,116.6875 750.0681,115.0313 Q751.3963,113.375 753.8963,113.375 Q754.5994,113.375 755.24,113.5313 Q755.8963,113.6875 756.4588,113.9844 L756.4588,116.7031 Q755.8338,116.125 755.24,115.8594 Q754.6463,115.5781 754.0213,115.5781 Q752.6775,115.5781 751.99,116.6563 Q751.3025,117.7188 751.3025,119.8125 Q751.3025,121.9063 751.99,122.9844 Q752.6775,124.0469 754.0213,124.0469 Q754.6463,124.0469 755.24,123.7813 Q755.8338,123.5 756.4588,122.9219 L756.4588,125.6406 Z "/><text fill="#000000" font-family="sans-serif" font-size="12" lengthAdjust="spacingAndGlyphs" textLength="80" x="767.49" y="124.1543">IsExternalInit</text><line style="stroke: #A80036; stroke-width: 1.5;" x1="739.49" x2="849.49" y1="136" y2="136"/><line style="stroke: #A80036; stroke-width: 1.5;" x1="739.49" x2="849.49" y1="144" y2="144"/><!--MD5=[2e1ff885372daab8d802f213ced6c836]
class Dictionary`2--><rect fill="#FEFECE" filter="url(#f1fdzi2zfs8rkn)" height="48" id="Dictionary`2" style="stroke: #A80036; stroke-width: 1.5;" width="146" x="303.49" y="308"/><ellipse cx="318.49" cy="324" fill="#ADD1B2" rx="11" ry="11" style="stroke: #A80036; stroke-width: 1.0;"/><path d="M321.4588,329.6406 Q320.8806,329.9375 320.24,330.0781 Q319.5994,330.2344 318.8963,330.2344 Q316.3963,330.2344 315.0681,328.5938 Q313.7556,326.9375 313.7556,323.8125 Q313.7556,320.6875 315.0681,319.0313 Q316.3963,317.375 318.8963,317.375 Q319.5994,317.375 320.24,317.5313 Q320.8963,317.6875 321.4588,317.9844 L321.4588,320.7031 Q320.8338,320.125 320.24,319.8594 Q319.6463,319.5781 319.0213,319.5781 Q317.6775,319.5781 316.99,320.6563 Q316.3025,321.7188 316.3025,323.8125 Q316.3025,325.9063 316.99,326.9844 Q317.6775,328.0469 319.0213,328.0469 Q319.6463,328.0469 320.24,327.7813 Q320.8338,327.5 321.4588,326.9219 L321.4588,329.6406 Z "/><text fill="#000000" font-family="sans-serif" font-size="12" lengthAdjust="spacingAndGlyphs" textLength="76" x="332.49" y="328.1543">Dictionary`2</text><rect fill="#FFFFFF" height="15.9688" style="stroke: #000000; stroke-width: 1.0; stroke-dasharray: 2.0,2.0;" width="36" x="416.49" y="305"/><text fill="#000000" font-family="sans-serif" font-size="12" font-style="italic" lengthAdjust="spacingAndGlyphs" textLength="34" x="417.49" y="317.1387">T1,T2</text><line style="stroke: #A80036; stroke-width: 1.5;" x1="304.49" x2="448.49" y1="340" y2="340"/><line style="stroke: #A80036; stroke-width: 1.5;" x1="304.49" x2="448.49" y1="348" y2="348"/><!--MD5=[b5d3f52664be64d870ccbff243e14848]
link PlacementGridData to Dictionary`2--><path d="M363.93,248.26 C364.35,268.49 365.47,287.72 367.3,302.53 " fill="none" id="PlacementGridData-&gt;Dictionary`2" style="stroke: #A80036; stroke-width: 1.0;"/><polygon fill="#A80036" points="368,307.79,370.7826,298.3424,367.3429,302.8334,362.852,299.3937,368,307.79" style="stroke: #A80036; stroke-width: 1.0;"/><text fill="#000000" font-family="sans-serif" font-size="13" lengthAdjust="spacingAndGlyphs" textLength="347" x="-25.6349" y="296.7482">gridCellsDictionary&lt;Vector3Int,PlacedCellObjectData&gt;</text><!--MD5=[b5d3f52664be64d870ccbff243e14848]
link PlacementGridData to Dictionary`2--><path d="M389.8,248.26 C389.35,268.49 388.17,287.72 386.23,302.53 " fill="none" id="PlacementGridData-&gt;Dictionary`2-1" style="stroke: #A80036; stroke-width: 1.0;"/><polygon fill="#A80036" points="385.49,307.79,390.7125,299.4398,386.1911,302.8394,382.7915,298.318,385.49,307.79" style="stroke: #A80036; stroke-width: 1.0;"/><text fill="#000000" font-family="sans-serif" font-size="13" lengthAdjust="spacingAndGlyphs" textLength="331" x="430.2056" y="296.7482">gridEdgesDictionary&lt;Edge,PlacedEdgeObjectData&gt;</text><!--MD5=[6b67617ceb11db2f1bc82daa8ca36a86]
@startuml
class PlacementGridData {
    xGridBoundMin : int
    xGridBoundMax : int
    zGridBoundMin : int
    zGridBoundMax : int
    + PlacementGridData(xMin:int, xMax:int, zMin:int, zMax:int)
    + IsSpaceFree(currentTilePosition:Vector3Int, objectSize:Vector2Int, rotation:int, edgePlacement:bool) : bool
    + IsSpaceOccupied(currentTilePosition:Vector3Int, objectSize:Vector2Int, rotation:int, edgePlacement:bool) : bool
    + GetCellPositions(currentTilePosition:Vector3Int, objectSize:Vector2Int, rotation:int) : List<Vector3Int>
    + GetEdgePositions(currentTilePosition:Vector3Int, size:Vector2Int, rotation:int) : List<Edge>
    + AddCellObject(index:int, ID:int, currentTilePosition:Vector3Int, objectSize:Vector2Int, rotation:int) : void
    + AddEdgeObject(index:int, ID:int, currentTilePosition:Vector3Int, objectSize:Vector2Int, rotation:int) : void
    + GetEdgesOccupiedForEdgeObject(selectedEdge:Edge) : List<Edge>
    + GetPositionsOccupiedForCellObject(currentTilePosition:Vector3Int) : List<Vector3Int>
    + GetStructureIDForEdgeObject(currentTilePosition:Vector3Int, rotation:int) : int
    + GetStructureIDForCellObject(currentTilePosition:Vector3Int) : int
}
class IsExternalInit {
}
class "Dictionary`2"<T1,T2> {
}
PlacementGridData - -> "gridCellsDictionary<Vector3Int,PlacedCellObjectData>" "Dictionary`2"
PlacementGridData - -> "gridEdgesDictionary<Edge,PlacedEdgeObjectData>" "Dictionary`2"
@enduml

PlantUML version 1.2020.02(Sun Mar 01 10:22:07 GMT 2020)
(GPL source distribution)
Java Runtime: OpenJDK Runtime Environment
JVM: OpenJDK 64-Bit Server VM
Java Version: 11.0.9+11-Ubuntu-0ubuntu1
Operating System: Linux
Default Encoding: ANSI_X3.4-1968
Language: en
Country: US
--></g></svg>