<?xml version="1.0" encoding="UTF-8" standalone="no"?><svg xmlns="http://www.w3.org/2000/svg" xmlns:xlink="http://www.w3.org/1999/xlink" contentScriptType="application/ecmascript" contentStyleType="text/css" height="265px" preserveAspectRatio="none" style="width:535px;height:265px;" version="1.1" viewBox="0 0 535 265" width="535px" zoomAndPan="magnify"><defs><filter height="300%" id="f1fhr399uqmkny" width="300%" x="-1" y="-1"><feGaussianBlur result="blurOut" stdDeviation="2.0"/><feColorMatrix in="blurOut" result="blurOut2" type="matrix" values="0 0 0 0 0 0 0 0 0 0 0 0 0 0 0 0 0 0 .4 0"/><feOffset dx="4.0" dy="4.0" in="blurOut2" result="blurOut3"/><feBlend in="SourceGraphic" in2="blurOut3" mode="normal"/></filter></defs><g><!--MD5=[e5024786f820de73fc80cce268a0ab94]
class PlacementSelector--><rect fill="#FEFECE" filter="url(#f1fhr399uqmkny)" height="137.6328" id="PlacementSelector" style="stroke: #A80036; stroke-width: 1.5;" width="518" x="6" y="8"/><ellipse cx="201.75" cy="24" fill="#ADD1B2" rx="11" ry="11" style="stroke: #A80036; stroke-width: 1.0;"/><path d="M204.7188,29.6406 Q204.1406,29.9375 203.5,30.0781 Q202.8594,30.2344 202.1563,30.2344 Q199.6563,30.2344 198.3281,28.5938 Q197.0156,26.9375 197.0156,23.8125 Q197.0156,20.6875 198.3281,19.0313 Q199.6563,17.375 202.1563,17.375 Q202.8594,17.375 203.5,17.5313 Q204.1563,17.6875 204.7188,17.9844 L204.7188,20.7031 Q204.0938,20.125 203.5,19.8594 Q202.9063,19.5781 202.2813,19.5781 Q200.9375,19.5781 200.25,20.6563 Q199.5625,21.7188 199.5625,23.8125 Q199.5625,25.9063 200.25,26.9844 Q200.9375,28.0469 202.2813,28.0469 Q202.9063,28.0469 203.5,27.7813 Q204.0938,27.5 204.7188,26.9219 L204.7188,29.6406 Z "/><text fill="#000000" font-family="sans-serif" font-size="12" lengthAdjust="spacingAndGlyphs" textLength="118" x="222.25" y="28.1543">PlacementSelector</text><line style="stroke: #A80036; stroke-width: 1.5;" x1="7" x2="523" y1="40" y2="40"/><ellipse cx="17" cy="51" fill="none" rx="3" ry="3" style="stroke: #038048; stroke-width: 1.0;"/><text fill="#000000" font-family="sans-serif" font-size="11" lengthAdjust="spacingAndGlyphs" textLength="437" x="26" y="54.2104">«event» OnSelectionChanged,OnSelectionFinished : Action&lt;SelectionResult&gt;</text><line style="stroke: #A80036; stroke-width: 1.5;" x1="7" x2="523" y1="60.8047" y2="60.8047"/><ellipse cx="17" cy="71.8047" fill="#84BE84" rx="3" ry="3" style="stroke: #038048; stroke-width: 1.0;"/><text fill="#000000" font-family="sans-serif" font-size="11" lengthAdjust="spacingAndGlyphs" textLength="492" x="26" y="75.0151">PlacementSelector(placementStrategy:SelectionStrategy, selectionData:SelectionData)</text><ellipse cx="17" cy="84.6094" fill="#84BE84" rx="3" ry="3" style="stroke: #038048; stroke-width: 1.0;"/><text fill="#000000" font-family="sans-serif" font-size="11" lengthAdjust="spacingAndGlyphs" textLength="307" x="26" y="87.8198">HandleSelectionStarted(mousePosition:Vector3) : void</text><ellipse cx="17" cy="97.4141" fill="#84BE84" rx="3" ry="3" style="stroke: #038048; stroke-width: 1.0;"/><text fill="#000000" font-family="sans-serif" font-size="11" lengthAdjust="spacingAndGlyphs" textLength="181" x="26" y="100.6245">HandleSelectionFinished() : void</text><ellipse cx="17" cy="110.2188" fill="#84BE84" rx="3" ry="3" style="stroke: #038048; stroke-width: 1.0;"/><text fill="#000000" font-family="sans-serif" font-size="11" lengthAdjust="spacingAndGlyphs" textLength="308" x="26" y="113.4292">HandleMouseMovement(mousePosition:Vector3) : void</text><ellipse cx="17" cy="123.0234" fill="#84BE84" rx="3" ry="3" style="stroke: #038048; stroke-width: 1.0;"/><text fill="#000000" font-family="sans-serif" font-size="11" lengthAdjust="spacingAndGlyphs" textLength="282" x="26" y="126.2339">HandleRotation(rotationAmount:Quaternion) : void</text><ellipse cx="17" cy="135.8281" fill="#84BE84" rx="3" ry="3" style="stroke: #038048; stroke-width: 1.0;"/><text fill="#000000" font-family="sans-serif" font-size="11" lengthAdjust="spacingAndGlyphs" textLength="127" x="26" y="139.0386">ResetSelection() : void</text><!--MD5=[480c10e7a6d2379fe0249543e63a8342]
class SelectionData--><rect fill="#FEFECE" filter="url(#f1fhr399uqmkny)" height="48" id="SelectionData" style="stroke: #A80036; stroke-width: 1.5;" width="120" x="38" y="206"/><ellipse cx="53" cy="222" fill="#ADD1B2" rx="11" ry="11" style="stroke: #A80036; stroke-width: 1.0;"/><path d="M55.9688,227.6406 Q55.3906,227.9375 54.75,228.0781 Q54.1094,228.2344 53.4063,228.2344 Q50.9063,228.2344 49.5781,226.5938 Q48.2656,224.9375 48.2656,221.8125 Q48.2656,218.6875 49.5781,217.0313 Q50.9063,215.375 53.4063,215.375 Q54.1094,215.375 54.75,215.5313 Q55.4063,215.6875 55.9688,215.9844 L55.9688,218.7031 Q55.3438,218.125 54.75,217.8594 Q54.1563,217.5781 53.5313,217.5781 Q52.1875,217.5781 51.5,218.6563 Q50.8125,219.7188 50.8125,221.8125 Q50.8125,223.9063 51.5,224.9844 Q52.1875,226.0469 53.5313,226.0469 Q54.1563,226.0469 54.75,225.7813 Q55.3438,225.5 55.9688,224.9219 L55.9688,227.6406 Z "/><text fill="#000000" font-family="sans-serif" font-size="12" lengthAdjust="spacingAndGlyphs" textLength="88" x="67" y="226.1543">SelectionData</text><line style="stroke: #A80036; stroke-width: 1.5;" x1="39" x2="157" y1="238" y2="238"/><line style="stroke: #A80036; stroke-width: 1.5;" x1="39" x2="157" y1="246" y2="246"/><!--MD5=[b9d97c2f6c0f798d1e584316650c0b1a]
class SelectionStrategy--><rect fill="#FEFECE" filter="url(#f1fhr399uqmkny)" height="48" id="SelectionStrategy" style="stroke: #A80036; stroke-width: 1.5;" width="143" x="193.5" y="206"/><ellipse cx="208.5" cy="222" fill="#ADD1B2" rx="11" ry="11" style="stroke: #A80036; stroke-width: 1.0;"/><path d="M211.4688,227.6406 Q210.8906,227.9375 210.25,228.0781 Q209.6094,228.2344 208.9063,228.2344 Q206.4063,228.2344 205.0781,226.5938 Q203.7656,224.9375 203.7656,221.8125 Q203.7656,218.6875 205.0781,217.0313 Q206.4063,215.375 208.9063,215.375 Q209.6094,215.375 210.25,215.5313 Q210.9063,215.6875 211.4688,215.9844 L211.4688,218.7031 Q210.8438,218.125 210.25,217.8594 Q209.6563,217.5781 209.0313,217.5781 Q207.6875,217.5781 207,218.6563 Q206.3125,219.7188 206.3125,221.8125 Q206.3125,223.9063 207,224.9844 Q207.6875,226.0469 209.0313,226.0469 Q209.6563,226.0469 210.25,225.7813 Q210.8438,225.5 211.4688,224.9219 L211.4688,227.6406 Z "/><text fill="#000000" font-family="sans-serif" font-size="12" lengthAdjust="spacingAndGlyphs" textLength="111" x="222.5" y="226.1543">SelectionStrategy</text><line style="stroke: #A80036; stroke-width: 1.5;" x1="194.5" x2="335.5" y1="238" y2="238"/><line style="stroke: #A80036; stroke-width: 1.5;" x1="194.5" x2="335.5" y1="246" y2="246"/><!--MD5=[17c7d1a9697b4feef45ee87666b08a6e]
link PlacementSelector to SelectionData--><path d="M189.32,146.43 C167.33,166.31 144.62,186.85 127.35,202.47 " fill="none" id="PlacementSelector-&gt;SelectionData" style="stroke: #A80036; stroke-width: 1.0;"/><polygon fill="#A80036" points="123.52,205.92,132.879,202.8526,127.2294,202.5673,127.5147,196.9176,123.52,205.92" style="stroke: #A80036; stroke-width: 1.0;"/><text fill="#000000" font-family="sans-serif" font-size="13" lengthAdjust="spacingAndGlyphs" textLength="88" x="30.7845" y="194.9115">selectionData</text><!--MD5=[f70085602742e415d04fa7a3d8a3f91d]
link PlacementSelector to SelectionStrategy--><path d="M252.3,146.43 C252.03,165.64 252.87,185.47 254.81,200.87 " fill="none" id="PlacementSelector-&gt;SelectionStrategy" style="stroke: #A80036; stroke-width: 1.0;"/><polygon fill="#A80036" points="255.52,205.92,258.2491,196.4568,254.8349,200.9672,250.3245,197.553,255.52,205.92" style="stroke: #A80036; stroke-width: 1.0;"/><text fill="#000000" font-family="sans-serif" font-size="13" lengthAdjust="spacingAndGlyphs" textLength="112" x="164.4428" y="194.9531">selectionStrategy</text><!--MD5=[f70085602742e415d04fa7a3d8a3f91d]
link PlacementSelector to SelectionStrategy--><path d="M278.45,146.43 C278.73,165.64 277.85,185.47 275.79,200.87 " fill="none" id="PlacementSelector-&gt;SelectionStrategy-1" style="stroke: #A80036; stroke-width: 1.0;"/><polygon fill="#A80036" points="275.04,205.92,280.3097,197.5995,275.7691,200.9734,272.3952,196.4329,275.04,205.92" style="stroke: #A80036; stroke-width: 1.0;"/><text fill="#000000" font-family="sans-serif" font-size="13" lengthAdjust="spacingAndGlyphs" textLength="162" x="298.369" y="194.9115">CurrentSelectionStrategy</text><!--MD5=[d0bbb7cee1be95700c6a605686b78bd2]
@startuml
class PlacementSelector {
    +  <<event>> OnSelectionChanged,OnSelectionFinished : Action<SelectionResult> 
    + PlacementSelector(placementStrategy:SelectionStrategy, selectionData:SelectionData)
    + HandleSelectionStarted(mousePosition:Vector3) : void
    + HandleSelectionFinished() : void
    + HandleMouseMovement(mousePosition:Vector3) : void
    + HandleRotation(rotationAmount:Quaternion) : void
    + ResetSelection() : void
}
PlacementSelector - -> "selectionData" SelectionData
PlacementSelector - -> "selectionStrategy" SelectionStrategy
PlacementSelector - -> "CurrentSelectionStrategy" SelectionStrategy
@enduml

PlantUML version 1.2020.02(Sun Mar 01 10:22:07 GMT 2020)
(GPL source distribution)
Java Runtime: OpenJDK Runtime Environment
JVM: OpenJDK 64-Bit Server VM
Java Version: 11.0.9+11-Ubuntu-0ubuntu1
Operating System: Linux
Default Encoding: ANSI_X3.4-1968
Language: en
Country: US
--></g></svg>