<?xml version="1.0" encoding="UTF-8" standalone="no"?><svg xmlns="http://www.w3.org/2000/svg" xmlns:xlink="http://www.w3.org/1999/xlink" contentScriptType="application/ecmascript" contentStyleType="text/css" height="213px" preserveAspectRatio="none" style="width:717px;height:213px;" version="1.1" viewBox="0 0 717 213" width="717px" zoomAndPan="magnify"><defs><filter height="300%" id="f1vl3ark3xzty0" width="300%" x="-1" y="-1"><feGaussianBlur result="blurOut" stdDeviation="2.0"/><feColorMatrix in="blurOut" result="blurOut2" type="matrix" values="0 0 0 0 0 0 0 0 0 0 0 0 0 0 0 0 0 0 .4 0"/><feOffset dx="4.0" dy="4.0" in="blurOut2" result="blurOut3"/><feBlend in="SourceGraphic" in2="blurOut3" mode="normal"/></filter></defs><g><!--MD5=[3e225947bbe2a4c7ac8c164db10945b1]
class PlacedEdgeObjectData--><rect fill="#FEFECE" filter="url(#f1vl3ark3xzty0)" height="86.4141" id="PlacedEdgeObjectData" style="stroke: #A80036; stroke-width: 1.5;" width="700" x="6" y="8"/><ellipse cx="279.75" cy="24" fill="#ADD1B2" rx="11" ry="11" style="stroke: #A80036; stroke-width: 1.0;"/><path d="M282.7188,29.6406 Q282.1406,29.9375 281.5,30.0781 Q280.8594,30.2344 280.1563,30.2344 Q277.6563,30.2344 276.3281,28.5938 Q275.0156,26.9375 275.0156,23.8125 Q275.0156,20.6875 276.3281,19.0313 Q277.6563,17.375 280.1563,17.375 Q280.8594,17.375 281.5,17.5313 Q282.1563,17.6875 282.7188,17.9844 L282.7188,20.7031 Q282.0938,20.125 281.5,19.8594 Q280.9063,19.5781 280.2813,19.5781 Q278.9375,19.5781 278.25,20.6563 Q277.5625,21.7188 277.5625,23.8125 Q277.5625,25.9063 278.25,26.9844 Q278.9375,28.0469 280.2813,28.0469 Q280.9063,28.0469 281.5,27.7813 Q282.0938,27.5 282.7188,26.9219 L282.7188,29.6406 Z "/><text fill="#000000" font-family="sans-serif" font-size="12" lengthAdjust="spacingAndGlyphs" textLength="144" x="300.25" y="28.1543">PlacedEdgeObjectData</text><line style="stroke: #A80036; stroke-width: 1.5;" x1="7" x2="705" y1="40" y2="40"/><ellipse cx="17" cy="51" fill="none" rx="3" ry="3" style="stroke: #038048; stroke-width: 1.0;"/><text fill="#000000" font-family="sans-serif" font-size="11" lengthAdjust="spacingAndGlyphs" textLength="124" x="26" y="54.2104">gameObjectIndex : int</text><ellipse cx="17" cy="63.8047" fill="none" rx="3" ry="3" style="stroke: #038048; stroke-width: 1.0;"/><text fill="#000000" font-family="sans-serif" font-size="11" lengthAdjust="spacingAndGlyphs" textLength="89" x="26" y="67.0151">structureID : int</text><line style="stroke: #A80036; stroke-width: 1.5;" x1="7" x2="705" y1="73.6094" y2="73.6094"/><ellipse cx="17" cy="84.6094" fill="#84BE84" rx="3" ry="3" style="stroke: #038048; stroke-width: 1.0;"/><text fill="#000000" font-family="sans-serif" font-size="11" lengthAdjust="spacingAndGlyphs" textLength="674" x="26" y="87.8198">PlacedEdgeObjectData(gameObjectIndex:int, structureID:int, positionsOccupied:IEnumerable&lt;Edge&gt;, origin:Vector3Int)</text><!--MD5=[6fcf91f8cf9ffbe80305b00d1b111ce3]
class IEnumerable`1--><rect fill="#FEFECE" filter="url(#f1vl3ark3xzty0)" height="48" id="IEnumerable`1" style="stroke: #A80036; stroke-width: 1.5;" width="135" x="213.5" y="154"/><ellipse cx="228.5" cy="170" fill="#ADD1B2" rx="11" ry="11" style="stroke: #A80036; stroke-width: 1.0;"/><path d="M231.4688,175.6406 Q230.8906,175.9375 230.25,176.0781 Q229.6094,176.2344 228.9063,176.2344 Q226.4063,176.2344 225.0781,174.5938 Q223.7656,172.9375 223.7656,169.8125 Q223.7656,166.6875 225.0781,165.0313 Q226.4063,163.375 228.9063,163.375 Q229.6094,163.375 230.25,163.5313 Q230.9063,163.6875 231.4688,163.9844 L231.4688,166.7031 Q230.8438,166.125 230.25,165.8594 Q229.6563,165.5781 229.0313,165.5781 Q227.6875,165.5781 227,166.6563 Q226.3125,167.7188 226.3125,169.8125 Q226.3125,171.9063 227,172.9844 Q227.6875,174.0469 229.0313,174.0469 Q229.6563,174.0469 230.25,173.7813 Q230.8438,173.5 231.4688,172.9219 L231.4688,175.6406 Z "/><text fill="#000000" font-family="sans-serif" font-size="12" lengthAdjust="spacingAndGlyphs" textLength="92" x="242.5" y="174.1543">IEnumerable`1</text><rect fill="#FFFFFF" height="15.9688" style="stroke: #000000; stroke-width: 1.0; stroke-dasharray: 2.0,2.0;" width="9" x="342.5" y="151"/><text fill="#000000" font-family="sans-serif" font-size="12" font-style="italic" lengthAdjust="spacingAndGlyphs" textLength="7" x="343.5" y="163.1387">T</text><line style="stroke: #A80036; stroke-width: 1.5;" x1="214.5" x2="347.5" y1="186" y2="186"/><line style="stroke: #A80036; stroke-width: 1.5;" x1="214.5" x2="347.5" y1="194" y2="194"/><!--MD5=[b82851eba8b96963309b8de495357535]
class Vector3Int--><rect fill="#FEFECE" filter="url(#f1vl3ark3xzty0)" height="48" id="Vector3Int" style="stroke: #A80036; stroke-width: 1.5;" width="97" x="383.5" y="154"/><ellipse cx="398.5" cy="170" fill="#ADD1B2" rx="11" ry="11" style="stroke: #A80036; stroke-width: 1.0;"/><path d="M401.4688,175.6406 Q400.8906,175.9375 400.25,176.0781 Q399.6094,176.2344 398.9063,176.2344 Q396.4063,176.2344 395.0781,174.5938 Q393.7656,172.9375 393.7656,169.8125 Q393.7656,166.6875 395.0781,165.0313 Q396.4063,163.375 398.9063,163.375 Q399.6094,163.375 400.25,163.5313 Q400.9063,163.6875 401.4688,163.9844 L401.4688,166.7031 Q400.8438,166.125 400.25,165.8594 Q399.6563,165.5781 399.0313,165.5781 Q397.6875,165.5781 397,166.6563 Q396.3125,167.7188 396.3125,169.8125 Q396.3125,171.9063 397,172.9844 Q397.6875,174.0469 399.0313,174.0469 Q399.6563,174.0469 400.25,173.7813 Q400.8438,173.5 401.4688,172.9219 L401.4688,175.6406 Z "/><text fill="#000000" font-family="sans-serif" font-size="12" lengthAdjust="spacingAndGlyphs" textLength="65" x="412.5" y="174.1543">Vector3Int</text><line style="stroke: #A80036; stroke-width: 1.5;" x1="384.5" x2="479.5" y1="186" y2="186"/><line style="stroke: #A80036; stroke-width: 1.5;" x1="384.5" x2="479.5" y1="194" y2="194"/><!--MD5=[d19f8b29b547e0809bb54d33988787ac]
link PlacedEdgeObjectData to IEnumerable`1--><path d="M330.61,94.32 C319.73,112.45 307.33,133.11 297.65,149.25 " fill="none" id="PlacedEdgeObjectData-&gt;IEnumerable`1" style="stroke: #A80036; stroke-width: 1.0;"/><polygon fill="#A80036" points="295,153.67,303.0604,148.0105,297.5725,149.3825,296.2005,143.8946,295,153.67" style="stroke: #A80036; stroke-width: 1.0;"/><text fill="#000000" font-family="sans-serif" font-size="13" lengthAdjust="spacingAndGlyphs" textLength="170" x="107.6938" y="142.9945">PositionsOccupied&lt;Edge&gt;</text><!--MD5=[224baf5543b3a2243bee5beffaa2dc56]
link PlacedEdgeObjectData to Vector3Int--><path d="M381.73,94.32 C392.75,112.45 405.32,133.11 415.13,149.25 " fill="none" id="PlacedEdgeObjectData-&gt;Vector3Int" style="stroke: #A80036; stroke-width: 1.0;"/><polygon fill="#A80036" points="417.82,153.67,416.5573,143.9024,415.2203,149.399,409.7237,148.062,417.82,153.67" style="stroke: #A80036; stroke-width: 1.0;"/><text fill="#000000" font-family="sans-serif" font-size="13" lengthAdjust="spacingAndGlyphs" textLength="35" x="375.098" y="142.9945">origin</text><!--MD5=[1efd847bfd061b93119b517b39be2f65]
@startuml
class PlacedEdgeObjectData {
    + gameObjectIndex : int
    + structureID : int
    + PlacedEdgeObjectData(gameObjectIndex:int, structureID:int, positionsOccupied:IEnumerable<Edge>, origin:Vector3Int)
}
class "IEnumerable`1"<T> {
}
PlacedEdgeObjectData - -> "PositionsOccupied<Edge>" "IEnumerable`1"
PlacedEdgeObjectData - -> "origin" Vector3Int
@enduml

PlantUML version 1.2020.02(Sun Mar 01 10:22:07 GMT 2020)
(GPL source distribution)
Java Runtime: OpenJDK Runtime Environment
JVM: OpenJDK 64-Bit Server VM
Java Version: 11.0.9+11-Ubuntu-0ubuntu1
Operating System: Linux
Default Encoding: ANSI_X3.4-1968
Language: en
Country: US
--></g></svg>