<?xml version="1.0" encoding="UTF-8" standalone="no"?><svg xmlns="http://www.w3.org/2000/svg" xmlns:xlink="http://www.w3.org/1999/xlink" contentScriptType="application/ecmascript" contentStyleType="text/css" height="187px" preserveAspectRatio="none" style="width:508px;height:187px;" version="1.1" viewBox="0 0 508 187" width="508px" zoomAndPan="magnify"><defs><filter height="300%" id="f65oeaqs5oxzz" width="300%" x="-1" y="-1"><feGaussianBlur result="blurOut" stdDeviation="2.0"/><feColorMatrix in="blurOut" result="blurOut2" type="matrix" values="0 0 0 0 0 0 0 0 0 0 0 0 0 0 0 0 0 0 .4 0"/><feOffset dx="4.0" dy="4.0" in="blurOut2" result="blurOut3"/><feBlend in="SourceGraphic" in2="blurOut3" mode="normal"/></filter></defs><g><!--MD5=[62205263d8c0b257a304b7fdebe43c25]
class RemovingState--><rect fill="#FEFECE" filter="url(#f65oeaqs5oxzz)" height="60.8047" id="RemovingState" style="stroke: #A80036; stroke-width: 1.5;" width="491" x="6" y="116"/><ellipse cx="200.25" cy="132" fill="#ADD1B2" rx="11" ry="11" style="stroke: #A80036; stroke-width: 1.0;"/><path d="M203.2188,137.6406 Q202.6406,137.9375 202,138.0781 Q201.3594,138.2344 200.6563,138.2344 Q198.1563,138.2344 196.8281,136.5938 Q195.5156,134.9375 195.5156,131.8125 Q195.5156,128.6875 196.8281,127.0313 Q198.1563,125.375 200.6563,125.375 Q201.3594,125.375 202,125.5313 Q202.6563,125.6875 203.2188,125.9844 L203.2188,128.7031 Q202.5938,128.125 202,127.8594 Q201.4063,127.5781 200.7813,127.5781 Q199.4375,127.5781 198.75,128.6563 Q198.0625,129.7188 198.0625,131.8125 Q198.0625,133.9063 198.75,134.9844 Q199.4375,136.0469 200.7813,136.0469 Q201.4063,136.0469 202,135.7813 Q202.5938,135.5 203.2188,134.9219 L203.2188,137.6406 Z "/><text fill="#000000" font-family="sans-serif" font-size="12" lengthAdjust="spacingAndGlyphs" textLength="94" x="220.75" y="136.1543">RemovingState</text><line style="stroke: #A80036; stroke-width: 1.5;" x1="7" x2="496" y1="148" y2="148"/><line style="stroke: #A80036; stroke-width: 1.5;" x1="7" x2="496" y1="156" y2="156"/><ellipse cx="17" cy="167" fill="#84BE84" rx="3" ry="3" style="stroke: #038048; stroke-width: 1.0;"/><text fill="#000000" font-family="sans-serif" font-size="11" lengthAdjust="spacingAndGlyphs" textLength="465" x="26" y="170.2104">RemovingState(gridManager:GridManager, gridData:GridData, itemData:ItemData)</text><!--MD5=[93a39f56209b9ca58574756748e779dd]
class BuildingState--><rect fill="#FEFECE" filter="url(#f65oeaqs5oxzz)" height="48" id="BuildingState" style="stroke: #A80036; stroke-width: 1.5;" width="115" x="194" y="8"/><ellipse cx="209" cy="24" fill="#ADD1B2" rx="11" ry="11" style="stroke: #A80036; stroke-width: 1.0;"/><path d="M211.9688,29.6406 Q211.3906,29.9375 210.75,30.0781 Q210.1094,30.2344 209.4063,30.2344 Q206.9063,30.2344 205.5781,28.5938 Q204.2656,26.9375 204.2656,23.8125 Q204.2656,20.6875 205.5781,19.0313 Q206.9063,17.375 209.4063,17.375 Q210.1094,17.375 210.75,17.5313 Q211.4063,17.6875 211.9688,17.9844 L211.9688,20.7031 Q211.3438,20.125 210.75,19.8594 Q210.1563,19.5781 209.5313,19.5781 Q208.1875,19.5781 207.5,20.6563 Q206.8125,21.7188 206.8125,23.8125 Q206.8125,25.9063 207.5,26.9844 Q208.1875,28.0469 209.5313,28.0469 Q210.1563,28.0469 210.75,27.7813 Q211.3438,27.5 211.9688,26.9219 L211.9688,29.6406 Z "/><text fill="#000000" font-family="sans-serif" font-size="12" lengthAdjust="spacingAndGlyphs" textLength="83" x="223" y="28.1543">BuildingState</text><line style="stroke: #A80036; stroke-width: 1.5;" x1="195" x2="308" y1="40" y2="40"/><line style="stroke: #A80036; stroke-width: 1.5;" x1="195" x2="308" y1="48" y2="48"/><!--MD5=[0901f9e942008d7d1f5f27ccb36b5a8c]
reverse link BuildingState to RemovingState--><path d="M251.5,76.11 C251.5,89.31 251.5,103.54 251.5,115.65 " fill="none" id="BuildingState&lt;-RemovingState" style="stroke: #A80036; stroke-width: 1.0;"/><polygon fill="none" points="244.5,76.04,251.5,56.04,258.5,76.04,244.5,76.04" style="stroke: #A80036; stroke-width: 1.0;"/><!--MD5=[20ada1ea0f460f8fb2bdca959f7f6a88]
@startuml
class RemovingState {
    + RemovingState(gridManager:GridManager, gridData:GridData, itemData:ItemData)
}
BuildingState <|- - RemovingState
@enduml

PlantUML version 1.2020.02(Sun Mar 01 10:22:07 GMT 2020)
(GPL source distribution)
Java Runtime: OpenJDK Runtime Environment
JVM: OpenJDK 64-Bit Server VM
Java Version: 11.0.9+11-Ubuntu-0ubuntu1
Operating System: Linux
Default Encoding: ANSI_X3.4-1968
Language: en
Country: US
--></g></svg>