<?xml version="1.0" encoding="UTF-8" standalone="no"?><svg xmlns="http://www.w3.org/2000/svg" xmlns:xlink="http://www.w3.org/1999/xlink" contentScriptType="application/ecmascript" contentStyleType="text/css" height="200px" preserveAspectRatio="none" style="width:154px;height:200px;" version="1.1" viewBox="0 0 154 200" width="154px" zoomAndPan="magnify"><defs><filter height="300%" id="fmigy3tfonoel" width="300%" x="-1" y="-1"><feGaussianBlur result="blurOut" stdDeviation="2.0"/><feColorMatrix in="blurOut" result="blurOut2" type="matrix" values="0 0 0 0 0 0 0 0 0 0 0 0 0 0 0 0 0 0 .4 0"/><feOffset dx="4.0" dy="4.0" in="blurOut2" result="blurOut3"/><feBlend in="SourceGraphic" in2="blurOut3" mode="normal"/></filter></defs><g><!--MD5=[fa77f3d415764d14fd520c5b407c209c]
class SaveLoadSystem--><rect fill="#FEFECE" filter="url(#fmigy3tfonoel)" height="73.6094" id="SaveLoadSystem" style="stroke: #A80036; stroke-width: 1.5;" width="137" x="6" y="116"/><ellipse cx="21" cy="132" fill="#ADD1B2" rx="11" ry="11" style="stroke: #A80036; stroke-width: 1.0;"/><path d="M23.9688,137.6406 Q23.3906,137.9375 22.75,138.0781 Q22.1094,138.2344 21.4063,138.2344 Q18.9063,138.2344 17.5781,136.5938 Q16.2656,134.9375 16.2656,131.8125 Q16.2656,128.6875 17.5781,127.0313 Q18.9063,125.375 21.4063,125.375 Q22.1094,125.375 22.75,125.5313 Q23.4063,125.6875 23.9688,125.9844 L23.9688,128.7031 Q23.3438,128.125 22.75,127.8594 Q22.1563,127.5781 21.5313,127.5781 Q20.1875,127.5781 19.5,128.6563 Q18.8125,129.7188 18.8125,131.8125 Q18.8125,133.9063 19.5,134.9844 Q20.1875,136.0469 21.5313,136.0469 Q22.1563,136.0469 22.75,135.7813 Q23.3438,135.5 23.9688,134.9219 L23.9688,137.6406 Z "/><text fill="#000000" font-family="sans-serif" font-size="12" lengthAdjust="spacingAndGlyphs" textLength="105" x="35" y="136.1543">SaveLoadSystem</text><line style="stroke: #A80036; stroke-width: 1.5;" x1="7" x2="142" y1="148" y2="148"/><line style="stroke: #A80036; stroke-width: 1.5;" x1="7" x2="142" y1="156" y2="156"/><text fill="#000000" font-family="sans-serif" font-size="11" lengthAdjust="spacingAndGlyphs" textLength="97" x="12" y="170.2104">SaveData() : void</text><text fill="#000000" font-family="sans-serif" font-size="11" lengthAdjust="spacingAndGlyphs" textLength="83" x="12" y="183.0151">Update() : void</text><!--MD5=[83b3cf3d23d77c6f1e1b5291a241bc2a]
class MonoBehaviour--><rect fill="#FEFECE" filter="url(#fmigy3tfonoel)" height="48" id="MonoBehaviour" style="stroke: #A80036; stroke-width: 1.5;" width="128" x="10.5" y="8"/><ellipse cx="25.5" cy="24" fill="#ADD1B2" rx="11" ry="11" style="stroke: #A80036; stroke-width: 1.0;"/><path d="M28.4688,29.6406 Q27.8906,29.9375 27.25,30.0781 Q26.6094,30.2344 25.9063,30.2344 Q23.4063,30.2344 22.0781,28.5938 Q20.7656,26.9375 20.7656,23.8125 Q20.7656,20.6875 22.0781,19.0313 Q23.4063,17.375 25.9063,17.375 Q26.6094,17.375 27.25,17.5313 Q27.9063,17.6875 28.4688,17.9844 L28.4688,20.7031 Q27.8438,20.125 27.25,19.8594 Q26.6563,19.5781 26.0313,19.5781 Q24.6875,19.5781 24,20.6563 Q23.3125,21.7188 23.3125,23.8125 Q23.3125,25.9063 24,26.9844 Q24.6875,28.0469 26.0313,28.0469 Q26.6563,28.0469 27.25,27.7813 Q27.8438,27.5 28.4688,26.9219 L28.4688,29.6406 Z "/><text fill="#000000" font-family="sans-serif" font-size="12" lengthAdjust="spacingAndGlyphs" textLength="96" x="39.5" y="28.1543">MonoBehaviour</text><line style="stroke: #A80036; stroke-width: 1.5;" x1="11.5" x2="137.5" y1="40" y2="40"/><line style="stroke: #A80036; stroke-width: 1.5;" x1="11.5" x2="137.5" y1="48" y2="48"/><!--MD5=[6bb63caa56165012d8fca0ab8dbdf938]
reverse link MonoBehaviour to SaveLoadSystem--><path d="M74.5,76.43 C74.5,89.33 74.5,103.32 74.5,115.71 " fill="none" id="MonoBehaviour&lt;-SaveLoadSystem" style="stroke: #A80036; stroke-width: 1.0;"/><polygon fill="none" points="67.5,76.23,74.5,56.23,81.5,76.23,67.5,76.23" style="stroke: #A80036; stroke-width: 1.0;"/><!--MD5=[14dee9ec5ea87c88d50eb167eb62b9e2]
@startuml
class SaveLoadSystem {
    SaveData() : void
    Update() : void
}
MonoBehaviour <|- - SaveLoadSystem
@enduml

PlantUML version 1.2020.02(Sun Mar 01 10:22:07 GMT 2020)
(GPL source distribution)
Java Runtime: OpenJDK Runtime Environment
JVM: OpenJDK 64-Bit Server VM
Java Version: 11.0.9+11-Ubuntu-0ubuntu1
Operating System: Linux
Default Encoding: ANSI_X3.4-1968
Language: en
Country: US
--></g></svg>