<?xml version="1.0" encoding="UTF-8" standalone="no"?><svg xmlns="http://www.w3.org/2000/svg" xmlns:xlink="http://www.w3.org/1999/xlink" contentScriptType="application/ecmascript" contentStyleType="text/css" height="354px" preserveAspectRatio="none" style="width:552px;height:354px;" version="1.1" viewBox="0 0 552 354" width="552px" zoomAndPan="magnify"><defs><filter height="300%" id="f1a74p37kqr7ck" width="300%" x="-1" y="-1"><feGaussianBlur result="blurOut" stdDeviation="2.0"/><feColorMatrix in="blurOut" result="blurOut2" type="matrix" values="0 0 0 0 0 0 0 0 0 0 0 0 0 0 0 0 0 0 .4 0"/><feOffset dx="4.0" dy="4.0" in="blurOut2" result="blurOut3"/><feBlend in="SourceGraphic" in2="blurOut3" mode="normal"/></filter></defs><g><!--MD5=[480c10e7a6d2379fe0249543e63a8342]
class SelectionData--><rect fill="#FEFECE" filter="url(#f1a74p37kqr7ck)" height="227.2656" id="SelectionData" style="stroke: #A80036; stroke-width: 1.5;" width="399" x="6" y="8"/><ellipse cx="157.25" cy="24" fill="#ADD1B2" rx="11" ry="11" style="stroke: #A80036; stroke-width: 1.0;"/><path d="M160.2188,29.6406 Q159.6406,29.9375 159,30.0781 Q158.3594,30.2344 157.6563,30.2344 Q155.1563,30.2344 153.8281,28.5938 Q152.5156,26.9375 152.5156,23.8125 Q152.5156,20.6875 153.8281,19.0313 Q155.1563,17.375 157.6563,17.375 Q158.3594,17.375 159,17.5313 Q159.6563,17.6875 160.2188,17.9844 L160.2188,20.7031 Q159.5938,20.125 159,19.8594 Q158.4063,19.5781 157.7813,19.5781 Q156.4375,19.5781 155.75,20.6563 Q155.0625,21.7188 155.0625,23.8125 Q155.0625,25.9063 155.75,26.9844 Q156.4375,28.0469 157.7813,28.0469 Q158.4063,28.0469 159,27.7813 Q159.5938,27.5 160.2188,26.9219 L160.2188,29.6406 Z "/><text fill="#000000" font-family="sans-serif" font-size="12" lengthAdjust="spacingAndGlyphs" textLength="88" x="177.75" y="28.1543">SelectionData</text><line style="stroke: #A80036; stroke-width: 1.5;" x1="7" x2="404" y1="40" y2="40"/><ellipse cx="17" cy="51" fill="none" rx="3" ry="3" style="stroke: #038048; stroke-width: 1.0;"/><text fill="#000000" font-family="sans-serif" font-size="11" lengthAdjust="spacingAndGlyphs" textLength="207" x="26" y="54.2104">PlacementValidity : bool «set» «get»</text><line style="stroke: #A80036; stroke-width: 1.5;" x1="7" x2="404" y1="60.8047" y2="60.8047"/><ellipse cx="17" cy="71.8047" fill="#84BE84" rx="3" ry="3" style="stroke: #038048; stroke-width: 1.0;"/><text fill="#000000" font-family="sans-serif" font-size="11" lengthAdjust="spacingAndGlyphs" textLength="229" x="26" y="75.0151">SelectionData(placedItemData:ItemData)</text><ellipse cx="17" cy="84.6094" fill="#84BE84" rx="3" ry="3" style="stroke: #038048; stroke-width: 1.0;"/><text fill="#000000" font-family="sans-serif" font-size="11" lengthAdjust="spacingAndGlyphs" textLength="73" x="26" y="87.8198">Clear() : void</text><ellipse cx="17" cy="97.4141" fill="#84BE84" rx="3" ry="3" style="stroke: #038048; stroke-width: 1.0;"/><text fill="#000000" font-family="sans-serif" font-size="11" lengthAdjust="spacingAndGlyphs" textLength="236" x="26" y="100.6245">AddToGridPositions(pos:Vector3Int) : void</text><ellipse cx="17" cy="110.2188" fill="#84BE84" rx="3" ry="3" style="stroke: #038048; stroke-width: 1.0;"/><text fill="#000000" font-family="sans-serif" font-size="11" lengthAdjust="spacingAndGlyphs" textLength="229" x="26" y="113.4292">AddToWorldPositions(pos:Vector3) : void</text><ellipse cx="17" cy="123.0234" fill="#84BE84" rx="3" ry="3" style="stroke: #038048; stroke-width: 1.0;"/><text fill="#000000" font-family="sans-serif" font-size="11" lengthAdjust="spacingAndGlyphs" textLength="242" x="26" y="126.2339">AddToPreviewPositions(pos:Vector3) : void</text><ellipse cx="17" cy="135.8281" fill="#84BE84" rx="3" ry="3" style="stroke: #038048; stroke-width: 1.0;"/><text fill="#000000" font-family="sans-serif" font-size="11" lengthAdjust="spacingAndGlyphs" textLength="260" x="26" y="139.0386">GetSelectedGridPositions() : List&lt;Vector3Int&gt;</text><ellipse cx="17" cy="148.6328" fill="#84BE84" rx="3" ry="3" style="stroke: #038048; stroke-width: 1.0;"/><text fill="#000000" font-family="sans-serif" font-size="11" lengthAdjust="spacingAndGlyphs" textLength="253" x="26" y="151.8433">GetSelectedWorldPositions() : List&lt;Vector3&gt;</text><ellipse cx="17" cy="161.4375" fill="#84BE84" rx="3" ry="3" style="stroke: #038048; stroke-width: 1.0;"/><text fill="#000000" font-family="sans-serif" font-size="11" lengthAdjust="spacingAndGlyphs" textLength="241" x="26" y="164.6479">GetPreviewGridPositions() : List&lt;Vector3&gt;</text><ellipse cx="17" cy="174.2422" fill="#84BE84" rx="3" ry="3" style="stroke: #038048; stroke-width: 1.0;"/><text fill="#000000" font-family="sans-serif" font-size="11" lengthAdjust="spacingAndGlyphs" textLength="324" x="26" y="177.4526">GetSelectedPositionsObjectRotation() : List&lt;Quaternion&gt;</text><ellipse cx="17" cy="187.0469" fill="#84BE84" rx="3" ry="3" style="stroke: #038048; stroke-width: 1.0;"/><text fill="#000000" font-family="sans-serif" font-size="11" lengthAdjust="spacingAndGlyphs" textLength="312" x="26" y="190.2573">GetSelectedPositionsGridRotation() : List&lt;Quaternion&gt;</text><ellipse cx="17" cy="199.8516" fill="#84BE84" rx="3" ry="3" style="stroke: #038048; stroke-width: 1.0;"/><text fill="#000000" font-family="sans-serif" font-size="11" lengthAdjust="spacingAndGlyphs" textLength="153" x="26" y="203.062">GetData() : SelectionResult</text><ellipse cx="17" cy="212.6563" fill="#84BE84" rx="3" ry="3" style="stroke: #038048; stroke-width: 1.0;"/><text fill="#000000" font-family="sans-serif" font-size="11" lengthAdjust="spacingAndGlyphs" textLength="336" x="26" y="215.8667">SetObjectRotation(objectsRotation:List&lt;Quaternion&gt;) : void</text><ellipse cx="17" cy="225.4609" fill="#84BE84" rx="3" ry="3" style="stroke: #038048; stroke-width: 1.0;"/><text fill="#000000" font-family="sans-serif" font-size="11" lengthAdjust="spacingAndGlyphs" textLength="373" x="26" y="228.6714">SetGridCheckRotation(gridCheckRotation:List&lt;Quaternion&gt;) : void</text><!--MD5=[9f3fcd8bc4efc713d6f54d260476c26d]
class ItemData--><rect fill="#FEFECE" filter="url(#f1a74p37kqr7ck)" height="48" id="ItemData" style="stroke: #A80036; stroke-width: 1.5;" width="89" x="161" y="295"/><ellipse cx="176" cy="311" fill="#ADD1B2" rx="11" ry="11" style="stroke: #A80036; stroke-width: 1.0;"/><path d="M178.9688,316.6406 Q178.3906,316.9375 177.75,317.0781 Q177.1094,317.2344 176.4063,317.2344 Q173.9063,317.2344 172.5781,315.5938 Q171.2656,313.9375 171.2656,310.8125 Q171.2656,307.6875 172.5781,306.0313 Q173.9063,304.375 176.4063,304.375 Q177.1094,304.375 177.75,304.5313 Q178.4063,304.6875 178.9688,304.9844 L178.9688,307.7031 Q178.3438,307.125 177.75,306.8594 Q177.1563,306.5781 176.5313,306.5781 Q175.1875,306.5781 174.5,307.6563 Q173.8125,308.7188 173.8125,310.8125 Q173.8125,312.9063 174.5,313.9844 Q175.1875,315.0469 176.5313,315.0469 Q177.1563,315.0469 177.75,314.7813 Q178.3438,314.5 178.9688,313.9219 L178.9688,316.6406 Z "/><text fill="#000000" font-family="sans-serif" font-size="12" lengthAdjust="spacingAndGlyphs" textLength="57" x="190" y="315.1543">ItemData</text><line style="stroke: #A80036; stroke-width: 1.5;" x1="162" x2="249" y1="327" y2="327"/><line style="stroke: #A80036; stroke-width: 1.5;" x1="162" x2="249" y1="335" y2="335"/><!--MD5=[4c7b140fed10e9877852f4b8dc88c33d]
class Quaternion--><rect fill="#FEFECE" filter="url(#f1a74p37kqr7ck)" height="48" id="Quaternion" style="stroke: #A80036; stroke-width: 1.5;" width="102" x="439.5" y="97.5"/><ellipse cx="454.5" cy="113.5" fill="#ADD1B2" rx="11" ry="11" style="stroke: #A80036; stroke-width: 1.0;"/><path d="M457.4688,119.1406 Q456.8906,119.4375 456.25,119.5781 Q455.6094,119.7344 454.9063,119.7344 Q452.4063,119.7344 451.0781,118.0938 Q449.7656,116.4375 449.7656,113.3125 Q449.7656,110.1875 451.0781,108.5313 Q452.4063,106.875 454.9063,106.875 Q455.6094,106.875 456.25,107.0313 Q456.9063,107.1875 457.4688,107.4844 L457.4688,110.2031 Q456.8438,109.625 456.25,109.3594 Q455.6563,109.0781 455.0313,109.0781 Q453.6875,109.0781 453,110.1563 Q452.3125,111.2188 452.3125,113.3125 Q452.3125,115.4063 453,116.4844 Q453.6875,117.5469 455.0313,117.5469 Q455.6563,117.5469 456.25,117.2813 Q456.8438,117 457.4688,116.4219 L457.4688,119.1406 Z "/><text fill="#000000" font-family="sans-serif" font-size="12" lengthAdjust="spacingAndGlyphs" textLength="70" x="468.5" y="117.6543">Quaternion</text><line style="stroke: #A80036; stroke-width: 1.5;" x1="440.5" x2="540.5" y1="129.5" y2="129.5"/><line style="stroke: #A80036; stroke-width: 1.5;" x1="440.5" x2="540.5" y1="137.5" y2="137.5"/><!--MD5=[335153de0398e2df50d5078a702068f9]
link SelectionData to ItemData--><path d="M205.5,235.09 C205.5,255.35 205.5,274.74 205.5,289.67 " fill="none" id="SelectionData-&gt;ItemData" style="stroke: #A80036; stroke-width: 1.0;"/><polygon fill="#A80036" points="205.5,294.96,209.5,285.96,205.5,289.96,201.5,285.96,205.5,294.96" style="stroke: #A80036; stroke-width: 1.0;"/><text fill="#000000" font-family="sans-serif" font-size="13" lengthAdjust="spacingAndGlyphs" textLength="102" x="90.4313" y="283.9618">PlacedItemData</text><!--MD5=[21ffa028bdad52ea4a68b846e8fe5bc0]
link SelectionData to Quaternion--><path d="M417.06,121.5 C417.06,121.5 423.52,121.5 426.17,121.5 " fill="none" id="SelectionData-Quaternion" style="stroke: #A80036; stroke-width: 1.0;"/><polygon fill="#A80036" points="439.43,121.5,430.43,117.5,434.43,121.5,430.43,125.5,439.43,121.5" style="stroke: #A80036; stroke-width: 1.0;"/><line style="stroke: #A80036; stroke-width: 1.0;" x1="434.43" x2="426.43" y1="121.5" y2="121.5"/><polygon fill="#FFFFFF" points="405.06,121.5,411.06,125.5,417.06,121.5,411.06,117.5,405.06,121.5" style="stroke: #A80036; stroke-width: 1.0;"/><text fill="#000000" font-family="sans-serif" font-size="13" lengthAdjust="spacingAndGlyphs" textLength="53" x="377.9493" y="111.8204">Rotation</text><!--MD5=[a7f0dfd90dec75fa5bc8984580fc3fd7]
@startuml
class SelectionData {
    + PlacementValidity : bool <<set>> <<get>>
    + SelectionData(placedItemData:ItemData)
    + Clear() : void
    + AddToGridPositions(pos:Vector3Int) : void
    + AddToWorldPositions(pos:Vector3) : void
    + AddToPreviewPositions(pos:Vector3) : void
    + GetSelectedGridPositions() : List<Vector3Int>
    + GetSelectedWorldPositions() : List<Vector3>
    + GetPreviewGridPositions() : List<Vector3>
    + GetSelectedPositionsObjectRotation() : List<Quaternion>
    + GetSelectedPositionsGridRotation() : List<Quaternion>
    + GetData() : SelectionResult
    + SetObjectRotation(objectsRotation:List<Quaternion>) : void
    + SetGridCheckRotation(gridCheckRotation:List<Quaternion>) : void
}
SelectionData - -> "PlacedItemData" ItemData
SelectionData o-> "Rotation" Quaternion
@enduml

PlantUML version 1.2020.02(Sun Mar 01 10:22:07 GMT 2020)
(GPL source distribution)
Java Runtime: OpenJDK Runtime Environment
JVM: OpenJDK 64-Bit Server VM
Java Version: 11.0.9+11-Ubuntu-0ubuntu1
Operating System: Linux
Default Encoding: ANSI_X3.4-1968
Language: en
Country: US
--></g></svg>