<?xml version="1.0" encoding="UTF-8" standalone="no"?><svg xmlns="http://www.w3.org/2000/svg" xmlns:xlink="http://www.w3.org/1999/xlink" contentScriptType="application/ecmascript" contentStyleType="text/css" height="207px" preserveAspectRatio="none" style="width:805px;height:207px;" version="1.1" viewBox="0 0 805 207" width="805px" zoomAndPan="magnify"><defs><filter height="300%" id="f116k6lbems38i" width="300%" x="-1" y="-1"><feGaussianBlur result="blurOut" stdDeviation="2.0"/><feColorMatrix in="blurOut" result="blurOut2" type="matrix" values="0 0 0 0 0 0 0 0 0 0 0 0 0 0 0 0 0 0 .4 0"/><feOffset dx="4.0" dy="4.0" in="blurOut2" result="blurOut3"/><feBlend in="SourceGraphic" in2="blurOut3" mode="normal"/></filter></defs><g><!--MD5=[ab26b3a5b2958d69171bc0ef878d65b6]
class SelectionResult--><rect fill="#FEFECE" filter="url(#f116k6lbems38i)" height="79.5469" id="SelectionResult" style="stroke: #A80036; stroke-width: 1.5;" width="161" x="217.38" y="8"/><ellipse cx="246.78" cy="26.9688" fill="#ADD1B2" rx="11" ry="11" style="stroke: #A80036; stroke-width: 1.0;"/><path d="M249.7488,32.6094 Q249.1706,32.9063 248.53,33.0469 Q247.8894,33.2031 247.1863,33.2031 Q244.6863,33.2031 243.3581,31.5625 Q242.0456,29.9063 242.0456,26.7813 Q242.0456,23.6563 243.3581,22 Q244.6863,20.3438 247.1863,20.3438 Q247.8894,20.3438 248.53,20.5 Q249.1863,20.6563 249.7488,20.9531 L249.7488,23.6719 Q249.1238,23.0938 248.53,22.8281 Q247.9363,22.5469 247.3113,22.5469 Q245.9675,22.5469 245.28,23.625 Q244.5925,24.6875 244.5925,26.7813 Q244.5925,28.875 245.28,29.9531 Q245.9675,31.0156 247.3113,31.0156 Q247.9363,31.0156 248.53,30.75 Q249.1238,30.4688 249.7488,29.8906 L249.7488,32.6094 Z "/><text fill="#000000" font-family="sans-serif" font-size="12" font-style="italic" lengthAdjust="spacingAndGlyphs" textLength="50" x="287.48" y="24.1387">«struct»</text><text fill="#000000" font-family="sans-serif" font-size="12" lengthAdjust="spacingAndGlyphs" textLength="97" x="263.98" y="38.1074">SelectionResult</text><line style="stroke: #A80036; stroke-width: 1.5;" x1="218.38" x2="377.38" y1="45.9375" y2="45.9375"/><ellipse cx="228.38" cy="56.9375" fill="none" rx="3" ry="3" style="stroke: #038048; stroke-width: 1.0;"/><text fill="#000000" font-family="sans-serif" font-size="11" lengthAdjust="spacingAndGlyphs" textLength="135" x="237.38" y="60.1479">placementValidity : bool</text><ellipse cx="228.38" cy="69.7422" fill="none" rx="3" ry="3" style="stroke: #038048; stroke-width: 1.0;"/><text fill="#000000" font-family="sans-serif" font-size="11" lengthAdjust="spacingAndGlyphs" textLength="127" x="237.38" y="72.9526">isEdgeStructure : bool</text><line style="stroke: #A80036; stroke-width: 1.5;" x1="218.38" x2="377.38" y1="79.5469" y2="79.5469"/><!--MD5=[e644022de7dea015dd09463c37421447]
class List`1--><rect fill="#FEFECE" filter="url(#f116k6lbems38i)" height="48" id="List`1" style="stroke: #A80036; stroke-width: 1.5;" width="78" x="258.88" y="148"/><ellipse cx="273.88" cy="164" fill="#ADD1B2" rx="11" ry="11" style="stroke: #A80036; stroke-width: 1.0;"/><path d="M276.8488,169.6406 Q276.2706,169.9375 275.63,170.0781 Q274.9894,170.2344 274.2863,170.2344 Q271.7863,170.2344 270.4581,168.5938 Q269.1456,166.9375 269.1456,163.8125 Q269.1456,160.6875 270.4581,159.0313 Q271.7863,157.375 274.2863,157.375 Q274.9894,157.375 275.63,157.5313 Q276.2863,157.6875 276.8488,157.9844 L276.8488,160.7031 Q276.2238,160.125 275.63,159.8594 Q275.0363,159.5781 274.4113,159.5781 Q273.0675,159.5781 272.38,160.6563 Q271.6925,161.7188 271.6925,163.8125 Q271.6925,165.9063 272.38,166.9844 Q273.0675,168.0469 274.4113,168.0469 Q275.0363,168.0469 275.63,167.7813 Q276.2238,167.5 276.8488,166.9219 L276.8488,169.6406 Z "/><text fill="#000000" font-family="sans-serif" font-size="12" lengthAdjust="spacingAndGlyphs" textLength="35" x="287.88" y="168.1543">List`1</text><rect fill="#FFFFFF" height="15.9688" style="stroke: #000000; stroke-width: 1.0; stroke-dasharray: 2.0,2.0;" width="9" x="330.88" y="145"/><text fill="#000000" font-family="sans-serif" font-size="12" font-style="italic" lengthAdjust="spacingAndGlyphs" textLength="7" x="331.88" y="157.1387">T</text><line style="stroke: #A80036; stroke-width: 1.5;" x1="259.88" x2="335.88" y1="180" y2="180"/><line style="stroke: #A80036; stroke-width: 1.5;" x1="259.88" x2="335.88" y1="188" y2="188"/><!--MD5=[93fe7800e575c20b85b745370e1c4e4b]
class Vector2Int--><rect fill="#FEFECE" filter="url(#f116k6lbems38i)" height="48" id="Vector2Int" style="stroke: #A80036; stroke-width: 1.5;" width="97" x="372.38" y="148"/><ellipse cx="387.38" cy="164" fill="#ADD1B2" rx="11" ry="11" style="stroke: #A80036; stroke-width: 1.0;"/><path d="M390.3488,169.6406 Q389.7706,169.9375 389.13,170.0781 Q388.4894,170.2344 387.7863,170.2344 Q385.2863,170.2344 383.9581,168.5938 Q382.6456,166.9375 382.6456,163.8125 Q382.6456,160.6875 383.9581,159.0313 Q385.2863,157.375 387.7863,157.375 Q388.4894,157.375 389.13,157.5313 Q389.7863,157.6875 390.3488,157.9844 L390.3488,160.7031 Q389.7238,160.125 389.13,159.8594 Q388.5363,159.5781 387.9113,159.5781 Q386.5675,159.5781 385.88,160.6563 Q385.1925,161.7188 385.1925,163.8125 Q385.1925,165.9063 385.88,166.9844 Q386.5675,168.0469 387.9113,168.0469 Q388.5363,168.0469 389.13,167.7813 Q389.7238,167.5 390.3488,166.9219 L390.3488,169.6406 Z "/><text fill="#000000" font-family="sans-serif" font-size="12" lengthAdjust="spacingAndGlyphs" textLength="65" x="401.38" y="168.1543">Vector2Int</text><line style="stroke: #A80036; stroke-width: 1.5;" x1="373.38" x2="468.38" y1="180" y2="180"/><line style="stroke: #A80036; stroke-width: 1.5;" x1="373.38" x2="468.38" y1="188" y2="188"/><!--MD5=[3d15037b70092e75f46ed8bf6666f288]
link SelectionResult to List`1--><path d="M248.46,88.27 C242.62,108.05 245.08,131.34 255.85,148.15 " fill="none" id="SelectionResult-&gt;List`1" style="stroke: #A80036; stroke-width: 1.0;"/><polygon fill="#A80036" points="258.77,152.28,256.8451,142.6211,255.8855,148.196,250.3106,147.2363,258.77,152.28" style="stroke: #A80036; stroke-width: 1.0;"/><text fill="#000000" font-family="sans-serif" font-size="13" lengthAdjust="spacingAndGlyphs" textLength="183" x="67.811" y="147.6922">selectedPositions&lt;Vector3&gt;</text><!--MD5=[3d15037b70092e75f46ed8bf6666f288]
link SelectionResult to List`1--><path d="M273.17,88.27 C270.54,106.07 271.28,126.72 275.38,142.93 " fill="none" id="SelectionResult-&gt;List`1-1" style="stroke: #A80036; stroke-width: 1.0;"/><polygon fill="#A80036" points="276.76,147.81,278.168,138.0623,275.4034,142.9976,270.4681,140.2329,276.76,147.81" style="stroke: #A80036; stroke-width: 1.0;"/><text fill="#000000" font-family="sans-serif" font-size="13" lengthAdjust="spacingAndGlyphs" textLength="225" x="300.1761" y="136.7733">selectedGridPositions&lt;Vector3Int&gt;</text><!--MD5=[3d15037b70092e75f46ed8bf6666f288]
link SelectionResult to List`1--><path d="M297.88,88.27 C297.88,105.92 297.88,126.36 297.88,142.51 " fill="none" id="SelectionResult-&gt;List`1-2" style="stroke: #A80036; stroke-width: 1.0;"/><polygon fill="#A80036" points="297.88,147.81,301.88,138.81,297.88,142.81,293.88,138.81,297.88,147.81" style="stroke: #A80036; stroke-width: 1.0;"/><text fill="#000000" font-family="sans-serif" font-size="13" lengthAdjust="spacingAndGlyphs" textLength="231" x="19.2363" y="153.0197">selectedPreviewPositions&lt;Vector3&gt;</text><!--MD5=[3d15037b70092e75f46ed8bf6666f288]
link SelectionResult to List`1--><path d="M322.59,88.27 C325.22,106.07 324.48,126.72 320.38,142.93 " fill="none" id="SelectionResult-&gt;List`1-3" style="stroke: #A80036; stroke-width: 1.0;"/><polygon fill="#A80036" points="319,147.81,325.2978,140.2378,320.3604,142.9986,317.5995,138.0612,319,147.81" style="stroke: #A80036; stroke-width: 1.0;"/><text fill="#000000" font-family="sans-serif" font-size="13" lengthAdjust="spacingAndGlyphs" textLength="298" x="-11.7693" y="136.7733">selectedPositionsObjectRotation&lt;Quaternion&gt;</text><!--MD5=[3d15037b70092e75f46ed8bf6666f288]
link SelectionResult to List`1--><path d="M347.3,88.27 C353.14,108.05 350.67,131.34 339.9,148.15 " fill="none" id="SelectionResult-&gt;List`1-4" style="stroke: #A80036; stroke-width: 1.0;"/><polygon fill="#A80036" points="336.99,152.28,345.4494,147.2363,339.8745,148.196,338.9149,142.6211,336.99,152.28" style="stroke: #A80036; stroke-width: 1.0;"/><text fill="#000000" font-family="sans-serif" font-size="13" lengthAdjust="spacingAndGlyphs" textLength="315" x="478.7987" y="143.0354">selectedPositionGridCheckRotation&lt;Quaternion&gt;</text><!--MD5=[4fe37805ec2fda77d1e21c0b746b4ed8]
link SelectionResult to Vector2Int--><path d="M337.47,88.27 C355.88,106.54 377.31,127.79 393.83,144.18 " fill="none" id="SelectionResult-&gt;Vector2Int" style="stroke: #A80036; stroke-width: 1.0;"/><polygon fill="#A80036" points="397.5,147.81,393.9274,138.6319,393.9502,144.2888,388.2934,144.3116,397.5,147.81" style="stroke: #A80036; stroke-width: 1.0;"/><text fill="#000000" font-family="sans-serif" font-size="13" lengthAdjust="spacingAndGlyphs" textLength="25" x="363.3058" y="136.7733">size</text><!--MD5=[29896c09c0efeab61dcf5db45574934b]
@startuml
class SelectionResult <<struct>> {
    + placementValidity : bool
    + isEdgeStructure : bool
}
class "List`1"<T> {
}
SelectionResult - -> "selectedPositions<Vector3>" "List`1"
SelectionResult - -> "selectedGridPositions<Vector3Int>" "List`1"
SelectionResult - -> "selectedPreviewPositions<Vector3>" "List`1"
SelectionResult - -> "selectedPositionsObjectRotation<Quaternion>" "List`1"
SelectionResult - -> "selectedPositionGridCheckRotation<Quaternion>" "List`1"
SelectionResult - -> "size" Vector2Int
@enduml

PlantUML version 1.2020.02(Sun Mar 01 10:22:07 GMT 2020)
(GPL source distribution)
Java Runtime: OpenJDK Runtime Environment
JVM: OpenJDK 64-Bit Server VM
Java Version: 11.0.9+11-Ubuntu-0ubuntu1
Operating System: Linux
Default Encoding: ANSI_X3.4-1968
Language: en
Country: US
--></g></svg>