<?xml version="1.0" encoding="UTF-8" standalone="no"?><svg xmlns="http://www.w3.org/2000/svg" xmlns:xlink="http://www.w3.org/1999/xlink" contentScriptType="application/ecmascript" contentStyleType="text/css" height="334px" preserveAspectRatio="none" style="width:946px;height:334px;" version="1.1" viewBox="0 0 946 334" width="946px" zoomAndPan="magnify"><defs><filter height="300%" id="f1a7el016gjb2e" width="300%" x="-1" y="-1"><feGaussianBlur result="blurOut" stdDeviation="2.0"/><feColorMatrix in="blurOut" result="blurOut2" type="matrix" values="0 0 0 0 0 0 0 0 0 0 0 0 0 0 0 0 0 0 .4 0"/><feOffset dx="4.0" dy="4.0" in="blurOut2" result="blurOut3"/><feBlend in="SourceGraphic" in2="blurOut3" mode="normal"/></filter></defs><g><!--MD5=[7b7bad668572eae3ed655c02608022e5]
class StructurePlacementCommand--><rect fill="#FEFECE" filter="url(#f1a7el016gjb2e)" height="99.2188" id="StructurePlacementCommand" style="stroke: #A80036; stroke-width: 1.5;" width="929" x="6" y="116"/><ellipse cx="372.75" cy="132" fill="#ADD1B2" rx="11" ry="11" style="stroke: #A80036; stroke-width: 1.0;"/><path d="M375.7188,137.6406 Q375.1406,137.9375 374.5,138.0781 Q373.8594,138.2344 373.1563,138.2344 Q370.6563,138.2344 369.3281,136.5938 Q368.0156,134.9375 368.0156,131.8125 Q368.0156,128.6875 369.3281,127.0313 Q370.6563,125.375 373.1563,125.375 Q373.8594,125.375 374.5,125.5313 Q375.1563,125.6875 375.7188,125.9844 L375.7188,128.7031 Q375.0938,128.125 374.5,127.8594 Q373.9063,127.5781 373.2813,127.5781 Q371.9375,127.5781 371.25,128.6563 Q370.5625,129.7188 370.5625,131.8125 Q370.5625,133.9063 371.25,134.9844 Q371.9375,136.0469 373.2813,136.0469 Q373.9063,136.0469 374.5,135.7813 Q375.0938,135.5 375.7188,134.9219 L375.7188,137.6406 Z "/><text fill="#000000" font-family="sans-serif" font-size="12" lengthAdjust="spacingAndGlyphs" textLength="187" x="393.25" y="136.1543">StructurePlacementCommand</text><line style="stroke: #A80036; stroke-width: 1.5;" x1="7" x2="934" y1="148" y2="148"/><line style="stroke: #A80036; stroke-width: 1.5;" x1="7" x2="934" y1="156" y2="156"/><ellipse cx="17" cy="167" fill="#84BE84" rx="3" ry="3" style="stroke: #038048; stroke-width: 1.0;"/><text fill="#000000" font-family="sans-serif" font-size="11" lengthAdjust="spacingAndGlyphs" textLength="903" x="26" y="170.2104">StructurePlacementCommand(placementManager:PlacementManager, placementData:PlacementGridData, itemData:ItemData, selectionResult:SelectionResult)</text><ellipse cx="17" cy="179.8047" fill="#84BE84" rx="3" ry="3" style="stroke: #038048; stroke-width: 1.0;"/><text fill="#000000" font-family="sans-serif" font-size="11" lengthAdjust="spacingAndGlyphs" textLength="110" x="26" y="183.0151">CanExecute() : bool</text><ellipse cx="17" cy="192.6094" fill="#84BE84" rx="3" ry="3" style="stroke: #038048; stroke-width: 1.0;"/><text fill="#000000" font-family="sans-serif" font-size="11" lengthAdjust="spacingAndGlyphs" textLength="87" x="26" y="195.8198">Execute() : void</text><ellipse cx="17" cy="205.4141" fill="#84BE84" rx="3" ry="3" style="stroke: #038048; stroke-width: 1.0;"/><text fill="#000000" font-family="sans-serif" font-size="11" lengthAdjust="spacingAndGlyphs" textLength="72" x="26" y="208.6245">Undo() : void</text><!--MD5=[11008d568be52109e77f2977709dd853]
class ICommand--><rect fill="#FEFECE" filter="url(#f1a7el016gjb2e)" height="48" id="ICommand" style="stroke: #A80036; stroke-width: 1.5;" width="97" x="422" y="8"/><ellipse cx="437" cy="24" fill="#ADD1B2" rx="11" ry="11" style="stroke: #A80036; stroke-width: 1.0;"/><path d="M439.9688,29.6406 Q439.3906,29.9375 438.75,30.0781 Q438.1094,30.2344 437.4063,30.2344 Q434.9063,30.2344 433.5781,28.5938 Q432.2656,26.9375 432.2656,23.8125 Q432.2656,20.6875 433.5781,19.0313 Q434.9063,17.375 437.4063,17.375 Q438.1094,17.375 438.75,17.5313 Q439.4063,17.6875 439.9688,17.9844 L439.9688,20.7031 Q439.3438,20.125 438.75,19.8594 Q438.1563,19.5781 437.5313,19.5781 Q436.1875,19.5781 435.5,20.6563 Q434.8125,21.7188 434.8125,23.8125 Q434.8125,25.9063 435.5,26.9844 Q436.1875,28.0469 437.5313,28.0469 Q438.1563,28.0469 438.75,27.7813 Q439.3438,27.5 439.9688,26.9219 L439.9688,29.6406 Z "/><text fill="#000000" font-family="sans-serif" font-size="12" lengthAdjust="spacingAndGlyphs" textLength="65" x="451" y="28.1543">ICommand</text><line style="stroke: #A80036; stroke-width: 1.5;" x1="423" x2="518" y1="40" y2="40"/><line style="stroke: #A80036; stroke-width: 1.5;" x1="423" x2="518" y1="48" y2="48"/><!--MD5=[282337bcbda18824f247f7d826f8d128]
class PlacementManager--><rect fill="#FEFECE" filter="url(#f1a7el016gjb2e)" height="48" id="PlacementManager" style="stroke: #A80036; stroke-width: 1.5;" width="153" x="128" y="275"/><ellipse cx="143" cy="291" fill="#ADD1B2" rx="11" ry="11" style="stroke: #A80036; stroke-width: 1.0;"/><path d="M145.9688,296.6406 Q145.3906,296.9375 144.75,297.0781 Q144.1094,297.2344 143.4063,297.2344 Q140.9063,297.2344 139.5781,295.5938 Q138.2656,293.9375 138.2656,290.8125 Q138.2656,287.6875 139.5781,286.0313 Q140.9063,284.375 143.4063,284.375 Q144.1094,284.375 144.75,284.5313 Q145.4063,284.6875 145.9688,284.9844 L145.9688,287.7031 Q145.3438,287.125 144.75,286.8594 Q144.1563,286.5781 143.5313,286.5781 Q142.1875,286.5781 141.5,287.6563 Q140.8125,288.7188 140.8125,290.8125 Q140.8125,292.9063 141.5,293.9844 Q142.1875,295.0469 143.5313,295.0469 Q144.1563,295.0469 144.75,294.7813 Q145.3438,294.5 145.9688,293.9219 L145.9688,296.6406 Z "/><text fill="#000000" font-family="sans-serif" font-size="12" lengthAdjust="spacingAndGlyphs" textLength="121" x="157" y="295.1543">PlacementManager</text><line style="stroke: #A80036; stroke-width: 1.5;" x1="129" x2="280" y1="307" y2="307"/><line style="stroke: #A80036; stroke-width: 1.5;" x1="129" x2="280" y1="315" y2="315"/><!--MD5=[e9dcf1065f2d675ed598344b8e9d59e4]
class PlacementGridData--><rect fill="#FEFECE" filter="url(#f1a7el016gjb2e)" height="48" id="PlacementGridData" style="stroke: #A80036; stroke-width: 1.5;" width="153" x="316" y="275"/><ellipse cx="331" cy="291" fill="#ADD1B2" rx="11" ry="11" style="stroke: #A80036; stroke-width: 1.0;"/><path d="M333.9688,296.6406 Q333.3906,296.9375 332.75,297.0781 Q332.1094,297.2344 331.4063,297.2344 Q328.9063,297.2344 327.5781,295.5938 Q326.2656,293.9375 326.2656,290.8125 Q326.2656,287.6875 327.5781,286.0313 Q328.9063,284.375 331.4063,284.375 Q332.1094,284.375 332.75,284.5313 Q333.4063,284.6875 333.9688,284.9844 L333.9688,287.7031 Q333.3438,287.125 332.75,286.8594 Q332.1563,286.5781 331.5313,286.5781 Q330.1875,286.5781 329.5,287.6563 Q328.8125,288.7188 328.8125,290.8125 Q328.8125,292.9063 329.5,293.9844 Q330.1875,295.0469 331.5313,295.0469 Q332.1563,295.0469 332.75,294.7813 Q333.3438,294.5 333.9688,293.9219 L333.9688,296.6406 Z "/><text fill="#000000" font-family="sans-serif" font-size="12" lengthAdjust="spacingAndGlyphs" textLength="121" x="345" y="295.1543">PlacementGridData</text><line style="stroke: #A80036; stroke-width: 1.5;" x1="317" x2="468" y1="307" y2="307"/><line style="stroke: #A80036; stroke-width: 1.5;" x1="317" x2="468" y1="315" y2="315"/><!--MD5=[9f3fcd8bc4efc713d6f54d260476c26d]
class ItemData--><rect fill="#FEFECE" filter="url(#f1a7el016gjb2e)" height="48" id="ItemData" style="stroke: #A80036; stroke-width: 1.5;" width="89" x="504" y="275"/><ellipse cx="519" cy="291" fill="#ADD1B2" rx="11" ry="11" style="stroke: #A80036; stroke-width: 1.0;"/><path d="M521.9688,296.6406 Q521.3906,296.9375 520.75,297.0781 Q520.1094,297.2344 519.4063,297.2344 Q516.9063,297.2344 515.5781,295.5938 Q514.2656,293.9375 514.2656,290.8125 Q514.2656,287.6875 515.5781,286.0313 Q516.9063,284.375 519.4063,284.375 Q520.1094,284.375 520.75,284.5313 Q521.4063,284.6875 521.9688,284.9844 L521.9688,287.7031 Q521.3438,287.125 520.75,286.8594 Q520.1563,286.5781 519.5313,286.5781 Q518.1875,286.5781 517.5,287.6563 Q516.8125,288.7188 516.8125,290.8125 Q516.8125,292.9063 517.5,293.9844 Q518.1875,295.0469 519.5313,295.0469 Q520.1563,295.0469 520.75,294.7813 Q521.3438,294.5 521.9688,293.9219 L521.9688,296.6406 Z "/><text fill="#000000" font-family="sans-serif" font-size="12" lengthAdjust="spacingAndGlyphs" textLength="57" x="533" y="295.1543">ItemData</text><line style="stroke: #A80036; stroke-width: 1.5;" x1="505" x2="592" y1="307" y2="307"/><line style="stroke: #A80036; stroke-width: 1.5;" x1="505" x2="592" y1="315" y2="315"/><!--MD5=[ab26b3a5b2958d69171bc0ef878d65b6]
class SelectionResult--><rect fill="#FEFECE" filter="url(#f1a7el016gjb2e)" height="48" id="SelectionResult" style="stroke: #A80036; stroke-width: 1.5;" width="129" x="628" y="275"/><ellipse cx="643" cy="291" fill="#ADD1B2" rx="11" ry="11" style="stroke: #A80036; stroke-width: 1.0;"/><path d="M645.9688,296.6406 Q645.3906,296.9375 644.75,297.0781 Q644.1094,297.2344 643.4063,297.2344 Q640.9063,297.2344 639.5781,295.5938 Q638.2656,293.9375 638.2656,290.8125 Q638.2656,287.6875 639.5781,286.0313 Q640.9063,284.375 643.4063,284.375 Q644.1094,284.375 644.75,284.5313 Q645.4063,284.6875 645.9688,284.9844 L645.9688,287.7031 Q645.3438,287.125 644.75,286.8594 Q644.1563,286.5781 643.5313,286.5781 Q642.1875,286.5781 641.5,287.6563 Q640.8125,288.7188 640.8125,290.8125 Q640.8125,292.9063 641.5,293.9844 Q642.1875,295.0469 643.5313,295.0469 Q644.1563,295.0469 644.75,294.7813 Q645.3438,294.5 645.9688,293.9219 L645.9688,296.6406 Z "/><text fill="#000000" font-family="sans-serif" font-size="12" lengthAdjust="spacingAndGlyphs" textLength="97" x="657" y="295.1543">SelectionResult</text><line style="stroke: #A80036; stroke-width: 1.5;" x1="629" x2="756" y1="307" y2="307"/><line style="stroke: #A80036; stroke-width: 1.5;" x1="629" x2="756" y1="315" y2="315"/><!--MD5=[6680b5c23d83bc8ac68c52e3d8593947]
reverse link ICommand to StructurePlacementCommand--><path d="M470.5,76.51 C470.5,89.14 470.5,103.01 470.5,115.93 " fill="none" id="ICommand&lt;-StructurePlacementCommand" style="stroke: #A80036; stroke-width: 1.0;"/><polygon fill="none" points="463.5,76.21,470.5,56.21,477.5,76.21,463.5,76.21" style="stroke: #A80036; stroke-width: 1.0;"/><!--MD5=[3daef6ad4447262a6593c51696ff15bb]
link StructurePlacementCommand to PlacementManager--><path d="M372.21,215.09 C332.71,234.62 288.82,256.31 255.85,272.61 " fill="none" id="StructurePlacementCommand-&gt;PlacementManager" style="stroke: #A80036; stroke-width: 1.0;"/><polygon fill="#A80036" points="251.07,274.98,260.9109,274.5831,255.5535,272.7668,257.3697,267.4095,251.07,274.98" style="stroke: #A80036; stroke-width: 1.0;"/><text fill="#000000" font-family="sans-serif" font-size="13" lengthAdjust="spacingAndGlyphs" textLength="124" x="123.1161" y="263.9869">placementManager</text><!--MD5=[b693d484f09e6ea0234b7079913b73e0]
link StructurePlacementCommand to PlacementGridData--><path d="M441.68,215.09 C430.57,233.82 418.28,254.54 408.76,270.58 " fill="none" id="StructurePlacementCommand-&gt;PlacementGridData" style="stroke: #A80036; stroke-width: 1.0;"/><polygon fill="#A80036" points="406.16,274.98,414.1982,269.289,408.7157,270.6825,407.3222,265.2,406.16,274.98" style="stroke: #A80036; stroke-width: 1.0;"/><text fill="#000000" font-family="sans-serif" font-size="13" lengthAdjust="spacingAndGlyphs" textLength="99" x="297.976" y="263.9869">placementData</text><!--MD5=[8d332ff42256ab8cad1770f534f5df17]
link StructurePlacementCommand to ItemData--><path d="M499.32,215.09 C510.43,233.82 522.72,254.54 532.24,270.58 " fill="none" id="StructurePlacementCommand-&gt;ItemData" style="stroke: #A80036; stroke-width: 1.0;"/><polygon fill="#A80036" points="534.84,274.98,533.6778,265.2,532.2843,270.6825,526.8018,269.289,534.84,274.98" style="stroke: #A80036; stroke-width: 1.0;"/><text fill="#000000" font-family="sans-serif" font-size="13" lengthAdjust="spacingAndGlyphs" textLength="60" x="467.5532" y="263.9866">itemData</text><!--MD5=[a04ef1112c133a19990c3fb853f1f151]
link StructurePlacementCommand to SelectionResult--><path d="M552.53,215.09 C585.36,234.54 621.82,256.14 649.3,272.41 " fill="none" id="StructurePlacementCommand-&gt;SelectionResult" style="stroke: #A80036; stroke-width: 1.0;"/><polygon fill="#A80036" points="653.63,274.98,647.9193,266.9558,649.3262,272.4349,643.8471,273.8419,653.63,274.98" style="stroke: #A80036; stroke-width: 1.0;"/><text fill="#000000" font-family="sans-serif" font-size="13" lengthAdjust="spacingAndGlyphs" textLength="96" x="572.1567" y="263.9252">selectionResult</text><!--MD5=[25d626602cdbb75943af5113a80fe299]
@startuml
class StructurePlacementCommand {
    + StructurePlacementCommand(placementManager:PlacementManager, placementData:PlacementGridData, itemData:ItemData, selectionResult:SelectionResult)
    + CanExecute() : bool
    + Execute() : void
    + Undo() : void
}
ICommand <|- - StructurePlacementCommand
StructurePlacementCommand - -> "placementManager" PlacementManager
StructurePlacementCommand - -> "placementData" PlacementGridData
StructurePlacementCommand - -> "itemData" ItemData
StructurePlacementCommand - -> "selectionResult" SelectionResult
@enduml

PlantUML version 1.2020.02(Sun Mar 01 10:22:07 GMT 2020)
(GPL source distribution)
Java Runtime: OpenJDK Runtime Environment
JVM: OpenJDK 64-Bit Server VM
Java Version: 11.0.9+11-Ubuntu-0ubuntu1
Operating System: Linux
Default Encoding: ANSI_X3.4-1968
Language: en
Country: US
--></g></svg>