<?xml version="1.0" encoding="UTF-8" standalone="no"?><svg xmlns="http://www.w3.org/2000/svg" xmlns:xlink="http://www.w3.org/1999/xlink" contentScriptType="application/ecmascript" contentStyleType="text/css" height="334px" preserveAspectRatio="none" style="width:1088px;height:334px;" version="1.1" viewBox="0 0 1088 334" width="1088px" zoomAndPan="magnify"><defs><filter height="300%" id="fyh1ywsrjqex2" width="300%" x="-1" y="-1"><feGaussianBlur result="blurOut" stdDeviation="2.0"/><feColorMatrix in="blurOut" result="blurOut2" type="matrix" values="0 0 0 0 0 0 0 0 0 0 0 0 0 0 0 0 0 0 .4 0"/><feOffset dx="4.0" dy="4.0" in="blurOut2" result="blurOut3"/><feBlend in="SourceGraphic" in2="blurOut3" mode="normal"/></filter></defs><g><!--MD5=[7854e118fc906df5d22f3804a9e7fb90]
class StructureRemoveCommand--><rect fill="#FEFECE" filter="url(#fyh1ywsrjqex2)" height="99.2188" id="StructureRemoveCommand" style="stroke: #A80036; stroke-width: 1.5;" width="1071" x="6" y="116"/><ellipse cx="452.25" cy="132" fill="#ADD1B2" rx="11" ry="11" style="stroke: #A80036; stroke-width: 1.0;"/><path d="M455.2188,137.6406 Q454.6406,137.9375 454,138.0781 Q453.3594,138.2344 452.6563,138.2344 Q450.1563,138.2344 448.8281,136.5938 Q447.5156,134.9375 447.5156,131.8125 Q447.5156,128.6875 448.8281,127.0313 Q450.1563,125.375 452.6563,125.375 Q453.3594,125.375 454,125.5313 Q454.6563,125.6875 455.2188,125.9844 L455.2188,128.7031 Q454.5938,128.125 454,127.8594 Q453.4063,127.5781 452.7813,127.5781 Q451.4375,127.5781 450.75,128.6563 Q450.0625,129.7188 450.0625,131.8125 Q450.0625,133.9063 450.75,134.9844 Q451.4375,136.0469 452.7813,136.0469 Q453.4063,136.0469 454,135.7813 Q454.5938,135.5 455.2188,134.9219 L455.2188,137.6406 Z "/><text fill="#000000" font-family="sans-serif" font-size="12" lengthAdjust="spacingAndGlyphs" textLength="170" x="472.75" y="136.1543">StructureRemoveCommand</text><line style="stroke: #A80036; stroke-width: 1.5;" x1="7" x2="1076" y1="148" y2="148"/><line style="stroke: #A80036; stroke-width: 1.5;" x1="7" x2="1076" y1="156" y2="156"/><ellipse cx="17" cy="167" fill="#84BE84" rx="3" ry="3" style="stroke: #038048; stroke-width: 1.0;"/><text fill="#000000" font-family="sans-serif" font-size="11" lengthAdjust="spacingAndGlyphs" textLength="1045" x="26" y="170.2104">StructureRemoveCommand(gridManager:GridManager, placementManager:PlacementManager, placementData:PlacementGridData, itemData:ItemData, selectionResult:SelectionResult)</text><ellipse cx="17" cy="179.8047" fill="#84BE84" rx="3" ry="3" style="stroke: #038048; stroke-width: 1.0;"/><text fill="#000000" font-family="sans-serif" font-size="11" lengthAdjust="spacingAndGlyphs" textLength="110" x="26" y="183.0151">CanExecute() : bool</text><ellipse cx="17" cy="192.6094" fill="#84BE84" rx="3" ry="3" style="stroke: #038048; stroke-width: 1.0;"/><text fill="#000000" font-family="sans-serif" font-size="11" lengthAdjust="spacingAndGlyphs" textLength="87" x="26" y="195.8198">Execute() : void</text><ellipse cx="17" cy="205.4141" fill="#84BE84" rx="3" ry="3" style="stroke: #038048; stroke-width: 1.0;"/><text fill="#000000" font-family="sans-serif" font-size="11" lengthAdjust="spacingAndGlyphs" textLength="72" x="26" y="208.6245">Undo() : void</text><!--MD5=[11008d568be52109e77f2977709dd853]
class ICommand--><rect fill="#FEFECE" filter="url(#fyh1ywsrjqex2)" height="48" id="ICommand" style="stroke: #A80036; stroke-width: 1.5;" width="97" x="493" y="8"/><ellipse cx="508" cy="24" fill="#ADD1B2" rx="11" ry="11" style="stroke: #A80036; stroke-width: 1.0;"/><path d="M510.9688,29.6406 Q510.3906,29.9375 509.75,30.0781 Q509.1094,30.2344 508.4063,30.2344 Q505.9063,30.2344 504.5781,28.5938 Q503.2656,26.9375 503.2656,23.8125 Q503.2656,20.6875 504.5781,19.0313 Q505.9063,17.375 508.4063,17.375 Q509.1094,17.375 509.75,17.5313 Q510.4063,17.6875 510.9688,17.9844 L510.9688,20.7031 Q510.3438,20.125 509.75,19.8594 Q509.1563,19.5781 508.5313,19.5781 Q507.1875,19.5781 506.5,20.6563 Q505.8125,21.7188 505.8125,23.8125 Q505.8125,25.9063 506.5,26.9844 Q507.1875,28.0469 508.5313,28.0469 Q509.1563,28.0469 509.75,27.7813 Q510.3438,27.5 510.9688,26.9219 L510.9688,29.6406 Z "/><text fill="#000000" font-family="sans-serif" font-size="12" lengthAdjust="spacingAndGlyphs" textLength="65" x="522" y="28.1543">ICommand</text><line style="stroke: #A80036; stroke-width: 1.5;" x1="494" x2="589" y1="40" y2="40"/><line style="stroke: #A80036; stroke-width: 1.5;" x1="494" x2="589" y1="48" y2="48"/><!--MD5=[282337bcbda18824f247f7d826f8d128]
class PlacementManager--><rect fill="#FEFECE" filter="url(#fyh1ywsrjqex2)" height="48" id="PlacementManager" style="stroke: #A80036; stroke-width: 1.5;" width="153" x="53" y="275"/><ellipse cx="68" cy="291" fill="#ADD1B2" rx="11" ry="11" style="stroke: #A80036; stroke-width: 1.0;"/><path d="M70.9688,296.6406 Q70.3906,296.9375 69.75,297.0781 Q69.1094,297.2344 68.4063,297.2344 Q65.9063,297.2344 64.5781,295.5938 Q63.2656,293.9375 63.2656,290.8125 Q63.2656,287.6875 64.5781,286.0313 Q65.9063,284.375 68.4063,284.375 Q69.1094,284.375 69.75,284.5313 Q70.4063,284.6875 70.9688,284.9844 L70.9688,287.7031 Q70.3438,287.125 69.75,286.8594 Q69.1563,286.5781 68.5313,286.5781 Q67.1875,286.5781 66.5,287.6563 Q65.8125,288.7188 65.8125,290.8125 Q65.8125,292.9063 66.5,293.9844 Q67.1875,295.0469 68.5313,295.0469 Q69.1563,295.0469 69.75,294.7813 Q70.3438,294.5 70.9688,293.9219 L70.9688,296.6406 Z "/><text fill="#000000" font-family="sans-serif" font-size="12" lengthAdjust="spacingAndGlyphs" textLength="121" x="82" y="295.1543">PlacementManager</text><line style="stroke: #A80036; stroke-width: 1.5;" x1="54" x2="205" y1="307" y2="307"/><line style="stroke: #A80036; stroke-width: 1.5;" x1="54" x2="205" y1="315" y2="315"/><!--MD5=[e9dcf1065f2d675ed598344b8e9d59e4]
class PlacementGridData--><rect fill="#FEFECE" filter="url(#fyh1ywsrjqex2)" height="48" id="PlacementGridData" style="stroke: #A80036; stroke-width: 1.5;" width="153" x="241" y="275"/><ellipse cx="256" cy="291" fill="#ADD1B2" rx="11" ry="11" style="stroke: #A80036; stroke-width: 1.0;"/><path d="M258.9688,296.6406 Q258.3906,296.9375 257.75,297.0781 Q257.1094,297.2344 256.4063,297.2344 Q253.9063,297.2344 252.5781,295.5938 Q251.2656,293.9375 251.2656,290.8125 Q251.2656,287.6875 252.5781,286.0313 Q253.9063,284.375 256.4063,284.375 Q257.1094,284.375 257.75,284.5313 Q258.4063,284.6875 258.9688,284.9844 L258.9688,287.7031 Q258.3438,287.125 257.75,286.8594 Q257.1563,286.5781 256.5313,286.5781 Q255.1875,286.5781 254.5,287.6563 Q253.8125,288.7188 253.8125,290.8125 Q253.8125,292.9063 254.5,293.9844 Q255.1875,295.0469 256.5313,295.0469 Q257.1563,295.0469 257.75,294.7813 Q258.3438,294.5 258.9688,293.9219 L258.9688,296.6406 Z "/><text fill="#000000" font-family="sans-serif" font-size="12" lengthAdjust="spacingAndGlyphs" textLength="121" x="270" y="295.1543">PlacementGridData</text><line style="stroke: #A80036; stroke-width: 1.5;" x1="242" x2="393" y1="307" y2="307"/><line style="stroke: #A80036; stroke-width: 1.5;" x1="242" x2="393" y1="315" y2="315"/><!--MD5=[9f3fcd8bc4efc713d6f54d260476c26d]
class ItemData--><rect fill="#FEFECE" filter="url(#fyh1ywsrjqex2)" height="48" id="ItemData" style="stroke: #A80036; stroke-width: 1.5;" width="89" x="429" y="275"/><ellipse cx="444" cy="291" fill="#ADD1B2" rx="11" ry="11" style="stroke: #A80036; stroke-width: 1.0;"/><path d="M446.9688,296.6406 Q446.3906,296.9375 445.75,297.0781 Q445.1094,297.2344 444.4063,297.2344 Q441.9063,297.2344 440.5781,295.5938 Q439.2656,293.9375 439.2656,290.8125 Q439.2656,287.6875 440.5781,286.0313 Q441.9063,284.375 444.4063,284.375 Q445.1094,284.375 445.75,284.5313 Q446.4063,284.6875 446.9688,284.9844 L446.9688,287.7031 Q446.3438,287.125 445.75,286.8594 Q445.1563,286.5781 444.5313,286.5781 Q443.1875,286.5781 442.5,287.6563 Q441.8125,288.7188 441.8125,290.8125 Q441.8125,292.9063 442.5,293.9844 Q443.1875,295.0469 444.5313,295.0469 Q445.1563,295.0469 445.75,294.7813 Q446.3438,294.5 446.9688,293.9219 L446.9688,296.6406 Z "/><text fill="#000000" font-family="sans-serif" font-size="12" lengthAdjust="spacingAndGlyphs" textLength="57" x="458" y="295.1543">ItemData</text><line style="stroke: #A80036; stroke-width: 1.5;" x1="430" x2="517" y1="307" y2="307"/><line style="stroke: #A80036; stroke-width: 1.5;" x1="430" x2="517" y1="315" y2="315"/><!--MD5=[502b93a38388fad20ac9a7a86f640f9c]
class GridManager--><rect fill="#FEFECE" filter="url(#fyh1ywsrjqex2)" height="48" id="GridManager" style="stroke: #A80036; stroke-width: 1.5;" width="112" x="553.5" y="275"/><ellipse cx="568.5" cy="291" fill="#ADD1B2" rx="11" ry="11" style="stroke: #A80036; stroke-width: 1.0;"/><path d="M571.4688,296.6406 Q570.8906,296.9375 570.25,297.0781 Q569.6094,297.2344 568.9063,297.2344 Q566.4063,297.2344 565.0781,295.5938 Q563.7656,293.9375 563.7656,290.8125 Q563.7656,287.6875 565.0781,286.0313 Q566.4063,284.375 568.9063,284.375 Q569.6094,284.375 570.25,284.5313 Q570.9063,284.6875 571.4688,284.9844 L571.4688,287.7031 Q570.8438,287.125 570.25,286.8594 Q569.6563,286.5781 569.0313,286.5781 Q567.6875,286.5781 567,287.6563 Q566.3125,288.7188 566.3125,290.8125 Q566.3125,292.9063 567,293.9844 Q567.6875,295.0469 569.0313,295.0469 Q569.6563,295.0469 570.25,294.7813 Q570.8438,294.5 571.4688,293.9219 L571.4688,296.6406 Z "/><text fill="#000000" font-family="sans-serif" font-size="12" lengthAdjust="spacingAndGlyphs" textLength="80" x="582.5" y="295.1543">GridManager</text><line style="stroke: #A80036; stroke-width: 1.5;" x1="554.5" x2="664.5" y1="307" y2="307"/><line style="stroke: #A80036; stroke-width: 1.5;" x1="554.5" x2="664.5" y1="315" y2="315"/><!--MD5=[ab26b3a5b2958d69171bc0ef878d65b6]
class SelectionResult--><rect fill="#FEFECE" filter="url(#fyh1ywsrjqex2)" height="48" id="SelectionResult" style="stroke: #A80036; stroke-width: 1.5;" width="129" x="701" y="275"/><ellipse cx="716" cy="291" fill="#ADD1B2" rx="11" ry="11" style="stroke: #A80036; stroke-width: 1.0;"/><path d="M718.9688,296.6406 Q718.3906,296.9375 717.75,297.0781 Q717.1094,297.2344 716.4063,297.2344 Q713.9063,297.2344 712.5781,295.5938 Q711.2656,293.9375 711.2656,290.8125 Q711.2656,287.6875 712.5781,286.0313 Q713.9063,284.375 716.4063,284.375 Q717.1094,284.375 717.75,284.5313 Q718.4063,284.6875 718.9688,284.9844 L718.9688,287.7031 Q718.3438,287.125 717.75,286.8594 Q717.1563,286.5781 716.5313,286.5781 Q715.1875,286.5781 714.5,287.6563 Q713.8125,288.7188 713.8125,290.8125 Q713.8125,292.9063 714.5,293.9844 Q715.1875,295.0469 716.5313,295.0469 Q717.1563,295.0469 717.75,294.7813 Q718.3438,294.5 718.9688,293.9219 L718.9688,296.6406 Z "/><text fill="#000000" font-family="sans-serif" font-size="12" lengthAdjust="spacingAndGlyphs" textLength="97" x="730" y="295.1543">SelectionResult</text><line style="stroke: #A80036; stroke-width: 1.5;" x1="702" x2="829" y1="307" y2="307"/><line style="stroke: #A80036; stroke-width: 1.5;" x1="702" x2="829" y1="315" y2="315"/><!--MD5=[43ff1d1e1c9928aafaf4ebc85f746e57]
reverse link ICommand to StructureRemoveCommand--><path d="M541.5,76.51 C541.5,89.14 541.5,103.01 541.5,115.93 " fill="none" id="ICommand&lt;-StructureRemoveCommand" style="stroke: #A80036; stroke-width: 1.0;"/><polygon fill="none" points="534.5,76.21,541.5,56.21,548.5,76.21,534.5,76.21" style="stroke: #A80036; stroke-width: 1.0;"/><!--MD5=[10c605a63ebfb5c22f2505862fadf593]
link StructureRemoveCommand to PlacementManager--><path d="M389.26,215.09 C327.08,234.94 257.88,257.03 206.54,273.41 " fill="none" id="StructureRemoveCommand-&gt;PlacementManager" style="stroke: #A80036; stroke-width: 1.0;"/><polygon fill="#A80036" points="201.63,274.98,211.4222,276.035,206.3903,273.4504,208.9749,268.4185,201.63,274.98" style="stroke: #A80036; stroke-width: 1.0;"/><text fill="#000000" font-family="sans-serif" font-size="13" lengthAdjust="spacingAndGlyphs" textLength="124" x="80.2258" y="263.9869">placementManager</text><!--MD5=[fa21d48743c6f49424141846a3f4060a]
link StructureRemoveCommand to PlacementGridData--><path d="M458.73,215.09 C425.6,234.54 388.81,256.14 361.09,272.41 " fill="none" id="StructureRemoveCommand-&gt;PlacementGridData" style="stroke: #A80036; stroke-width: 1.0;"/><polygon fill="#A80036" points="356.72,274.98,366.5029,273.8419,361.0238,272.4349,362.4307,266.9558,356.72,274.98" style="stroke: #A80036; stroke-width: 1.0;"/><text fill="#000000" font-family="sans-serif" font-size="13" lengthAdjust="spacingAndGlyphs" textLength="99" x="255.0858" y="263.9869">placementData</text><!--MD5=[ded4cab45c0e63e074da7ccf69f8655b]
link StructureRemoveCommand to ItemData--><path d="M516.37,215.09 C506.77,233.66 496.16,254.18 487.89,270.17 " fill="none" id="StructureRemoveCommand-&gt;ItemData" style="stroke: #A80036; stroke-width: 1.0;"/><polygon fill="#A80036" points="485.41,274.98,493.0998,268.8264,487.7087,270.5397,485.9954,265.1486,485.41,274.98" style="stroke: #A80036; stroke-width: 1.0;"/><text fill="#000000" font-family="sans-serif" font-size="13" lengthAdjust="spacingAndGlyphs" textLength="60" x="420.7744" y="263.9869">itemData</text><!--MD5=[e8854da4af0316d78a851fd5b2aee0a7]
link StructureRemoveCommand to GridManager--><path d="M566.63,215.09 C576.23,233.66 586.84,254.18 595.11,270.17 " fill="none" id="StructureRemoveCommand-&gt;GridManager" style="stroke: #A80036; stroke-width: 1.0;"/><polygon fill="#A80036" points="597.59,274.98,597.0046,265.1486,595.2913,270.5397,589.9002,268.8264,597.59,274.98" style="stroke: #A80036; stroke-width: 1.0;"/><text fill="#000000" font-family="sans-serif" font-size="13" lengthAdjust="spacingAndGlyphs" textLength="80" x="520.1814" y="263.9239">gridManager</text><!--MD5=[142441a276daf973228777f3670c508b]
link StructureRemoveCommand to SelectionResult--><path d="M611.92,215.09 C644.13,234.54 681.59,256.14 711.57,272.41 " fill="none" id="StructureRemoveCommand-&gt;SelectionResult" style="stroke: #A80036; stroke-width: 1.0;"/><polygon fill="#A80036" points="716.32,274.98,710.3148,267.1738,711.9245,272.5967,706.5016,274.2065,716.32,274.98" style="stroke: #A80036; stroke-width: 1.0;"/><text fill="#000000" font-family="sans-serif" font-size="13" lengthAdjust="spacingAndGlyphs" textLength="96" x="635.2643" y="263.9252">selectionResult</text><!--MD5=[142441a276daf973228777f3670c508b]
link StructureRemoveCommand to SelectionResult--><path d="M637.36,215.09 C671.3,234.46 707.23,255.96 732.55,272.21 " fill="none" id="StructureRemoveCommand-&gt;SelectionResult-1" style="stroke: #A80036; stroke-width: 1.0;"/><polygon fill="#A80036" points="736.83,274.98,731.4097,266.7568,732.6199,272.2827,727.0941,273.4929,736.83,274.98" style="stroke: #A80036; stroke-width: 1.0;"/><text fill="#000000" font-family="sans-serif" font-size="13" lengthAdjust="spacingAndGlyphs" textLength="160" x="749.9833" y="263.9869">selectionResultToRestore</text><!--MD5=[05b766a2db6f33da4bf3085986f06997]
@startuml
class StructureRemoveCommand {
    + StructureRemoveCommand(gridManager:GridManager, placementManager:PlacementManager, placementData:PlacementGridData, itemData:ItemData, selectionResult:SelectionResult)
    + CanExecute() : bool
    + Execute() : void
    + Undo() : void
}
ICommand <|- - StructureRemoveCommand
StructureRemoveCommand - -> "placementManager" PlacementManager
StructureRemoveCommand - -> "placementData" PlacementGridData
StructureRemoveCommand - -> "itemData" ItemData
StructureRemoveCommand - -> "gridManager" GridManager
StructureRemoveCommand - -> "selectionResult" SelectionResult
StructureRemoveCommand - -> "selectionResultToRestore" SelectionResult
@enduml

PlantUML version 1.2020.02(Sun Mar 01 10:22:07 GMT 2020)
(GPL source distribution)
Java Runtime: OpenJDK Runtime Environment
JVM: OpenJDK 64-Bit Server VM
Java Version: 11.0.9+11-Ubuntu-0ubuntu1
Operating System: Linux
Default Encoding: ANSI_X3.4-1968
Language: en
Country: US
--></g></svg>