<?xml version="1.0" encoding="UTF-8" standalone="no"?><svg xmlns="http://www.w3.org/2000/svg" xmlns:xlink="http://www.w3.org/1999/xlink" contentScriptType="application/ecmascript" contentStyleType="text/css" height="213px" preserveAspectRatio="none" style="width:924px;height:213px;" version="1.1" viewBox="0 0 924 213" width="924px" zoomAndPan="magnify"><defs><filter height="300%" id="flo71bx2h71p7" width="300%" x="-1" y="-1"><feGaussianBlur result="blurOut" stdDeviation="2.0"/><feColorMatrix in="blurOut" result="blurOut2" type="matrix" values="0 0 0 0 0 0 0 0 0 0 0 0 0 0 0 0 0 0 .4 0"/><feOffset dx="4.0" dy="4.0" in="blurOut2" result="blurOut3"/><feBlend in="SourceGraphic" in2="blurOut3" mode="normal"/></filter></defs><g><!--MD5=[f7d95b2f3dd2b39958a324c445b7618a]
class StructurePlacer--><rect fill="#FEFECE" filter="url(#flo71bx2h71p7)" height="86.4141" id="StructurePlacer" style="stroke: #A80036; stroke-width: 1.5;" width="593" x="6" y="116"/><ellipse cx="249.25" cy="132" fill="#ADD1B2" rx="11" ry="11" style="stroke: #A80036; stroke-width: 1.0;"/><path d="M252.2188,137.6406 Q251.6406,137.9375 251,138.0781 Q250.3594,138.2344 249.6563,138.2344 Q247.1563,138.2344 245.8281,136.5938 Q244.5156,134.9375 244.5156,131.8125 Q244.5156,128.6875 245.8281,127.0313 Q247.1563,125.375 249.6563,125.375 Q250.3594,125.375 251,125.5313 Q251.6563,125.6875 252.2188,125.9844 L252.2188,128.7031 Q251.5938,128.125 251,127.8594 Q250.4063,127.5781 249.7813,127.5781 Q248.4375,127.5781 247.75,128.6563 Q247.0625,129.7188 247.0625,131.8125 Q247.0625,133.9063 247.75,134.9844 Q248.4375,136.0469 249.7813,136.0469 Q250.4063,136.0469 251,135.7813 Q251.5938,135.5 252.2188,134.9219 L252.2188,137.6406 Z "/><text fill="#000000" font-family="sans-serif" font-size="12" lengthAdjust="spacingAndGlyphs" textLength="98" x="269.75" y="136.1543">StructurePlacer</text><line style="stroke: #A80036; stroke-width: 1.5;" x1="7" x2="598" y1="148" y2="148"/><line style="stroke: #A80036; stroke-width: 1.5;" x1="7" x2="598" y1="156" y2="156"/><ellipse cx="17" cy="167" fill="#84BE84" rx="3" ry="3" style="stroke: #038048; stroke-width: 1.0;"/><text fill="#000000" font-family="sans-serif" font-size="11" lengthAdjust="spacingAndGlyphs" textLength="240" x="26" y="170.2104">GetObjectsRotation(index:int) : Quaternion</text><ellipse cx="17" cy="179.8047" fill="#84BE84" rx="3" ry="3" style="stroke: #038048; stroke-width: 1.0;"/><text fill="#000000" font-family="sans-serif" font-size="11" lengthAdjust="spacingAndGlyphs" textLength="567" x="26" y="183.0151">PlaceStructure(objectToPlace:GameObject, position:Vector3, rotation:Quaternion, yHeight:float) : int</text><ellipse cx="17" cy="192.6094" fill="#84BE84" rx="3" ry="3" style="stroke: #038048; stroke-width: 1.0;"/><text fill="#000000" font-family="sans-serif" font-size="11" lengthAdjust="spacingAndGlyphs" textLength="183" x="26" y="195.8198">RemoveObjectAt(index:int) : void</text><!--MD5=[e644022de7dea015dd09463c37421447]
class List`1--><rect fill="#FEFECE" filter="url(#flo71bx2h71p7)" height="48" id="List`1" style="stroke: #A80036; stroke-width: 1.5;" width="78" x="634.5" y="135"/><ellipse cx="649.5" cy="151" fill="#ADD1B2" rx="11" ry="11" style="stroke: #A80036; stroke-width: 1.0;"/><path d="M652.4688,156.6406 Q651.8906,156.9375 651.25,157.0781 Q650.6094,157.2344 649.9063,157.2344 Q647.4063,157.2344 646.0781,155.5938 Q644.7656,153.9375 644.7656,150.8125 Q644.7656,147.6875 646.0781,146.0313 Q647.4063,144.375 649.9063,144.375 Q650.6094,144.375 651.25,144.5313 Q651.9063,144.6875 652.4688,144.9844 L652.4688,147.7031 Q651.8438,147.125 651.25,146.8594 Q650.6563,146.5781 650.0313,146.5781 Q648.6875,146.5781 648,147.6563 Q647.3125,148.7188 647.3125,150.8125 Q647.3125,152.9063 648,153.9844 Q648.6875,155.0469 650.0313,155.0469 Q650.6563,155.0469 651.25,154.7813 Q651.8438,154.5 652.4688,153.9219 L652.4688,156.6406 Z "/><text fill="#000000" font-family="sans-serif" font-size="12" lengthAdjust="spacingAndGlyphs" textLength="35" x="663.5" y="155.1543">List`1</text><rect fill="#FFFFFF" height="15.9688" style="stroke: #000000; stroke-width: 1.0; stroke-dasharray: 2.0,2.0;" width="9" x="706.5" y="132"/><text fill="#000000" font-family="sans-serif" font-size="12" font-style="italic" lengthAdjust="spacingAndGlyphs" textLength="7" x="707.5" y="144.1387">T</text><line style="stroke: #A80036; stroke-width: 1.5;" x1="635.5" x2="711.5" y1="167" y2="167"/><line style="stroke: #A80036; stroke-width: 1.5;" x1="635.5" x2="711.5" y1="175" y2="175"/><!--MD5=[83b3cf3d23d77c6f1e1b5291a241bc2a]
class MonoBehaviour--><rect fill="#FEFECE" filter="url(#flo71bx2h71p7)" height="48" id="MonoBehaviour" style="stroke: #A80036; stroke-width: 1.5;" width="128" x="238.5" y="8"/><ellipse cx="253.5" cy="24" fill="#ADD1B2" rx="11" ry="11" style="stroke: #A80036; stroke-width: 1.0;"/><path d="M256.4688,29.6406 Q255.8906,29.9375 255.25,30.0781 Q254.6094,30.2344 253.9063,30.2344 Q251.4063,30.2344 250.0781,28.5938 Q248.7656,26.9375 248.7656,23.8125 Q248.7656,20.6875 250.0781,19.0313 Q251.4063,17.375 253.9063,17.375 Q254.6094,17.375 255.25,17.5313 Q255.9063,17.6875 256.4688,17.9844 L256.4688,20.7031 Q255.8438,20.125 255.25,19.8594 Q254.6563,19.5781 254.0313,19.5781 Q252.6875,19.5781 252,20.6563 Q251.3125,21.7188 251.3125,23.8125 Q251.3125,25.9063 252,26.9844 Q252.6875,28.0469 254.0313,28.0469 Q254.6563,28.0469 255.25,27.7813 Q255.8438,27.5 256.4688,26.9219 L256.4688,29.6406 Z "/><text fill="#000000" font-family="sans-serif" font-size="12" lengthAdjust="spacingAndGlyphs" textLength="96" x="267.5" y="28.1543">MonoBehaviour</text><line style="stroke: #A80036; stroke-width: 1.5;" x1="239.5" x2="365.5" y1="40" y2="40"/><line style="stroke: #A80036; stroke-width: 1.5;" x1="239.5" x2="365.5" y1="48" y2="48"/><!--MD5=[d6b2394aa677d134668a83f78be2bf2c]
reverse link MonoBehaviour to StructurePlacer--><path d="M302.5,76.27 C302.5,89.12 302.5,103.17 302.5,115.94 " fill="none" id="MonoBehaviour&lt;-StructurePlacer" style="stroke: #A80036; stroke-width: 1.0;"/><polygon fill="none" points="295.5,76.22,302.5,56.22,309.5,76.22,295.5,76.22" style="stroke: #A80036; stroke-width: 1.0;"/><!--MD5=[c142dd1b4c180f95faefcb1887b2fa90]
link StructurePlacer to List`1--><path d="M611.23,159 C611.23,159 618.33,159 621.31,159 " fill="none" id="StructurePlacer-List`1" style="stroke: #A80036; stroke-width: 1.0;"/><polygon fill="#A80036" points="634.33,159,625.33,155,629.33,159,625.33,163,634.33,159" style="stroke: #A80036; stroke-width: 1.0;"/><line style="stroke: #A80036; stroke-width: 1.0;" x1="629.33" x2="621.33" y1="159" y2="159"/><polygon fill="#FFFFFF" points="599.23,159,605.23,163,611.23,159,605.23,155,599.23,159" style="stroke: #A80036; stroke-width: 1.0;"/><text fill="#000000" font-family="sans-serif" font-size="13" lengthAdjust="spacingAndGlyphs" textLength="192" x="720.9958" y="144.7307">placedObjects&lt;GameObject&gt;</text><!--MD5=[f347c8386f4fc30915cc624504797936]
@startuml
class StructurePlacer {
    + GetObjectsRotation(index:int) : Quaternion
    + PlaceStructure(objectToPlace:GameObject, position:Vector3, rotation:Quaternion, yHeight:float) : int
    + RemoveObjectAt(index:int) : void
}
class "List`1"<T> {
}
MonoBehaviour <|- - StructurePlacer
StructurePlacer o-> "placedObjects<GameObject>" "List`1"
@enduml

PlantUML version 1.2020.02(Sun Mar 01 10:22:07 GMT 2020)
(GPL source distribution)
Java Runtime: OpenJDK Runtime Environment
JVM: OpenJDK 64-Bit Server VM
Java Version: 11.0.9+11-Ubuntu-0ubuntu1
Operating System: Linux
Default Encoding: ANSI_X3.4-1968
Language: en
Country: US
--></g></svg>