<?xml version="1.0" encoding="UTF-8" standalone="no"?><svg xmlns="http://www.w3.org/2000/svg" xmlns:xlink="http://www.w3.org/1999/xlink" contentScriptType="application/ecmascript" contentStyleType="text/css" height="334px" preserveAspectRatio="none" style="width:1492px;height:334px;" version="1.1" viewBox="0 0 1492 334" width="1492px" zoomAndPan="magnify"><defs><filter height="300%" id="f1gmy102d4fukz" width="300%" x="-1" y="-1"><feGaussianBlur result="blurOut" stdDeviation="2.0"/><feColorMatrix in="blurOut" result="blurOut2" type="matrix" values="0 0 0 0 0 0 0 0 0 0 0 0 0 0 0 0 0 0 .4 0"/><feOffset dx="4.0" dy="4.0" in="blurOut2" result="blurOut3"/><feBlend in="SourceGraphic" in2="blurOut3" mode="normal"/></filter></defs><g><!--MD5=[47c8da16061196430e27132947855575]
class StructureSwapCommand--><rect fill="#FEFECE" filter="url(#f1gmy102d4fukz)" height="99.2188" id="StructureSwapCommand" style="stroke: #A80036; stroke-width: 1.5;" width="1475" x="6" y="116"/><ellipse cx="662.25" cy="132" fill="#ADD1B2" rx="11" ry="11" style="stroke: #A80036; stroke-width: 1.0;"/><path d="M665.2188,137.6406 Q664.6406,137.9375 664,138.0781 Q663.3594,138.2344 662.6563,138.2344 Q660.1563,138.2344 658.8281,136.5938 Q657.5156,134.9375 657.5156,131.8125 Q657.5156,128.6875 658.8281,127.0313 Q660.1563,125.375 662.6563,125.375 Q663.3594,125.375 664,125.5313 Q664.6563,125.6875 665.2188,125.9844 L665.2188,128.7031 Q664.5938,128.125 664,127.8594 Q663.4063,127.5781 662.7813,127.5781 Q661.4375,127.5781 660.75,128.6563 Q660.0625,129.7188 660.0625,131.8125 Q660.0625,133.9063 660.75,134.9844 Q661.4375,136.0469 662.7813,136.0469 Q663.4063,136.0469 664,135.7813 Q664.5938,135.5 665.2188,134.9219 L665.2188,137.6406 Z "/><text fill="#000000" font-family="sans-serif" font-size="12" lengthAdjust="spacingAndGlyphs" textLength="154" x="682.75" y="136.1543">StructureSwapCommand</text><line style="stroke: #A80036; stroke-width: 1.5;" x1="7" x2="1480" y1="148" y2="148"/><line style="stroke: #A80036; stroke-width: 1.5;" x1="7" x2="1480" y1="156" y2="156"/><ellipse cx="17" cy="167" fill="#84BE84" rx="3" ry="3" style="stroke: #038048; stroke-width: 1.0;"/><text fill="#000000" font-family="sans-serif" font-size="11" lengthAdjust="spacingAndGlyphs" textLength="1449" x="26" y="170.2104">StructureSwapCommand(placementManager:PlacementManager, placementData:PlacementGridData, previousPlacementData:PlacementGridData, gridManager:GridManager, itemData:ItemData, selectionResult:SelectionResult, previousItemData:ItemData)</text><ellipse cx="17" cy="179.8047" fill="#84BE84" rx="3" ry="3" style="stroke: #038048; stroke-width: 1.0;"/><text fill="#000000" font-family="sans-serif" font-size="11" lengthAdjust="spacingAndGlyphs" textLength="110" x="26" y="183.0151">CanExecute() : bool</text><ellipse cx="17" cy="192.6094" fill="#84BE84" rx="3" ry="3" style="stroke: #038048; stroke-width: 1.0;"/><text fill="#000000" font-family="sans-serif" font-size="11" lengthAdjust="spacingAndGlyphs" textLength="87" x="26" y="195.8198">Execute() : void</text><ellipse cx="17" cy="205.4141" fill="#84BE84" rx="3" ry="3" style="stroke: #038048; stroke-width: 1.0;"/><text fill="#000000" font-family="sans-serif" font-size="11" lengthAdjust="spacingAndGlyphs" textLength="72" x="26" y="208.6245">Undo() : void</text><!--MD5=[11008d568be52109e77f2977709dd853]
class ICommand--><rect fill="#FEFECE" filter="url(#f1gmy102d4fukz)" height="48" id="ICommand" style="stroke: #A80036; stroke-width: 1.5;" width="97" x="695" y="8"/><ellipse cx="710" cy="24" fill="#ADD1B2" rx="11" ry="11" style="stroke: #A80036; stroke-width: 1.0;"/><path d="M712.9688,29.6406 Q712.3906,29.9375 711.75,30.0781 Q711.1094,30.2344 710.4063,30.2344 Q707.9063,30.2344 706.5781,28.5938 Q705.2656,26.9375 705.2656,23.8125 Q705.2656,20.6875 706.5781,19.0313 Q707.9063,17.375 710.4063,17.375 Q711.1094,17.375 711.75,17.5313 Q712.4063,17.6875 712.9688,17.9844 L712.9688,20.7031 Q712.3438,20.125 711.75,19.8594 Q711.1563,19.5781 710.5313,19.5781 Q709.1875,19.5781 708.5,20.6563 Q707.8125,21.7188 707.8125,23.8125 Q707.8125,25.9063 708.5,26.9844 Q709.1875,28.0469 710.5313,28.0469 Q711.1563,28.0469 711.75,27.7813 Q712.3438,27.5 712.9688,26.9219 L712.9688,29.6406 Z "/><text fill="#000000" font-family="sans-serif" font-size="12" lengthAdjust="spacingAndGlyphs" textLength="65" x="724" y="28.1543">ICommand</text><line style="stroke: #A80036; stroke-width: 1.5;" x1="696" x2="791" y1="40" y2="40"/><line style="stroke: #A80036; stroke-width: 1.5;" x1="696" x2="791" y1="48" y2="48"/><!--MD5=[282337bcbda18824f247f7d826f8d128]
class PlacementManager--><rect fill="#FEFECE" filter="url(#f1gmy102d4fukz)" height="48" id="PlacementManager" style="stroke: #A80036; stroke-width: 1.5;" width="153" x="323" y="275"/><ellipse cx="338" cy="291" fill="#ADD1B2" rx="11" ry="11" style="stroke: #A80036; stroke-width: 1.0;"/><path d="M340.9688,296.6406 Q340.3906,296.9375 339.75,297.0781 Q339.1094,297.2344 338.4063,297.2344 Q335.9063,297.2344 334.5781,295.5938 Q333.2656,293.9375 333.2656,290.8125 Q333.2656,287.6875 334.5781,286.0313 Q335.9063,284.375 338.4063,284.375 Q339.1094,284.375 339.75,284.5313 Q340.4063,284.6875 340.9688,284.9844 L340.9688,287.7031 Q340.3438,287.125 339.75,286.8594 Q339.1563,286.5781 338.5313,286.5781 Q337.1875,286.5781 336.5,287.6563 Q335.8125,288.7188 335.8125,290.8125 Q335.8125,292.9063 336.5,293.9844 Q337.1875,295.0469 338.5313,295.0469 Q339.1563,295.0469 339.75,294.7813 Q340.3438,294.5 340.9688,293.9219 L340.9688,296.6406 Z "/><text fill="#000000" font-family="sans-serif" font-size="12" lengthAdjust="spacingAndGlyphs" textLength="121" x="352" y="295.1543">PlacementManager</text><line style="stroke: #A80036; stroke-width: 1.5;" x1="324" x2="475" y1="307" y2="307"/><line style="stroke: #A80036; stroke-width: 1.5;" x1="324" x2="475" y1="315" y2="315"/><!--MD5=[e9dcf1065f2d675ed598344b8e9d59e4]
class PlacementGridData--><rect fill="#FEFECE" filter="url(#f1gmy102d4fukz)" height="48" id="PlacementGridData" style="stroke: #A80036; stroke-width: 1.5;" width="153" x="511" y="275"/><ellipse cx="526" cy="291" fill="#ADD1B2" rx="11" ry="11" style="stroke: #A80036; stroke-width: 1.0;"/><path d="M528.9688,296.6406 Q528.3906,296.9375 527.75,297.0781 Q527.1094,297.2344 526.4063,297.2344 Q523.9063,297.2344 522.5781,295.5938 Q521.2656,293.9375 521.2656,290.8125 Q521.2656,287.6875 522.5781,286.0313 Q523.9063,284.375 526.4063,284.375 Q527.1094,284.375 527.75,284.5313 Q528.4063,284.6875 528.9688,284.9844 L528.9688,287.7031 Q528.3438,287.125 527.75,286.8594 Q527.1563,286.5781 526.5313,286.5781 Q525.1875,286.5781 524.5,287.6563 Q523.8125,288.7188 523.8125,290.8125 Q523.8125,292.9063 524.5,293.9844 Q525.1875,295.0469 526.5313,295.0469 Q527.1563,295.0469 527.75,294.7813 Q528.3438,294.5 528.9688,293.9219 L528.9688,296.6406 Z "/><text fill="#000000" font-family="sans-serif" font-size="12" lengthAdjust="spacingAndGlyphs" textLength="121" x="540" y="295.1543">PlacementGridData</text><line style="stroke: #A80036; stroke-width: 1.5;" x1="512" x2="663" y1="307" y2="307"/><line style="stroke: #A80036; stroke-width: 1.5;" x1="512" x2="663" y1="315" y2="315"/><!--MD5=[9f3fcd8bc4efc713d6f54d260476c26d]
class ItemData--><rect fill="#FEFECE" filter="url(#f1gmy102d4fukz)" height="48" id="ItemData" style="stroke: #A80036; stroke-width: 1.5;" width="89" x="699" y="275"/><ellipse cx="714" cy="291" fill="#ADD1B2" rx="11" ry="11" style="stroke: #A80036; stroke-width: 1.0;"/><path d="M716.9688,296.6406 Q716.3906,296.9375 715.75,297.0781 Q715.1094,297.2344 714.4063,297.2344 Q711.9063,297.2344 710.5781,295.5938 Q709.2656,293.9375 709.2656,290.8125 Q709.2656,287.6875 710.5781,286.0313 Q711.9063,284.375 714.4063,284.375 Q715.1094,284.375 715.75,284.5313 Q716.4063,284.6875 716.9688,284.9844 L716.9688,287.7031 Q716.3438,287.125 715.75,286.8594 Q715.1563,286.5781 714.5313,286.5781 Q713.1875,286.5781 712.5,287.6563 Q711.8125,288.7188 711.8125,290.8125 Q711.8125,292.9063 712.5,293.9844 Q713.1875,295.0469 714.5313,295.0469 Q715.1563,295.0469 715.75,294.7813 Q716.3438,294.5 716.9688,293.9219 L716.9688,296.6406 Z "/><text fill="#000000" font-family="sans-serif" font-size="12" lengthAdjust="spacingAndGlyphs" textLength="57" x="728" y="295.1543">ItemData</text><line style="stroke: #A80036; stroke-width: 1.5;" x1="700" x2="787" y1="307" y2="307"/><line style="stroke: #A80036; stroke-width: 1.5;" x1="700" x2="787" y1="315" y2="315"/><!--MD5=[502b93a38388fad20ac9a7a86f640f9c]
class GridManager--><rect fill="#FEFECE" filter="url(#f1gmy102d4fukz)" height="48" id="GridManager" style="stroke: #A80036; stroke-width: 1.5;" width="112" x="823.5" y="275"/><ellipse cx="838.5" cy="291" fill="#ADD1B2" rx="11" ry="11" style="stroke: #A80036; stroke-width: 1.0;"/><path d="M841.4688,296.6406 Q840.8906,296.9375 840.25,297.0781 Q839.6094,297.2344 838.9063,297.2344 Q836.4063,297.2344 835.0781,295.5938 Q833.7656,293.9375 833.7656,290.8125 Q833.7656,287.6875 835.0781,286.0313 Q836.4063,284.375 838.9063,284.375 Q839.6094,284.375 840.25,284.5313 Q840.9063,284.6875 841.4688,284.9844 L841.4688,287.7031 Q840.8438,287.125 840.25,286.8594 Q839.6563,286.5781 839.0313,286.5781 Q837.6875,286.5781 837,287.6563 Q836.3125,288.7188 836.3125,290.8125 Q836.3125,292.9063 837,293.9844 Q837.6875,295.0469 839.0313,295.0469 Q839.6563,295.0469 840.25,294.7813 Q840.8438,294.5 841.4688,293.9219 L841.4688,296.6406 Z "/><text fill="#000000" font-family="sans-serif" font-size="12" lengthAdjust="spacingAndGlyphs" textLength="80" x="852.5" y="295.1543">GridManager</text><line style="stroke: #A80036; stroke-width: 1.5;" x1="824.5" x2="934.5" y1="307" y2="307"/><line style="stroke: #A80036; stroke-width: 1.5;" x1="824.5" x2="934.5" y1="315" y2="315"/><!--MD5=[ab26b3a5b2958d69171bc0ef878d65b6]
class SelectionResult--><rect fill="#FEFECE" filter="url(#f1gmy102d4fukz)" height="48" id="SelectionResult" style="stroke: #A80036; stroke-width: 1.5;" width="129" x="971" y="275"/><ellipse cx="986" cy="291" fill="#ADD1B2" rx="11" ry="11" style="stroke: #A80036; stroke-width: 1.0;"/><path d="M988.9688,296.6406 Q988.3906,296.9375 987.75,297.0781 Q987.1094,297.2344 986.4063,297.2344 Q983.9063,297.2344 982.5781,295.5938 Q981.2656,293.9375 981.2656,290.8125 Q981.2656,287.6875 982.5781,286.0313 Q983.9063,284.375 986.4063,284.375 Q987.1094,284.375 987.75,284.5313 Q988.4063,284.6875 988.9688,284.9844 L988.9688,287.7031 Q988.3438,287.125 987.75,286.8594 Q987.1563,286.5781 986.5313,286.5781 Q985.1875,286.5781 984.5,287.6563 Q983.8125,288.7188 983.8125,290.8125 Q983.8125,292.9063 984.5,293.9844 Q985.1875,295.0469 986.5313,295.0469 Q987.1563,295.0469 987.75,294.7813 Q988.3438,294.5 988.9688,293.9219 L988.9688,296.6406 Z "/><text fill="#000000" font-family="sans-serif" font-size="12" lengthAdjust="spacingAndGlyphs" textLength="97" x="1000" y="295.1543">SelectionResult</text><line style="stroke: #A80036; stroke-width: 1.5;" x1="972" x2="1099" y1="307" y2="307"/><line style="stroke: #A80036; stroke-width: 1.5;" x1="972" x2="1099" y1="315" y2="315"/><!--MD5=[9433cbe3b7eb99de11d5f6636aab15f7]
reverse link ICommand to StructureSwapCommand--><path d="M743.5,76.51 C743.5,89.14 743.5,103.01 743.5,115.93 " fill="none" id="ICommand&lt;-StructureSwapCommand" style="stroke: #A80036; stroke-width: 1.0;"/><polygon fill="none" points="736.5,76.21,743.5,56.21,750.5,76.21,736.5,76.21" style="stroke: #A80036; stroke-width: 1.0;"/><!--MD5=[2a85bb76ddbec1c039f5782268d222c3]
link StructureSwapCommand to PlacementManager--><path d="M616.38,215.09 C564.78,234.82 507.39,256.76 464.61,273.11 " fill="none" id="StructureSwapCommand-&gt;PlacementManager" style="stroke: #A80036; stroke-width: 1.0;"/><polygon fill="#A80036" points="459.73,274.98,469.565,275.5027,464.4004,273.1947,466.7085,268.0301,459.73,274.98" style="stroke: #A80036; stroke-width: 1.0;"/><text fill="#000000" font-family="sans-serif" font-size="13" lengthAdjust="spacingAndGlyphs" textLength="124" x="335.2764" y="263.9869">placementManager</text><!--MD5=[6fc1898b0ad2b45da9fdf8bc3d0320a2]
link StructureSwapCommand to PlacementGridData--><path d="M673.5,215.09 C650.01,234.14 625.59,255.25 608.58,271.4 " fill="none" id="StructureSwapCommand-&gt;PlacementGridData" style="stroke: #A80036; stroke-width: 1.0;"/><polygon fill="#A80036" points="604.85,274.98,614.1118,271.6305,608.4561,271.5165,608.5701,265.8607,604.85,274.98" style="stroke: #A80036; stroke-width: 1.0;"/><text fill="#000000" font-family="sans-serif" font-size="13" lengthAdjust="spacingAndGlyphs" textLength="99" x="497.6116" y="263.9869">placementData</text><!--MD5=[6fc1898b0ad2b45da9fdf8bc3d0320a2]
link StructureSwapCommand to PlacementGridData--><path d="M698.94,215.09 C677.11,234.3 651.15,255.6 629.61,271.81 " fill="none" id="StructureSwapCommand-&gt;PlacementGridData-1" style="stroke: #A80036; stroke-width: 1.0;"/><polygon fill="#A80036" points="625.37,274.98,634.9787,272.8184,629.382,271.996,630.2043,266.3993,625.37,274.98" style="stroke: #A80036; stroke-width: 1.0;"/><text fill="#000000" font-family="sans-serif" font-size="13" lengthAdjust="spacingAndGlyphs" textLength="153" x="654.6581" y="263.9252">previousPlacementData</text><!--MD5=[91831c32bdf9cde7e9729897d1ae7497]
link StructureSwapCommand to ItemData--><path d="M731.14,215.09 C730.28,233.5 730.84,253.83 732.81,269.75 " fill="none" id="StructureSwapCommand-&gt;ItemData" style="stroke: #A80036; stroke-width: 1.0;"/><polygon fill="#A80036" points="733.53,274.98,736.2591,265.5168,732.8449,270.0272,728.3345,266.613,733.53,274.98" style="stroke: #A80036; stroke-width: 1.0;"/><text fill="#000000" font-family="sans-serif" font-size="13" lengthAdjust="spacingAndGlyphs" textLength="60" x="630.5623" y="269.3593">itemData</text><!--MD5=[91831c32bdf9cde7e9729897d1ae7497]
link StructureSwapCommand to ItemData--><path d="M756.58,215.09 C757.5,233.5 756.91,253.83 754.82,269.75 " fill="none" id="StructureSwapCommand-&gt;ItemData-1" style="stroke: #A80036; stroke-width: 1.0;"/><polygon fill="#A80036" points="754.05,274.98,759.2961,266.6446,754.7651,270.0314,751.3783,265.5004,754.05,274.98" style="stroke: #A80036; stroke-width: 1.0;"/><text fill="#000000" font-family="sans-serif" font-size="13" lengthAdjust="spacingAndGlyphs" textLength="114" x="771.2798" y="263.9252">previousItemData</text><!--MD5=[01bcad247536323565657200e3d03f5b]
link StructureSwapCommand to GridManager--><path d="M793.75,215.09 C813.45,234.14 835.28,255.25 851.99,271.4 " fill="none" id="StructureSwapCommand-&gt;GridManager" style="stroke: #A80036; stroke-width: 1.0;"/><polygon fill="#A80036" points="855.69,274.98,851.9879,265.8534,852.0908,271.5093,846.4349,271.6122,855.69,274.98" style="stroke: #A80036; stroke-width: 1.0;"/><text fill="#000000" font-family="sans-serif" font-size="13" lengthAdjust="spacingAndGlyphs" textLength="80" x="859.8387" y="263.9869">gridManager</text><!--MD5=[0e0a2400e34e33e87f9e7a26c17c0ecb]
link StructureSwapCommand to SelectionResult--><path d="M839.04,215.09 C881.83,234.78 931.14,256.67 969.76,273.01 " fill="none" id="StructureSwapCommand-&gt;SelectionResult" style="stroke: #A80036; stroke-width: 1.0;"/><polygon fill="#A80036" points="974.41,274.98,967.6755,267.7935,969.804,273.0346,964.5628,275.1631,974.41,274.98" style="stroke: #A80036; stroke-width: 1.0;"/><text fill="#000000" font-family="sans-serif" font-size="13" lengthAdjust="spacingAndGlyphs" textLength="96" x="971.0557" y="263.9869">selectionResult</text><!--MD5=[0e0a2400e34e33e87f9e7a26c17c0ecb]
link StructureSwapCommand to SelectionResult--><path d="M864.48,215.09 C908.81,234.62 956.27,256.31 990.05,272.61 " fill="none" id="StructureSwapCommand-&gt;SelectionResult-1" style="stroke: #A80036; stroke-width: 1.0;"/><polygon fill="#A80036" points="994.93,274.98,988.5627,267.4662,990.4269,272.8071,985.086,274.6712,994.93,274.98" style="stroke: #A80036; stroke-width: 1.0;"/><text fill="#000000" font-family="sans-serif" font-size="13" lengthAdjust="spacingAndGlyphs" textLength="160" x="1005.0339" y="263.9869">previousStructuresResult</text><!--MD5=[096a16bcfef2afc461d53338a149d6c6]
@startuml
class StructureSwapCommand {
    + StructureSwapCommand(placementManager:PlacementManager, placementData:PlacementGridData, previousPlacementData:PlacementGridData, gridManager:GridManager, itemData:ItemData, selectionResult:SelectionResult, previousItemData:ItemData)
    + CanExecute() : bool
    + Execute() : void
    + Undo() : void
}
ICommand <|- - StructureSwapCommand
StructureSwapCommand - -> "placementManager" PlacementManager
StructureSwapCommand - -> "placementData" PlacementGridData
StructureSwapCommand - -> "previousPlacementData" PlacementGridData
StructureSwapCommand - -> "itemData" ItemData
StructureSwapCommand - -> "previousItemData" ItemData
StructureSwapCommand - -> "gridManager" GridManager
StructureSwapCommand - -> "selectionResult" SelectionResult
StructureSwapCommand - -> "previousStructuresResult" SelectionResult
@enduml

PlantUML version 1.2020.02(Sun Mar 01 10:22:07 GMT 2020)
(GPL source distribution)
Java Runtime: OpenJDK Runtime Environment
JVM: OpenJDK 64-Bit Server VM
Java Version: 11.0.9+11-Ubuntu-0ubuntu1
Operating System: Linux
Default Encoding: ANSI_X3.4-1968
Language: en
Country: US
--></g></svg>