<?xml version="1.0" encoding="UTF-8" standalone="no"?><svg xmlns="http://www.w3.org/2000/svg" xmlns:xlink="http://www.w3.org/1999/xlink" contentScriptType="application/ecmascript" contentStyleType="text/css" height="360px" preserveAspectRatio="none" style="width:536px;height:360px;" version="1.1" viewBox="0 0 536 360" width="536px" zoomAndPan="magnify"><defs><filter height="300%" id="f1axphnjdff3ut" width="300%" x="-1" y="-1"><feGaussianBlur result="blurOut" stdDeviation="2.0"/><feColorMatrix in="blurOut" result="blurOut2" type="matrix" values="0 0 0 0 0 0 0 0 0 0 0 0 0 0 0 0 0 0 .4 0"/><feOffset dx="4.0" dy="4.0" in="blurOut2" result="blurOut3"/><feBlend in="SourceGraphic" in2="blurOut3" mode="normal"/></filter></defs><g><!--MD5=[0a81ec08d5dbb48915e4c41d2299056e]
class UIPlacementController--><rect fill="#FEFECE" filter="url(#f1axphnjdff3ut)" height="124.8281" id="UIPlacementController" style="stroke: #A80036; stroke-width: 1.5;" width="241" x="176.2" y="116"/><ellipse cx="222.95" cy="132" fill="#ADD1B2" rx="11" ry="11" style="stroke: #A80036; stroke-width: 1.0;"/><path d="M225.9188,137.6406 Q225.3406,137.9375 224.7,138.0781 Q224.0594,138.2344 223.3563,138.2344 Q220.8563,138.2344 219.5281,136.5938 Q218.2156,134.9375 218.2156,131.8125 Q218.2156,128.6875 219.5281,127.0313 Q220.8563,125.375 223.3563,125.375 Q224.0594,125.375 224.7,125.5313 Q225.3563,125.6875 225.9188,125.9844 L225.9188,128.7031 Q225.2938,128.125 224.7,127.8594 Q224.1063,127.5781 223.4813,127.5781 Q222.1375,127.5781 221.45,128.6563 Q220.7625,129.7188 220.7625,131.8125 Q220.7625,133.9063 221.45,134.9844 Q222.1375,136.0469 223.4813,136.0469 Q224.1063,136.0469 224.7,135.7813 Q225.2938,135.5 225.9188,134.9219 L225.9188,137.6406 Z "/><text fill="#000000" font-family="sans-serif" font-size="12" lengthAdjust="spacingAndGlyphs" textLength="139" x="243.45" y="136.1543">UIPlacementController</text><line style="stroke: #A80036; stroke-width: 1.5;" x1="177.2" x2="416.2" y1="148" y2="148"/><line style="stroke: #A80036; stroke-width: 1.5;" x1="177.2" x2="416.2" y1="156" y2="156"/><ellipse cx="187.2" cy="167" fill="#84BE84" rx="3" ry="3" style="stroke: #038048; stroke-width: 1.0;"/><text fill="#000000" font-family="sans-serif" font-size="11" lengthAdjust="spacingAndGlyphs" textLength="215" x="196.2" y="170.2104">SelectObjectWithIndex(index:int) : void</text><ellipse cx="187.2" cy="179.8047" fill="#84BE84" rx="3" ry="3" style="stroke: #038048; stroke-width: 1.0;"/><text fill="#000000" font-family="sans-serif" font-size="11" lengthAdjust="spacingAndGlyphs" textLength="118" x="196.2" y="183.0151">RequestUndo() : void</text><ellipse cx="187.2" cy="192.6094" fill="#84BE84" rx="3" ry="3" style="stroke: #038048; stroke-width: 1.0;"/><text fill="#000000" font-family="sans-serif" font-size="11" lengthAdjust="spacingAndGlyphs" textLength="118" x="196.2" y="195.8198">MoveRequest() : void</text><ellipse cx="187.2" cy="205.4141" fill="#84BE84" rx="3" ry="3" style="stroke: #038048; stroke-width: 1.0;"/><text fill="#000000" font-family="sans-serif" font-size="11" lengthAdjust="spacingAndGlyphs" textLength="170" x="196.2" y="208.6245">ResetMovementButton() : void</text><ellipse cx="187.2" cy="218.2188" fill="#84BE84" rx="3" ry="3" style="stroke: #038048; stroke-width: 1.0;"/><text fill="#000000" font-family="sans-serif" font-size="11" lengthAdjust="spacingAndGlyphs" textLength="200" x="196.2" y="221.4292">CancelPlacementRequested() : void</text><ellipse cx="187.2" cy="231.0234" fill="#84BE84" rx="3" ry="3" style="stroke: #038048; stroke-width: 1.0;"/><text fill="#000000" font-family="sans-serif" font-size="11" lengthAdjust="spacingAndGlyphs" textLength="161" x="196.2" y="234.2339">EnterMovementState() : void</text><!--MD5=[3db59899eb5beb210f00fd86984190c5]
class UnityEvent`1--><rect fill="#FEFECE" filter="url(#f1axphnjdff3ut)" height="48" id="UnityEvent`1" style="stroke: #A80036; stroke-width: 1.5;" width="123" x="89.2" y="301"/><ellipse cx="104.2" cy="317" fill="#ADD1B2" rx="11" ry="11" style="stroke: #A80036; stroke-width: 1.0;"/><path d="M107.1688,322.6406 Q106.5906,322.9375 105.95,323.0781 Q105.3094,323.2344 104.6063,323.2344 Q102.1063,323.2344 100.7781,321.5938 Q99.4656,319.9375 99.4656,316.8125 Q99.4656,313.6875 100.7781,312.0313 Q102.1063,310.375 104.6063,310.375 Q105.3094,310.375 105.95,310.5313 Q106.6063,310.6875 107.1688,310.9844 L107.1688,313.7031 Q106.5438,313.125 105.95,312.8594 Q105.3563,312.5781 104.7313,312.5781 Q103.3875,312.5781 102.7,313.6563 Q102.0125,314.7188 102.0125,316.8125 Q102.0125,318.9063 102.7,319.9844 Q103.3875,321.0469 104.7313,321.0469 Q105.3563,321.0469 105.95,320.7813 Q106.5438,320.5 107.1688,319.9219 L107.1688,322.6406 Z "/><text fill="#000000" font-family="sans-serif" font-size="12" lengthAdjust="spacingAndGlyphs" textLength="80" x="118.2" y="321.1543">UnityEvent`1</text><rect fill="#FFFFFF" height="15.9688" style="stroke: #000000; stroke-width: 1.0; stroke-dasharray: 2.0,2.0;" width="9" x="206.2" y="298"/><text fill="#000000" font-family="sans-serif" font-size="12" font-style="italic" lengthAdjust="spacingAndGlyphs" textLength="7" x="207.2" y="310.1387">T</text><line style="stroke: #A80036; stroke-width: 1.5;" x1="90.2" x2="211.2" y1="333" y2="333"/><line style="stroke: #A80036; stroke-width: 1.5;" x1="90.2" x2="211.2" y1="341" y2="341"/><!--MD5=[83b3cf3d23d77c6f1e1b5291a241bc2a]
class MonoBehaviour--><rect fill="#FEFECE" filter="url(#f1axphnjdff3ut)" height="48" id="MonoBehaviour" style="stroke: #A80036; stroke-width: 1.5;" width="128" x="232.7" y="8"/><ellipse cx="247.7" cy="24" fill="#ADD1B2" rx="11" ry="11" style="stroke: #A80036; stroke-width: 1.0;"/><path d="M250.6688,29.6406 Q250.0906,29.9375 249.45,30.0781 Q248.8094,30.2344 248.1063,30.2344 Q245.6063,30.2344 244.2781,28.5938 Q242.9656,26.9375 242.9656,23.8125 Q242.9656,20.6875 244.2781,19.0313 Q245.6063,17.375 248.1063,17.375 Q248.8094,17.375 249.45,17.5313 Q250.1063,17.6875 250.6688,17.9844 L250.6688,20.7031 Q250.0438,20.125 249.45,19.8594 Q248.8563,19.5781 248.2313,19.5781 Q246.8875,19.5781 246.2,20.6563 Q245.5125,21.7188 245.5125,23.8125 Q245.5125,25.9063 246.2,26.9844 Q246.8875,28.0469 248.2313,28.0469 Q248.8563,28.0469 249.45,27.7813 Q250.0438,27.5 250.6688,26.9219 L250.6688,29.6406 Z "/><text fill="#000000" font-family="sans-serif" font-size="12" lengthAdjust="spacingAndGlyphs" textLength="96" x="261.7" y="28.1543">MonoBehaviour</text><line style="stroke: #A80036; stroke-width: 1.5;" x1="233.7" x2="359.7" y1="40" y2="40"/><line style="stroke: #A80036; stroke-width: 1.5;" x1="233.7" x2="359.7" y1="48" y2="48"/><!--MD5=[3ead63e7a6dbaeb1466e3b865cfef6ea]
class UnityEvent--><rect fill="#FEFECE" filter="url(#f1axphnjdff3ut)" height="48" id="UnityEvent" style="stroke: #A80036; stroke-width: 1.5;" width="98" x="247.7" y="301"/><ellipse cx="262.7" cy="317" fill="#ADD1B2" rx="11" ry="11" style="stroke: #A80036; stroke-width: 1.0;"/><path d="M265.6688,322.6406 Q265.0906,322.9375 264.45,323.0781 Q263.8094,323.2344 263.1063,323.2344 Q260.6063,323.2344 259.2781,321.5938 Q257.9656,319.9375 257.9656,316.8125 Q257.9656,313.6875 259.2781,312.0313 Q260.6063,310.375 263.1063,310.375 Q263.8094,310.375 264.45,310.5313 Q265.1063,310.6875 265.6688,310.9844 L265.6688,313.7031 Q265.0438,313.125 264.45,312.8594 Q263.8563,312.5781 263.2313,312.5781 Q261.8875,312.5781 261.2,313.6563 Q260.5125,314.7188 260.5125,316.8125 Q260.5125,318.9063 261.2,319.9844 Q261.8875,321.0469 263.2313,321.0469 Q263.8563,321.0469 264.45,320.7813 Q265.0438,320.5 265.6688,319.9219 L265.6688,322.6406 Z "/><text fill="#000000" font-family="sans-serif" font-size="12" lengthAdjust="spacingAndGlyphs" textLength="66" x="276.7" y="321.1543">UnityEvent</text><line style="stroke: #A80036; stroke-width: 1.5;" x1="248.7" x2="344.7" y1="333" y2="333"/><line style="stroke: #A80036; stroke-width: 1.5;" x1="248.7" x2="344.7" y1="341" y2="341"/><!--MD5=[f849e02107d3b47f06d9378ebcb2ed15]
reverse link MonoBehaviour to UIPlacementController--><path d="M296.7,76.67 C296.7,89.05 296.7,102.77 296.7,115.99 " fill="none" id="MonoBehaviour&lt;-UIPlacementController" style="stroke: #A80036; stroke-width: 1.0;"/><polygon fill="none" points="289.7,76.22,296.7,56.22,303.7,76.22,289.7,76.22" style="stroke: #A80036; stroke-width: 1.0;"/><!--MD5=[1365941975eb39f0160906f08e8cef6e]
link UIPlacementController to UnityEvent`1--><path d="M234.36,241.2 C214.64,260.72 193.86,281.28 177.94,297.04 " fill="none" id="UIPlacementController-&gt;UnityEvent`1" style="stroke: #A80036; stroke-width: 1.0;"/><polygon fill="#A80036" points="174,300.94,183.2066,297.4417,177.5498,297.4188,177.5727,291.762,174,300.94" style="stroke: #A80036; stroke-width: 1.0;"/><text fill="#000000" font-family="sans-serif" font-size="13" lengthAdjust="spacingAndGlyphs" textLength="153" x="7.3675" y="289.9367">OnObjectSelected&lt;int&gt;</text><!--MD5=[fd7efd6a5ebe73e4ab3afaa4acff11a4]
link UIPlacementController to UnityEvent--><path d="M244.7,241.2 C242.86,260.39 246.06,280.59 254.3,296.23 " fill="none" id="UIPlacementController-&gt;UnityEvent" style="stroke: #A80036; stroke-width: 1.0;"/><polygon fill="#A80036" points="257.01,300.94,255.9726,291.1459,254.5093,296.6103,249.045,295.147,257.01,300.94" style="stroke: #A80036; stroke-width: 1.0;"/><text fill="#000000" font-family="sans-serif" font-size="13" lengthAdjust="spacingAndGlyphs" textLength="120" x="262.2144" y="289.9367">OnUndoRequested</text><!--MD5=[fd7efd6a5ebe73e4ab3afaa4acff11a4]
link UIPlacementController to UnityEvent--><path d="M270.7,241.2 C269.79,260.22 271.35,280.24 275.39,295.83 " fill="none" id="UIPlacementController-&gt;UnityEvent-1" style="stroke: #A80036; stroke-width: 1.0;"/><polygon fill="#A80036" points="276.85,300.94,278.2313,291.1885,275.4802,296.1313,270.5373,293.3802,276.85,300.94" style="stroke: #A80036; stroke-width: 1.0;"/><text fill="#000000" font-family="sans-serif" font-size="13" lengthAdjust="spacingAndGlyphs" textLength="104" x="191.7684" y="289.8748">OnMoveRequest</text><!--MD5=[fd7efd6a5ebe73e4ab3afaa4acff11a4]
link UIPlacementController to UnityEvent--><path d="M296.7,241.2 C296.7,260.22 296.7,280.24 296.7,295.83 " fill="none" id="UIPlacementController-&gt;UnityEvent-2" style="stroke: #A80036; stroke-width: 1.0;"/><polygon fill="#A80036" points="296.7,300.94,300.7,291.94,296.7,295.94,292.7,291.94,296.7,300.94" style="stroke: #A80036; stroke-width: 1.0;"/><text fill="#000000" font-family="sans-serif" font-size="13" lengthAdjust="spacingAndGlyphs" textLength="165" x="353.4188" y="301.6675">OnResetMovementButton</text><!--MD5=[fd7efd6a5ebe73e4ab3afaa4acff11a4]
link UIPlacementController to UnityEvent--><path d="M322.7,241.2 C323.61,260.22 322.04,280.24 318,295.83 " fill="none" id="UIPlacementController-&gt;UnityEvent-3" style="stroke: #A80036; stroke-width: 1.0;"/><polygon fill="#A80036" points="316.54,300.94,322.8527,293.3802,317.9098,296.1313,315.1587,291.1885,316.54,300.94" style="stroke: #A80036; stroke-width: 1.0;"/><text fill="#000000" font-family="sans-serif" font-size="13" lengthAdjust="spacingAndGlyphs" textLength="129" x="338.1521" y="289.9367">OnCancelPlacement</text><!--MD5=[fd7efd6a5ebe73e4ab3afaa4acff11a4]
link UIPlacementController to UnityEvent--><path d="M348.7,241.2 C350.53,260.39 347.33,280.59 339.1,296.23 " fill="none" id="UIPlacementController-&gt;UnityEvent-4" style="stroke: #A80036; stroke-width: 1.0;"/><polygon fill="#A80036" points="336.38,300.94,344.345,295.147,338.8807,296.6103,337.4174,291.1459,336.38,300.94" style="stroke: #A80036; stroke-width: 1.0;"/><text fill="#000000" font-family="sans-serif" font-size="13" lengthAdjust="spacingAndGlyphs" textLength="171" x="353.9834" y="293.5781">OnMovementStateEntered</text><!--MD5=[56964af4c80015fa90304bec2c5e7489]
@startuml
class UIPlacementController {
    + SelectObjectWithIndex(index:int) : void
    + RequestUndo() : void
    + MoveRequest() : void
    + ResetMovementButton() : void
    + CancelPlacementRequested() : void
    + EnterMovementState() : void
}
class "UnityEvent`1"<T> {
}
MonoBehaviour <|- - UIPlacementController
UIPlacementController - -> "OnObjectSelected<int>" "UnityEvent`1"
UIPlacementController - -> "OnUndoRequested" UnityEvent
UIPlacementController - -> "OnMoveRequest" UnityEvent
UIPlacementController - -> "OnResetMovementButton" UnityEvent
UIPlacementController - -> "OnCancelPlacement" UnityEvent
UIPlacementController - -> "OnMovementStateEntered" UnityEvent
@enduml

PlantUML version 1.2020.02(Sun Mar 01 10:22:07 GMT 2020)
(GPL source distribution)
Java Runtime: OpenJDK Runtime Environment
JVM: OpenJDK 64-Bit Server VM
Java Version: 11.0.9+11-Ubuntu-0ubuntu1
Operating System: Linux
Default Encoding: ANSI_X3.4-1968
Language: en
Country: US
--></g></svg>