<?xml version="1.0" encoding="UTF-8" standalone="no"?><svg xmlns="http://www.w3.org/2000/svg" xmlns:xlink="http://www.w3.org/1999/xlink" contentScriptType="application/ecmascript" contentStyleType="text/css" height="187px" preserveAspectRatio="none" style="width:1023px;height:187px;" version="1.1" viewBox="0 0 1023 187" width="1023px" zoomAndPan="magnify"><defs><filter height="300%" id="f1ukvf7y83uknf" width="300%" x="-1" y="-1"><feGaussianBlur result="blurOut" stdDeviation="2.0"/><feColorMatrix in="blurOut" result="blurOut2" type="matrix" values="0 0 0 0 0 0 0 0 0 0 0 0 0 0 0 0 0 0 .4 0"/><feOffset dx="4.0" dy="4.0" in="blurOut2" result="blurOut3"/><feBlend in="SourceGraphic" in2="blurOut3" mode="normal"/></filter></defs><g><!--MD5=[548efbc4652e7b97833e5ff209a4611f]
class WallRemovalStrategy--><rect fill="#FEFECE" filter="url(#f1ukvf7y83uknf)" height="60.8047" id="WallRemovalStrategy" style="stroke: #A80036; stroke-width: 1.5;" width="1006" x="6" y="116"/><ellipse cx="439.75" cy="132" fill="#ADD1B2" rx="11" ry="11" style="stroke: #A80036; stroke-width: 1.0;"/><path d="M442.7188,137.6406 Q442.1406,137.9375 441.5,138.0781 Q440.8594,138.2344 440.1563,138.2344 Q437.6563,138.2344 436.3281,136.5938 Q435.0156,134.9375 435.0156,131.8125 Q435.0156,128.6875 436.3281,127.0313 Q437.6563,125.375 440.1563,125.375 Q440.8594,125.375 441.5,125.5313 Q442.1563,125.6875 442.7188,125.9844 L442.7188,128.7031 Q442.0938,128.125 441.5,127.8594 Q440.9063,127.5781 440.2813,127.5781 Q438.9375,127.5781 438.25,128.6563 Q437.5625,129.7188 437.5625,131.8125 Q437.5625,133.9063 438.25,134.9844 Q438.9375,136.0469 440.2813,136.0469 Q440.9063,136.0469 441.5,135.7813 Q442.0938,135.5 442.7188,134.9219 L442.7188,137.6406 Z "/><text fill="#000000" font-family="sans-serif" font-size="12" lengthAdjust="spacingAndGlyphs" textLength="130" x="460.25" y="136.1543">WallRemovalStrategy</text><line style="stroke: #A80036; stroke-width: 1.5;" x1="7" x2="1011" y1="148" y2="148"/><line style="stroke: #A80036; stroke-width: 1.5;" x1="7" x2="1011" y1="156" y2="156"/><ellipse cx="17" cy="167" fill="#84BE84" rx="3" ry="3" style="stroke: #038048; stroke-width: 1.0;"/><text fill="#000000" font-family="sans-serif" font-size="11" lengthAdjust="spacingAndGlyphs" textLength="980" x="26" y="170.2104">WallRemovalStrategy(wallPlacementData:PlacementGridData, inWallPlacementData:PlacementGridData, objectPlacementData:PlacementGridData, gridManager:GridManager)</text><!--MD5=[4403a75c9c2201f8673ce260167f297f]
class WallPlacementStrategy--><rect fill="#FEFECE" filter="url(#f1ukvf7y83uknf)" height="48" id="WallPlacementStrategy" style="stroke: #A80036; stroke-width: 1.5;" width="176" x="421" y="8"/><ellipse cx="436" cy="24" fill="#ADD1B2" rx="11" ry="11" style="stroke: #A80036; stroke-width: 1.0;"/><path d="M438.9688,29.6406 Q438.3906,29.9375 437.75,30.0781 Q437.1094,30.2344 436.4063,30.2344 Q433.9063,30.2344 432.5781,28.5938 Q431.2656,26.9375 431.2656,23.8125 Q431.2656,20.6875 432.5781,19.0313 Q433.9063,17.375 436.4063,17.375 Q437.1094,17.375 437.75,17.5313 Q438.4063,17.6875 438.9688,17.9844 L438.9688,20.7031 Q438.3438,20.125 437.75,19.8594 Q437.1563,19.5781 436.5313,19.5781 Q435.1875,19.5781 434.5,20.6563 Q433.8125,21.7188 433.8125,23.8125 Q433.8125,25.9063 434.5,26.9844 Q435.1875,28.0469 436.5313,28.0469 Q437.1563,28.0469 437.75,27.7813 Q438.3438,27.5 438.9688,26.9219 L438.9688,29.6406 Z "/><text fill="#000000" font-family="sans-serif" font-size="12" lengthAdjust="spacingAndGlyphs" textLength="144" x="450" y="28.1543">WallPlacementStrategy</text><line style="stroke: #A80036; stroke-width: 1.5;" x1="422" x2="596" y1="40" y2="40"/><line style="stroke: #A80036; stroke-width: 1.5;" x1="422" x2="596" y1="48" y2="48"/><!--MD5=[2505f5b0c628f97edd873e361f0d6bba]
reverse link WallPlacementStrategy to WallRemovalStrategy--><path d="M509,76.11 C509,89.31 509,103.54 509,115.65 " fill="none" id="WallPlacementStrategy&lt;-WallRemovalStrategy" style="stroke: #A80036; stroke-width: 1.0;"/><polygon fill="none" points="502,76.04,509,56.04,516,76.04,502,76.04" style="stroke: #A80036; stroke-width: 1.0;"/><!--MD5=[819d67a3b939782039280bf606ddd885]
@startuml
class WallRemovalStrategy {
    + WallRemovalStrategy(wallPlacementData:PlacementGridData, inWallPlacementData:PlacementGridData, objectPlacementData:PlacementGridData, gridManager:GridManager)
}
WallPlacementStrategy <|- - WallRemovalStrategy
@enduml

PlantUML version 1.2020.02(Sun Mar 01 10:22:07 GMT 2020)
(GPL source distribution)
Java Runtime: OpenJDK Runtime Environment
JVM: OpenJDK 64-Bit Server VM
Java Version: 11.0.9+11-Ubuntu-0ubuntu1
Operating System: Linux
Default Encoding: ANSI_X3.4-1968
Language: en
Country: US
--></g></svg>