<?xml version="1.0" encoding="UTF-8" standalone="no"?><svg xmlns="http://www.w3.org/2000/svg" xmlns:xlink="http://www.w3.org/1999/xlink" contentScriptType="application/ecmascript" contentStyleType="text/css" height="226px" preserveAspectRatio="none" style="width:1034px;height:226px;" version="1.1" viewBox="0 0 1034 226" width="1034px" zoomAndPan="magnify"><defs><filter height="300%" id="f1vzk8ft9l74qj" width="300%" x="-1" y="-1"><feGaussianBlur result="blurOut" stdDeviation="2.0"/><feColorMatrix in="blurOut" result="blurOut2" type="matrix" values="0 0 0 0 0 0 0 0 0 0 0 0 0 0 0 0 0 0 .4 0"/><feOffset dx="4.0" dy="4.0" in="blurOut2" result="blurOut3"/><feBlend in="SourceGraphic" in2="blurOut3" mode="normal"/></filter></defs><g><!--MD5=[4403a75c9c2201f8673ce260167f297f]
class WallPlacementStrategy--><rect fill="#FEFECE" filter="url(#f1vzk8ft9l74qj)" height="99.2188" id="WallPlacementStrategy" style="stroke: #A80036; stroke-width: 1.5;" width="1017" x="6" y="116"/><ellipse cx="438.25" cy="132" fill="#ADD1B2" rx="11" ry="11" style="stroke: #A80036; stroke-width: 1.0;"/><path d="M441.2188,137.6406 Q440.6406,137.9375 440,138.0781 Q439.3594,138.2344 438.6563,138.2344 Q436.1563,138.2344 434.8281,136.5938 Q433.5156,134.9375 433.5156,131.8125 Q433.5156,128.6875 434.8281,127.0313 Q436.1563,125.375 438.6563,125.375 Q439.3594,125.375 440,125.5313 Q440.6563,125.6875 441.2188,125.9844 L441.2188,128.7031 Q440.5938,128.125 440,127.8594 Q439.4063,127.5781 438.7813,127.5781 Q437.4375,127.5781 436.75,128.6563 Q436.0625,129.7188 436.0625,131.8125 Q436.0625,133.9063 436.75,134.9844 Q437.4375,136.0469 438.7813,136.0469 Q439.4063,136.0469 440,135.7813 Q440.5938,135.5 441.2188,134.9219 L441.2188,137.6406 Z "/><text fill="#000000" font-family="sans-serif" font-size="12" lengthAdjust="spacingAndGlyphs" textLength="144" x="458.75" y="136.1543">WallPlacementStrategy</text><line style="stroke: #A80036; stroke-width: 1.5;" x1="7" x2="1022" y1="148" y2="148"/><line style="stroke: #A80036; stroke-width: 1.5;" x1="7" x2="1022" y1="156" y2="156"/><ellipse cx="17" cy="167" fill="#84BE84" rx="3" ry="3" style="stroke: #038048; stroke-width: 1.0;"/><text fill="#000000" font-family="sans-serif" font-size="11" lengthAdjust="spacingAndGlyphs" textLength="991" x="26" y="170.2104">WallPlacementStrategy(wallPlacementData:PlacementGridData, inWallPlacementData:PlacementGridData, objectPlacementData:PlacementGridData, gridManager:GridManager)</text><ellipse cx="17" cy="179.8047" fill="#84BE84" rx="3" ry="3" style="stroke: #038048; stroke-width: 1.0;"/><text fill="#000000" font-family="sans-serif" font-size="11" lengthAdjust="spacingAndGlyphs" textLength="486" x="26" y="183.0151">«override» StartSelection(mousePosition:Vector3, selectionData:SelectionData) : void</text><ellipse cx="17" cy="192.6094" fill="#84BE84" rx="3" ry="3" style="stroke: #038048; stroke-width: 1.0;"/><text fill="#000000" font-family="sans-serif" font-size="11" lengthAdjust="spacingAndGlyphs" textLength="495" x="26" y="195.8198">«override» ModifySelection(mousePosition:Vector3, selectionData:SelectionData) : bool</text><ellipse cx="17" cy="205.4141" fill="#84BE84" rx="3" ry="3" style="stroke: #038048; stroke-width: 1.0;"/><text fill="#000000" font-family="sans-serif" font-size="11" lengthAdjust="spacingAndGlyphs" textLength="352" x="26" y="208.6245">«override» FinishSelection(selectionData:SelectionData) : void</text><!--MD5=[b9d97c2f6c0f798d1e584316650c0b1a]
class SelectionStrategy--><rect fill="#FEFECE" filter="url(#f1vzk8ft9l74qj)" height="48" id="SelectionStrategy" style="stroke: #A80036; stroke-width: 1.5;" width="143" x="443" y="8"/><ellipse cx="458" cy="24" fill="#ADD1B2" rx="11" ry="11" style="stroke: #A80036; stroke-width: 1.0;"/><path d="M460.9688,29.6406 Q460.3906,29.9375 459.75,30.0781 Q459.1094,30.2344 458.4063,30.2344 Q455.9063,30.2344 454.5781,28.5938 Q453.2656,26.9375 453.2656,23.8125 Q453.2656,20.6875 454.5781,19.0313 Q455.9063,17.375 458.4063,17.375 Q459.1094,17.375 459.75,17.5313 Q460.4063,17.6875 460.9688,17.9844 L460.9688,20.7031 Q460.3438,20.125 459.75,19.8594 Q459.1563,19.5781 458.5313,19.5781 Q457.1875,19.5781 456.5,20.6563 Q455.8125,21.7188 455.8125,23.8125 Q455.8125,25.9063 456.5,26.9844 Q457.1875,28.0469 458.5313,28.0469 Q459.1563,28.0469 459.75,27.7813 Q460.3438,27.5 460.9688,26.9219 L460.9688,29.6406 Z "/><text fill="#000000" font-family="sans-serif" font-size="12" lengthAdjust="spacingAndGlyphs" textLength="111" x="472" y="28.1543">SelectionStrategy</text><line style="stroke: #A80036; stroke-width: 1.5;" x1="444" x2="585" y1="40" y2="40"/><line style="stroke: #A80036; stroke-width: 1.5;" x1="444" x2="585" y1="48" y2="48"/><!--MD5=[91a4bbe12901eb5049f5c1781b01e00d]
reverse link SelectionStrategy to WallPlacementStrategy--><path d="M514.5,76.51 C514.5,89.14 514.5,103.01 514.5,115.93 " fill="none" id="SelectionStrategy&lt;-WallPlacementStrategy" style="stroke: #A80036; stroke-width: 1.0;"/><polygon fill="none" points="507.5,76.21,514.5,56.21,521.5,76.21,507.5,76.21" style="stroke: #A80036; stroke-width: 1.0;"/><!--MD5=[0486cffbb3f181948bb2d1a9275490ad]
@startuml
class WallPlacementStrategy {
    + WallPlacementStrategy(wallPlacementData:PlacementGridData, inWallPlacementData:PlacementGridData, objectPlacementData:PlacementGridData, gridManager:GridManager)
    + <<override>> StartSelection(mousePosition:Vector3, selectionData:SelectionData) : void
    + <<override>> ModifySelection(mousePosition:Vector3, selectionData:SelectionData) : bool
    + <<override>> FinishSelection(selectionData:SelectionData) : void
}
SelectionStrategy <|- - WallPlacementStrategy
@enduml

PlantUML version 1.2020.02(Sun Mar 01 10:22:07 GMT 2020)
(GPL source distribution)
Java Runtime: OpenJDK Runtime Environment
JVM: OpenJDK 64-Bit Server VM
Java Version: 11.0.9+11-Ubuntu-0ubuntu1
Operating System: Linux
Default Encoding: ANSI_X3.4-1968
Language: en
Country: US
--></g></svg>